<?xml version="1.0" encoding="UTF-8" standalone="no"?>
<!-- Created with Inkscape (http://www.inkscape.org/) -->

<svg
   width="210mm"
   height="297mm"
   viewBox="0 0 210 297"
   version="1.1"
   id="svg18"
   inkscape:version="1.1.2 (0a00cf5339, 2022-02-04)"
   sodipodi:docname="ozgurTurkiye.svg.svg"
   xmlns:inkscape="http://www.inkscape.org/namespaces/inkscape"
   xmlns:sodipodi="http://sodipodi.sourceforge.net/DTD/sodipodi-0.dtd"
   xmlns="http://www.w3.org/2000/svg"
   xmlns:svg="http://www.w3.org/2000/svg">
  <sodipodi:namedview
     id="namedview20"
     pagecolor="#ffffff"
     bordercolor="#000000"
     borderopacity="0.25"
     inkscape:pageshadow="2"
     inkscape:pageopacity="0.0"
     inkscape:pagecheckerboard="0"
     inkscape:document-units="mm"
     showgrid="false"
     inkscape:zoom="0.5638071"
     inkscape:cx="349.41029"
     inkscape:cy="572.00415"
     inkscape:window-width="1920"
     inkscape:window-height="1016"
     inkscape:window-x="0"
     inkscape:window-y="0"
     inkscape:window-maximized="1"
     inkscape:current-layer="layer3" />
  <defs
     id="defs15" />
  <g
     inkscape:label="Layer 1"
     inkscape:groupmode="layer"
     id="layer1">
    <path
       style="fill:#e30016;fill-opacity:1;stroke-width:5.0964;paint-order:markers fill stroke"
       d="M -1.8445041,0.02474629 211.39409,0.10404819 211.38101,297.28718 -2.1042989,297.40521 Z"
       id="path18244" />
  </g>
  <g
     inkscape:groupmode="layer"
     id="layer2"
     inkscape:label="Layer 2">
    <g
       id="Layer1000"
       transform="matrix(0,0.12779768,-0.12421383,0,161.9623,87.305503)"
       style="fill:#ffffff;fill-opacity:1">
      <path
         d="m 675.9377,689.3541 c -1.7717,1.2982 -2.7748,2.9863 -4.1451,4.8549 -1.9157,2.613 -2.518,3.0554 -4.5462,5.4538 l -37.0624,39.9376 c -4.0624,3.7154 -5.9372,6.0197 -10.393,9.6069 -3.4047,2.7411 -6.6319,5.8547 -10.1619,8.8382 -3.8656,3.2669 -7.1419,5.6489 -11.2635,8.7366 -15.2161,11.3987 -30.0707,21.3628 -47.1075,30.8923 l -39.3185,18.6814 c -4.7852,1.9021 -9.1194,3.8509 -14.3663,5.6336 -59.6818,20.2796 -105.3014,26.1303 -169.5609,21.2899 -58.8614,-4.4337 -122.8549,-28.3836 -171.8781,-61.122 -15.5265,-10.3689 -29.5535,-22.2792 -44.0499,-33.95 C 101.467,739.6594 92.3482,729.2449 82.673,719.6187 72.847,709.842 64.387,698.2257 56.0781,687.2136 35.3923,659.7972 27.8357,643.3387 12.9268,613.3649 6.5157,600.476 1.4003,585.4192 -2.9356,571.2273 l -11.8805,-47.1195 c -2.2354,-11.0539 -3.5626,-22.9665 -4.9731,-34.027 -1.5353,-12.0402 -0.3541,-24.6425 -1.8839,-37.1815 -1.4743,-12.0853 4.0731,-59.3107 5.8943,-70.2615 C -4.4836,314.727 25.7508,247.9419 70.236,195.6526 l 18.4507,-20.5495 c 21.3693,-21.2448 43.4744,-40.6326 69.0571,-56.9426 2.249,-1.434 3.7341,-2.5826 5.9978,-4.0025 4.1953,-2.6314 8.1079,-5.0471 12.5391,-7.4608 8.803,-4.7959 16.8043,-8.9033 25.6566,-13.3432 44.0002,-22.07 100.5486,-37.0055 157.0003,-36.9998 27.794,0.0028 48.9682,1.1273 72.7285,5.2716 58.9402,10.2804 117.5848,35.9274 163.5565,70.4435 l 31.864,26.136 c 3.4168,2.7258 6.8459,6.6438 10.1012,9.8988 3.4095,3.4095 6.0843,6.1059 9.5085,9.4913 5.9919,5.9241 23.7076,29.1696 27.2413,31.7588 -1.5846,-6.8015 -10.0324,-18.6568 -13.6562,-25.3437 -1.929,-3.5604 -2.9067,-4.7923 -4.921,-8.0791 C 642.1065,154.3031 616.695,118.2883 598.6956,100.5962 589.8124,91.8646 582.3765,81.6664 572.3597,73.9321 569.5611,71.7712 568.0939,70.0322 565.6898,67.602 549.1171,50.8516 517.1122,27.1913 497.6186,15.673 483.9043,7.5696 470.0322,-1.6566 455.6211,-8.3293 c -22.0595,-10.2144 -42.7195,-18.8263 -66.306,-26.6939 -20.3179,-6.7771 -41.9602,-12.8438 -63.3201,-15.6801 -46.6322,-6.192 -73.7379,-8.7129 -123.982,-4.8671 -15.0602,1.1529 -32.394,4.0816 -46.1588,6.8411 l -42.7178,10.2824 C 52.2164,-22.0003 -6.6288,12.4818 -54.9224,51.4942 l -31.845,28.1548 c -6.7286,5.6239 -12.7255,13.5289 -19.0647,19.9355 -2.8219,2.8522 -3.6269,4.6604 -6.4751,7.5246 -2.7726,2.7878 -3.4929,4.2885 -6.0072,6.993 -2.5353,2.7267 -3.6389,4.1579 -5.9783,7.0217 -18.0139,22.0539 -34.7794,45.5928 -48.4265,70.5736 -6.2841,11.5033 -12.8568,22.7693 -18.0542,34.9458 -14.2086,33.2881 -22.352,50.1095 -32.2965,87.7034 -3.803,14.3771 -6.5727,27.6154 -9.572,43.4279 -16.7536,88.3245 -8.6593,193.4564 23.8708,276.2884 10.9417,27.8614 22.4158,55.6563 37.8899,81.11 15.406,25.3414 30.5149,46.7733 48.9483,70.0517 l 12.5754,14.4244 c 2.5429,3.037 3.132,4.0844 6.0406,6.9596 l 33.4965,32.5035 c 14.1806,12.5286 29.2626,24.1274 44.4764,35.5235 10.2212,7.6561 21.2173,14.1857 32.226,20.774 58.3134,34.8981 133.4483,60.6206 201.0373,63.9629 17.0373,0.8425 33.8689,2.9129 51.0233,1.9865 l 48.7009,-4.2993 c 35.1065,-4.6114 64.7056,-12.6142 95.8147,-23.1851 40.6185,-13.8019 78.0208,-34.7927 113.292,-58.7081 12.97,-8.7942 24.8491,-19.1086 37.0474,-28.9525 3.3203,-2.6796 4.3229,-3.7786 7.3786,-6.6214 5.1619,-4.8028 16.1788,-13.6534 20.3519,-18.648 2.7295,-3.2667 3.7092,-4.4005 6.6592,-7.3409 17.9521,-17.8934 33.2334,-36.7968 48.3301,-57.6697 11.1501,-15.4163 20.9013,-31.9309 30.4722,-48.528 2.5021,-4.3393 7.7411,-12.8716 8.9481,-18.0519 z"
         style="fill:#ffffff;fill-opacity:1;fill-rule:evenodd"
         id="path2" />
      <path
         d="m 777.9376,387.354 c 0,15.5005 3.0166,11.1008 -17.1235,17.8765 L 623.9378,449.354 c 2.3735,3.2397 32.8842,12.1246 37.3771,13.6227 l 106.9875,36.0128 c 3.5013,1.1897 6.8017,2.0049 9.6352,3.3647 0,14.9647 -0.9998,26.2741 -0.9998,41 0,14.3331 -0.0173,28.6674 3e-4,43.0002 0.01,8.0938 -1.025,13.0756 -1.0346,19.9655 l 0.0343,64.0341 c 2.7881,-2.0429 57.2935,-82.0108 64.7903,-93.2097 l 18.0099,-25.9897 c 14.9168,-22.4393 8.4575,-18.1471 31.0655,-10.6662 6.4363,2.1297 12.9141,4.6417 19.2676,6.7323 l 114.8667,41.1333 c -0.8365,-3.1326 -9.159,-14.0982 -11.5781,-17.4221 l -23.8456,-34.154 c -5.8524,-8.0893 -58.4864,-82.3417 -59.5763,-86.4239 20.4437,-30.5299 50.0238,-69.828 72.0071,-100.9927 3.9557,-5.6078 7.9622,-11.196 12.1444,-16.8557 2.0444,-2.7663 3.9668,-5.5029 5.8414,-8.1586 2.1183,-3.0011 4.2746,-5.7189 6.0072,-8.993 -10.3289,2.4064 -98.6933,33.7672 -114.8735,39.1267 -47.0282,15.5775 -35.464,19.3646 -50.7257,-3.5275 L 789.3459,246.9458 c -2.2221,-3.2068 -3.5952,-4.8367 -5.8107,-8.189 -2.2207,-3.3602 -3.6085,-6.4012 -6.5974,-8.4027 0,53.3945 0.9998,103.5884 0.9998,156.9999 z"
         style="fill:#ffffff;fill-opacity:1;fill-rule:evenodd"
         id="path4" />
      <path
         d="m 675.9377,689.3541 h 1.0001 l -0.8334,-1.1668 z"
         style="fill:#ffffff;fill-opacity:1;fill-rule:evenodd"
         id="path6" />
    </g>
  </g>
  <g
     inkscape:groupmode="layer"
     id="layer3"
     inkscape:label="Layer 3">
    <text
       xml:space="preserve"
       style="font-size:11.2889px;font-family:monospace;-inkscape-font-specification:monospace;fill:#ffffff;fill-opacity:1;stroke-width:5.032;paint-order:markers fill stroke"
       x="11.719166"
       y="255.81435"
       id="text26096"><tspan
         sodipodi:role="line"
         id="tspan26094"
         style="font-size:11.2889px;stroke-width:5.032"
         x="11.719166"
         y="255.81435">Özgür Yazılım, Özgür Türkiye</tspan></text>
  </g>
</svg>
