<?xml version="1.0" encoding="UTF-8" standalone="no"?>
<svg
   version="1.1"
   id="Layer_1"
   x="0px"
   y="0px"
   viewBox="0 0 1668.411 1668.411"
   enable-background="new 0 0 1668.411 1668.411"
   xml:space="preserve"
   sodipodi:docname="unity-remix.svg"
   inkscape:version="1.2.2 (b0a8486541, 2022-12-01)"
   inkscape:export-filename="unity-remix.png"
   inkscape:export-xdpi="96"
   inkscape:export-ydpi="96"
   xmlns:inkscape="http://www.inkscape.org/namespaces/inkscape"
   xmlns:sodipodi="http://sodipodi.sourceforge.net/DTD/sodipodi-0.dtd"
   xmlns="http://www.w3.org/2000/svg"
   xmlns:svg="http://www.w3.org/2000/svg"><defs
   id="defs190" /><sodipodi:namedview
   id="namedview188"
   pagecolor="#ffffff"
   bordercolor="#000000"
   borderopacity="0.25"
   inkscape:showpageshadow="2"
   inkscape:pageopacity="0.0"
   inkscape:pagecheckerboard="0"
   inkscape:deskcolor="#d1d1d1"
   showgrid="false"
   inkscape:zoom="0.47829941"
   inkscape:cx="813.29809"
   inkscape:cy="834.2055"
   inkscape:window-width="1920"
   inkscape:window-height="1007"
   inkscape:window-x="0"
   inkscape:window-y="0"
   inkscape:window-maximized="1"
   inkscape:current-layer="Layer_1" />
<path
   d="M1208.799,703.035h256.481h2.637c29.59,4.125,68.264,3.394,103.754,48.947H1625  c-15.977-155.489-76.771-297.689-169.244-413.485c-12.518,11.736-36.875,38.392-36.875,38.392  c2.621,39.466-13.494,63.555-29.534,87.68l-42.917,42.917c0,0-131.04,131.04-131.041,131.04  c-15.644-14.094-23.812-31.731-10.614-59.53l49.821-49.821l-4.615-4.615l-138.442,138.442c-9.193,9.193-23.794,9.414-32.756,0.452  c-8.971-8.971-8.74-23.563,0.452-32.755l138.443-138.442l-5.999-5.999l-160.584,160.584c-9.211,9.211-23.803,9.442-32.783,0.461  c-8.943-8.944-8.741-23.563,0.48-32.765l160.584-160.584l-5.067-5.067L1035.865,587.33c-9.193,9.193-23.794,9.414-32.756,0.452  s-8.74-23.563,0.452-32.755l138.443-138.442l-5.538-5.538l-97.833,97.833c-9.211,9.211-23.794,9.414-32.756,0.452  c-8.98-8.98-8.759-23.544,0.452-32.755l181.36-181.36l1.864-1.864c23.84-18.007,50.67-45.871,107.976-38.755l37.677-37.677  c-115.074-93.511-256.797-155.491-412.019-172.779c-0.557,17.136,1.072,53.265,1.072,53.265  c29.76,26.053,35.398,54.481,41.115,82.883v60.694c0,0,0,185.319-0.001,185.319c-21.027,1.096-39.275-5.6-49.599-34.589v-70.457  h-6.526v195.787c0,13-10.168,23.482-22.842,23.482c-12.687,0-22.842-10.481-22.842-23.482V321.256h-8.484v227.1  c0,13.026-10.155,23.507-22.855,23.507c-12.648,0-22.842-10.481-22.829-23.507v-227.1h-7.166v195.787  c0,13-10.168,23.482-22.842,23.482c-12.674,0-22.842-10.481-22.842-23.482V321.256h-7.831v138.356  c0,13.026-10.168,23.482-22.842,23.482c-12.7,0-22.842-10.455-22.842-23.482V203.131v-2.637  c4.125-29.59,3.394-68.264,48.947-103.754V43.411c-155.489,15.977-297.689,76.771-413.485,169.244  c11.735,12.518,38.392,36.875,38.392,36.875c39.465-2.621,63.555,13.494,87.68,29.534l42.917,42.917  c0,0,131.04,131.04,131.04,131.041c-14.094,15.644-31.731,23.812-59.53,10.614l-49.821-49.821l-4.615,4.615l138.442,138.442  c9.193,9.193,9.414,23.794,0.452,32.755c-8.971,8.971-23.563,8.74-32.755-0.452L492.257,450.734l-5.999,5.999l160.584,160.584  c9.211,9.211,9.442,23.803,0.461,32.783c-8.944,8.944-23.563,8.741-32.765-0.48L453.954,489.036l-5.067,5.067L587.33,632.546  c9.193,9.193,9.414,23.794,0.452,32.755c-8.962,8.962-23.563,8.74-32.756-0.452L416.584,526.406l-5.538,5.538l97.833,97.833  c9.211,9.211,9.414,23.794,0.452,32.755c-8.98,8.98-23.544,8.759-32.755-0.452l-181.36-181.36l-1.864-1.864  c-18.007-23.84-45.871-50.67-38.755-107.976l-37.677-37.677C123.409,448.277,61.429,590,44.141,745.222  c17.136,0.557,53.265-1.072,53.265-1.072c26.053-29.76,54.481-35.398,82.883-41.115h60.694c0,0,185.319,0,185.319,0.001  c1.096,21.027-5.6,39.275-34.589,49.599h-70.457v6.526h195.787c13,0,23.482,10.168,23.482,22.842  c0,12.687-10.481,22.842-23.482,22.842H321.256v8.484h227.1c13.026,0,23.507,10.155,23.507,22.855  c0,12.648-10.481,22.842-23.507,22.829h-227.1v7.166h195.787c13,0,23.482,10.168,23.482,22.842  c0,12.674-10.481,22.842-23.482,22.842H321.256v7.831h138.356c13.026,0,23.482,10.168,23.482,22.842  c0,12.7-10.455,22.842-23.482,22.842H203.131h-2.636c-29.59-4.125-68.264-3.394-103.754-48.947H43.411  c15.977,155.489,76.771,297.689,169.244,413.485c12.518-11.736,36.875-38.392,36.875-38.392  c-2.621-39.465,13.494-63.554,29.534-87.68l42.917-42.917c0,0,131.04-131.04,131.041-131.04  c15.644,14.094,23.812,31.731,10.614,59.53l-49.821,49.821l4.615,4.615l138.442-138.442c9.193-9.193,23.794-9.414,32.755-0.452  c8.971,8.971,8.74,23.563-0.452,32.755l-138.442,138.442l5.999,5.999l160.584-160.584c9.211-9.211,23.803-9.442,32.783-0.461  c8.944,8.944,8.741,23.563-0.48,32.765l-160.584,160.584l5.067,5.067l138.442-138.442c9.193-9.193,23.794-9.414,32.756-0.453  c8.962,8.962,8.74,23.563-0.452,32.755l-138.443,138.442l5.538,5.538l97.833-97.833c9.211-9.211,23.794-9.414,32.755-0.452  c8.98,8.98,8.759,23.544-0.453,32.755l-181.36,181.36l-1.864,1.864c-23.84,18.007-50.67,45.871-107.976,38.755l-37.677,37.677  C448.277,1545.002,590,1606.981,745.222,1624.27c0.557-17.136-1.072-53.265-1.072-53.265c-29.76-26.053-35.398-54.481-41.115-82.883  v-60.694c0,0,0-185.319,0.001-185.319c21.027-1.096,39.275,5.6,49.599,34.589v70.457h6.526v-195.787  c0-13,10.168-23.482,22.842-23.482c12.687,0,22.842,10.481,22.842,23.482v195.787h8.484v-227.1  c0-13.026,10.155-23.507,22.855-23.507c12.648,0,22.842,10.481,22.829,23.507v227.1h7.166v-195.787  c0-13,10.168-23.482,22.842-23.482s22.842,10.481,22.842,23.482v195.787h7.831v-138.356c0-13.026,10.168-23.482,22.842-23.482  c12.7,0,22.842,10.455,22.842,23.482v256.481v2.636c-4.125,29.59-3.394,68.264-48.947,103.754V1625  c155.489-15.977,297.689-76.771,413.485-169.244c-11.736-12.518-38.392-36.875-38.392-36.875  c-39.466,2.621-63.554-13.494-87.68-29.534l-42.917-42.917c0,0-131.04-131.04-131.04-131.041  c14.094-15.644,31.731-23.812,59.53-10.614l49.821,49.821l4.615-4.615l-138.442-138.442c-9.193-9.193-9.414-23.794-0.452-32.756  c8.971-8.971,23.563-8.74,32.755,0.453l138.443,138.443l5.999-5.999l-160.584-160.584c-9.211-9.211-9.442-23.803-0.461-32.783  c8.944-8.944,23.563-8.741,32.765,0.48l160.584,160.584l5.067-5.067l-138.443-138.442c-9.193-9.193-9.414-23.794-0.452-32.756  c8.962-8.962,23.563-8.74,32.755,0.452l138.442,138.442l5.538-5.538l-97.833-97.833c-9.211-9.211-9.414-23.794-0.452-32.755  c8.98-8.98,23.544-8.759,32.755,0.452l181.36,181.36l1.864,1.864c18.007,23.84,45.871,50.67,38.755,107.976l37.677,37.677  c93.511-115.074,155.491-256.797,172.779-412.019c-17.136-0.557-53.265,1.072-53.265,1.072  c-26.053,29.76-54.481,35.398-82.883,41.115h-60.694c0,0-185.319,0-185.319-0.001c-1.096-21.027,5.6-39.275,34.589-49.599h70.458  v-6.526h-195.787c-13,0-23.482-10.168-23.482-22.842c0-12.687,10.481-22.842,23.482-22.842h195.787v-8.484h-227.1  c-13.026,0-23.508-10.155-23.508-22.855c0-12.648,10.481-22.842,23.508-22.829h227.1v-7.166h-195.787  c-13,0-23.482-10.168-23.482-22.842s10.481-22.842,23.482-22.842h195.787v-7.831h-138.356c-13.026,0-23.482-10.168-23.482-22.842  C1185.317,713.176,1195.772,703.035,1208.799,703.035z"
   id="path185"
   style="fill:#d80000;fill-opacity:1" />
</svg>
