<?xml version="1.0" encoding="UTF-8" standalone="no"?>
<!-- Created with Inkscape (http://www.inkscape.org/) -->

<svg
   width="400mm"
   height="400mm"
   viewBox="0 0 400 400"
   version="1.1"
   id="svg1"
   inkscape:version="1.4.2 (ebf0e940d0, 2025-05-08)"
   sodipodi:docname="bozkurt.svg"
   inkscape:export-filename="bozkurt.png"
   inkscape:export-xdpi="96"
   inkscape:export-ydpi="96"
   xmlns:inkscape="http://www.inkscape.org/namespaces/inkscape"
   xmlns:sodipodi="http://sodipodi.sourceforge.net/DTD/sodipodi-0.dtd"
   xmlns="http://www.w3.org/2000/svg"
   xmlns:svg="http://www.w3.org/2000/svg">
  <sodipodi:namedview
     id="namedview1"
     pagecolor="#ffffff"
     bordercolor="#000000"
     borderopacity="0.25"
     inkscape:showpageshadow="2"
     inkscape:pageopacity="0.0"
     inkscape:pagecheckerboard="0"
     inkscape:deskcolor="#d1d1d1"
     inkscape:document-units="mm"
     inkscape:zoom="0.27384681"
     inkscape:cx="440.02703"
     inkscape:cy="943.9584"
     inkscape:window-width="1920"
     inkscape:window-height="1014"
     inkscape:window-x="0"
     inkscape:window-y="0"
     inkscape:window-maximized="1"
     inkscape:current-layer="layer1" />
  <defs
     id="defs1" />
  <g
     inkscape:label="Layer 1"
     inkscape:groupmode="layer"
     id="layer1">
    <g
       id="layer1-5"
       transform="matrix(0.83384586,0,0,0.78895354,-172.84353,-388.53344)"
       style="display:inline;fill:#b20000;fill-opacity:1">
      <path
         id="path4352"
         style="fill:#b20000;fill-opacity:1"
         d="M 436.2,533.31 C 323.68,540.92 238.36,638.63 245.97,751.14 253.57,863.66 351.28,949.02 463.8,941.41 576.32,933.8 661.67,836.06 654.06,723.54 646.45,611.03 548.72,525.7 436.2,533.31 Z m 2.0244,29.932 c 96.341,-6.5158 179.39,65.984 185.91,162.33 5.8415,86.371 -51.852,162.07 -133.28,181.5 0.35289,-1.3418 0.63019,-2.7603 0.87316,-4.2248 2.1525,-7.4131 3.458,-18.47 2.665,-19.412 -2.1684,-2.5755 8.7419,-29.483 13.932,-34.362 6.8761,-6.464 10.113,-20.973 8.1758,-36.573 -1.4385,-11.582 -0.69041,-17.605 4.276,-34.492 3.845,-13.075 7.7889,-22.395 10.936,-25.859 2.7081,-2.9806 7.8276,-11.267 11.347,-18.401 6.7463,-13.676 19.931,-28.483 28.122,-31.563 8.2079,-3.0865 15.714,-15.654 14.939,-25.034 -0.91434,-11.053 -4.0452,-15.653 -9.0739,-13.293 -2.9184,1.3695 -4.8997,0.85516 -7.6537,-2.0194 -3.2541,-3.3966 -3.8314,-3.2371 -4.6717,1.3182 -0.52791,2.8616 -2.4324,5.3521 -4.2332,5.4857 -2.5438,0.18858 -2.386,-1.8152 0.74604,-8.8831 2.2173,-5.0036 3.9623,-12.858 3.8933,-17.459 -0.12225,-8.1472 -7.255,-26.914 -10.626,-27.909 -0.9258,-0.27331 -7.8849,5.036 -15.429,11.755 -20.313,18.091 -52.24,40.986 -57.774,41.43 -2.6622,0.21392 -7.6978,-0.19994 -11.18,-0.90389 -6.4049,-1.2947 -16.056,3.0692 -38.874,17.538 -9.8582,6.251 -15.772,7.9656 -29.738,8.5888 -10.735,0.47899 -20.624,2.6465 -25.74,5.656 -7.6064,4.475 -8.1616,5.3891 -6.7453,10.949 0.85076,3.3398 6.1703,10.662 11.812,16.271 l 10.243,10.207 -6.2516,9.9132 c -3.4498,5.4585 -7.2734,13.181 -8.4564,17.141 -1.183,3.9596 -5.7804,11.116 -10.231,15.914 -8.5816,9.2527 -24.821,36.132 -30.029,49.671 -1.2901,3.3536 -14.481,12.076 -23.598,16.474 -20.828,-26.597 -34.158,-59.542 -36.615,-95.873 -6.5158,-96.341 65.986,-179.36 162.33,-185.88 z" />
    </g>
  </g>
</svg>
