<?xml version="1.0" encoding="UTF-8" standalone="no"?>
<svg
   width="2500"
   height="1500"
   version="1.1"
   id="svg1474"
   sodipodi:docname="Flag_of_Albania_large.svg"
   inkscape:version="1.2.2 (b0a8486541, 2022-12-01)"
   inkscape:export-filename="Flag_of_Albania_large.png"
   inkscape:export-xdpi="96"
   inkscape:export-ydpi="96"
   xmlns:inkscape="http://www.inkscape.org/namespaces/inkscape"
   xmlns:sodipodi="http://sodipodi.sourceforge.net/DTD/sodipodi-0.dtd"
   xmlns="http://www.w3.org/2000/svg"
   xmlns:svg="http://www.w3.org/2000/svg">
  <defs
     id="defs1478" />
  <sodipodi:namedview
     id="namedview1476"
     pagecolor="#ffffff"
     bordercolor="#000000"
     borderopacity="0.25"
     inkscape:showpageshadow="2"
     inkscape:pageopacity="0.0"
     inkscape:pagecheckerboard="0"
     inkscape:deskcolor="#d1d1d1"
     showgrid="false"
     inkscape:zoom="0.71277043"
     inkscape:cx="609.59319"
     inkscape:cy="1200.9477"
     inkscape:window-width="1920"
     inkscape:window-height="1011"
     inkscape:window-x="0"
     inkscape:window-y="0"
     inkscape:window-maximized="1"
     inkscape:current-layer="svg1474" />
  <rect
     width="2500.7844"
     height="1510.1573"
     fill="#ff0000"
     id="rect1469"
     x="-0.7094996"
     y="-4.5645328"
     style="stroke-width:3.28485" />
  <path
     id="half"
     d="m 1070.2188,294.95426 c -17.3501,-0.24485 -46.1455,4.62776 -45.5001,15.76811 -48.32635,-6.92959 -53.35855,9.77127 -50.5186,24.63222 4.59795,-5.89775 10.19635,-9.09973 14.4976,-9.70353 6.44404,-0.89484 13.1875,0.84644 20.0735,4.38512 6.8864,3.53898 14.4731,9.24967 17.8434,12.78245 -17.0559,3.41164 -30.23239,1.20924 -43.60442,-0.74699 -6.5919,-0.96472 -15.81639,-4.06727 -21.30026,-7.27759 -5.48388,-3.21085 -7.21035,-6.23283 -15.83597,-13.6222 -10.1694,-8.71224 -20.99274,-6.25914 -17.62001,7.2776 7.79931,12.57257 20.82862,18.17878 37.24757,20.43355 7.90101,1.08559 19.67015,3.44141 33.01015,3.45215 13.33964,0.012 28.31774,-1.61227 36.46714,-0.18668 -4.8958,2.5716 -10.4358,7.00512 -21.412,8.77057 -11.1618,1.79501 -28.13174,-5.55325 -38.47417,-7.55759 1.31357,7.28081 12.29047,14.08707 33.90197,17.63435 35.5135,6.46985 65.0235,11.38676 84.5325,20.24681 19.5083,8.86005 31.8086,19.95254 40.593,28.64416 17.4815,17.29658 18.401,30.57428 19.5161,33.49581 3.5966,27.63486 -7.9209,43.17993 -29.3296,47.95801 -10.7047,2.38884 -29.7192,-2.10944 -36.69,-8.95706 -6.9712,-6.84604 -13.7536,-18.61356 -11.8211,-37.04134 1.8788,-7.22923 11.7595,-26.05962 3.3455,-29.95026 -38.7612,-17.92402 -85.83023,-36.05072 -119.8842,-46.83775 -9.30763,-2.94825 -16.97512,7.6355 -19.96214,11.75622 -57.85145,-5.89432 -110.01054,-38.64793 -133.48945,-73.52311 -15.99105,-23.753 -42.34715,0.049 -37.91663,22.48596 7.15251,25.04308 29.95868,43.14922 57.32109,55.9821 28.08359,12.93749 63.18608,25.66809 98.69524,25.00545 19.13037,3.02788 18.94146,23.73471 -4.01471,27.61779 -44.89675,0.23766 -80.7138,-0.69866 -114.53132,-27.99103 -25.65044,-19.59464 -40.09083,3.75285 -32.67531,16.98111 12.56646,40.77972 82.10111,52.19918 152.4477,39.00086 27.24114,-3.77437 10.92922,20.64744 3.23403,20.90002 -29.39361,17.63249 -82.01707,34.88537 -128.35986,-0.18668 -21.20631,-13.58564 -35.54437,-2.16585 -27.65684,17.44786 20.56293,51.13748 99.22141,40.39728 153.22849,15.20844 13.90088,-6.48327 26.51679,8.60018 9.59074,20.06029 -67.16226,39.263 -100.74218,39.70967 -131.03582,24.63206 -37.92579,-12.51404 -41.26189,22.68058 -18.73554,34.24251 25.03746,12.85046 88.75249,3.21571 135.49699,-21.36651 20.03932,-12.46485 20.9461,7.02552 8.25251,14.7419 -55.47168,40.10826 -77.33612,50.67051 -135.16227,44.13242 -28.67458,-1.87026 -28.24376,27.7071 -5.68752,39.2806 30.79679,15.80175 90.93876,-10.42745 137.61563,-42.82644 19.64637,-8.78292 22.87291,5.62122 13.15937,22.67275 -28.52078,30.10554 -55.28966,47.85527 -81.07484,56.07525 -25.78531,8.22022 -50.58746,6.9105 -68.13908,1.86488 -21.41251,-6.1549 -24.09762,12.4632 -12.26682,29.39058 7.13126,10.20362 36.68429,13.47548 68.58465,4.01218 31.90022,-9.46197 66.14742,-31.65629 89.66205,-57.66157 20.45869,-14.98509 17.91444,5.14643 8.58684,19.31382 -47.08608,62.27806 -90.15097,85.3803 -146.87178,81.4538 -25.14995,-3.57311 -30.86176,12.78973 -14.83193,27.89775 28.14753,19.52986 63.34104,18.91747 94.12308,-0.37354 27.36496,-22.07404 79.71588,-69.60706 107.17072,-95.07638 19.34663,-12.90392 25.52713,-0.1827 19.85083,26.03167 -5.16293,15.01226 -18.08699,30.8227 -53.30693,42.35978 -24.06075,11.48914 -5.99161,27.3235 12.04423,27.61783 9.92559,0.16182 30.08096,-9.5458 45.5002,-24.07219 20.2851,-19.11013 21.4913,-31.93996 32.6754,-61.67348 10.5665,-14.49388 29.4397,-7.72874 29.4415,7.46435 -9.0519,29.78304 -16.8292,35.12333 -35.1289,47.30501 -17.5034,13.74901 12.1878,18.33116 22.1926,12.68924 28.9432,-16.32224 39.5093,-37.43578 49.1799,-56.63539 6.9805,-13.85864 27.2303,-7.14026 17.8434,15.48842 -22.4327,54.07959 -59.2935,75.37336 -123.7872,86.30558 -6.53635,0.97272 -10.52296,4.19972 -8.2524,10.54324 8.6561,7.51836 17.3278,14.34047 25.9843,21.83302 -39.88009,9.71485 -72.27967,15.17252 -112.18998,24.9134 -19.58052,-10.74021 -35.39881,-19.85224 -54.97934,-30.60355 -5.16313,-10.09851 -7.57073,-25.51304 -36.46716,-14.64866 -19.58052,-7.56618 -28.61268,-4.79169 -39.47809,2.7992 15.6857,0.48906 22.51047,4.00357 28.66073,9.98354 8.02991,17.69374 26.54628,19.40304 45.50008,14.36865 12.33077,8.69077 18.89749,15.35704 31.22559,24.07223 -23.01491,-0.65835 -39.04879,-0.99963 -62.00522,-1.58541 -21.91388,-19.68598 -39.40487,-18.60764 -55.09095,-3.17216 -11.95512,1.53702 -17.02291,1.75203 -25.20334,13.90217 12.86545,-4.41762 20.95944,-5.74188 26.5417,-0.93243 23.29852,11.30077 38.5192,8.77834 50.07274,0 22.47792,1.1501 42.7331,2.12283 65.23899,3.35893 -8.26712,5.87918 -19.61256,8.99789 -27.88006,14.92866 -33.76031,-8.08078 -51.38096,2.79653 -57.32133,25.84519 -4.52448,9.30263 -6.64288,18.88012 -4.68364,28.83079 3.2676,-9.10163 8.52138,-16.92709 18.17758,-21.833 30.09101,6.39486 41.40568,-3.88289 43.04685,-18.94056 14.50472,-9.90159 36.37702,-12.08516 50.85315,-22.11306 16.92604,4.5335 25.10812,7.34155 42.15456,11.84951 6.06063,15.4086 19.77489,21.50976 42.04307,17.5411 26.50747,0.69598 21.82797,9.796 23.97687,17.07465 7.0445,-10.45325 6.8483,-20.61898 -9.4794,-29.85713 -5.9405,-13.5026 -19.1019,-19.64352 -36.35555,-11.84945 -16.2406,-3.85767 -20.51043,-9.40236 -36.69001,-13.24926 40.92566,-10.91353 69.95631,-13.3693 110.85096,-24.25893 10.2366,8.07888 18.3497,13.87879 28.6607,21.0865 5.4343,2.71375 10.6365,3.39736 13.8287,0 25.6257,-31.03108 37.0707,-58.37901 60.89,-78.8413 9.0999,-8.46608 20.5967,-19.88884 33.3445,-22.67272 6.3738,-1.39194 14.1901,-0.54279 19.1814,4.01217 4.991,4.55444 8.9117,12.9485 7.2489,25.47192 -2.3864,17.97645 -7.5775,23.65223 -13.6053,34.42883 -6.0282,10.77707 -13.3944,17.40596 -20.966,25.65843 -15.143,16.50469 -35.1239,26.11123 -46.9498,32.56279 -23.6518,12.90364 -33.6548,7.25606 -51.9681,6.43785 -23.6702,2.22225 -29.9681,11.8672 -10.5946,25.19194 18.1107,7.8838 34.3894,8.85706 47.6194,6.81109 11.3594,-1.75738 24.6534,-14.0242 34.125,-20.62006 10.6618,-10.30517 28.3387,1.91596 16.2819,13.90223 -21.9091,21.78006 -43.8009,36.14021 -70.8154,35.82851 -28.3874,3.1963 -23.0773,16.541 -4.2377,23.046 33.9062,11.7076 64.5196,-10.2216 80.0714,-24.6322 11.9986,-10.9826 20.5209,-11.41096 18.4008,5.5982 -11.9114,30.7934 -28.1889,42.6888 -54.7563,44.2258 -21.5494,-1.6742 -21.7825,12.2431 -6.0221,21.6465 35.9015,20.7901 61.9013,-14.6143 74.0492,-36.0152 8.6565,-19.3046 21.9336,-10.1243 23.3078,5.7849 0.1798,21.2563 -11.3008,38.6116 -42.0427,60.3671 23.5212,31.3545 50.943,63.2461 74.4949,94.7033 l 71.3908,-665.2344 -71.3729,-105.10305 c -7.4339,-5.74186 -32.5738,-30.52292 -39.1429,-33.96247 -2.396,-2.14163 -3.8533,-3.65474 -0.3342,-4.75837 3.4033,-1.06678 11.3696,-2.26259 16.7281,-3.07893 -15.1372,-12.68598 -28.109,-16.75459 -56.7648,-23.69842 6.9834,-2.48827 13.7762,-1.03993 34.3483,-1.86488 -8.1672,-9.69963 -26.409,-24.55693 -49.9612,-31.72435 15.5541,-9.25132 18.5851,-9.8713 34.0137,-20.71338 -26.7166,-1.5854 -49.5319,-5.84337 -72.4879,-11.66291 -14.5135,-5.67767 -34.6707,-10.49821 -44.4964,-10.63662 z m 2.5664,26.03166 c 14.118,0 22.8616,4.04897 22.8616,8.95703 0,4.99326 -8.7436,9.05055 -22.8616,9.05055 -14.0599,0 -22.9734,-4.4276 -22.9734,-9.42352 0,-4.90807 8.9135,-8.58406 22.9734,-8.58406 z"
     fill="#000000"
     style="stroke-width:3.26419" />
  <path
     d="m 1426.412,294.95426 c 17.35,-0.24485 46.1454,4.62776 45.5003,15.76811 48.3261,-6.92959 53.3584,9.77127 50.5184,24.63222 -4.5982,-5.89775 -10.1963,-9.09973 -14.4979,-9.70353 -6.444,-0.89484 -13.1872,0.84644 -20.0733,4.38512 -6.8866,3.53898 -14.473,9.24967 -17.8434,12.78245 17.0562,3.41164 30.2322,1.20924 43.6043,-0.74699 6.592,-0.96472 15.8166,-4.06727 21.3002,-7.27759 5.4839,-3.21085 7.2104,-6.23283 15.8361,-13.6222 10.1696,-8.71224 20.9931,-6.25914 17.6201,7.2776 -7.7994,12.57257 -20.8284,18.17878 -37.2477,20.43355 -7.9005,1.08559 -19.6701,3.44141 -33.0097,3.45215 -13.34,0.012 -28.3182,-1.61227 -36.4673,-0.18668 4.8956,2.5716 10.4356,7.00512 21.4118,8.77057 11.162,1.79501 28.1317,-5.55325 38.4744,-7.55759 -1.3138,7.28081 -12.2907,14.08707 -33.9022,17.63435 -35.5132,6.46985 -65.0235,11.38676 -84.532,20.24681 -19.5089,8.86005 -31.809,19.95254 -40.5934,28.64416 -17.4815,17.29658 -18.4011,30.57428 -19.5159,33.49581 -3.5967,27.63486 7.9207,43.17993 29.3294,47.95801 10.7046,2.38884 29.7194,-2.10944 36.6898,-8.95706 6.9713,-6.84604 13.754,-18.61356 11.8215,-37.04134 -1.879,-7.22923 -11.7597,-26.05962 -3.3458,-29.95026 38.761,-17.92402 85.8301,-36.05072 119.8846,-46.83775 9.3071,-2.94825 16.9746,7.6355 19.9618,11.75622 57.8515,-5.89432 110.0105,-38.64793 133.4892,-73.52311 15.991,-23.753 42.3473,0.049 37.9168,22.48596 -7.1526,25.04308 -29.9586,43.14922 -57.3215,55.9821 -28.0833,12.93749 -63.1858,25.66809 -98.695,25.00545 -19.13,3.02788 -18.941,23.73471 4.0149,27.61779 44.8966,0.23766 80.7139,-0.69866 114.5312,-27.99103 25.6506,-19.59464 40.0908,3.75285 32.6757,16.98111 -12.5666,40.77972 -82.1013,52.19918 -152.448,39.00086 -27.241,-3.77437 -10.9292,20.64744 -3.2337,20.90002 29.3936,17.63249 82.017,34.88537 128.3598,-0.18668 21.2062,-13.58564 35.5441,-2.16585 27.6566,17.44786 -20.563,51.13748 -99.2216,40.39728 -153.2285,15.20844 -13.9006,-6.48327 -26.5163,8.60018 -9.5905,20.06029 67.1622,39.263 100.7419,39.70967 131.036,24.63206 37.9259,-12.51404 41.2617,22.68058 18.7352,34.24251 -25.0374,12.85046 -88.7523,3.21571 -135.4969,-21.36651 -20.0395,-12.46485 -20.9461,7.02552 -8.2524,14.7419 55.4716,40.10826 77.336,50.67051 135.1624,44.13242 28.6742,-1.87026 28.2433,27.7071 5.6871,39.2806 -30.7966,15.80175 -90.9389,-10.42745 -137.6156,-42.82644 -19.6462,-8.78292 -22.8725,5.62122 -13.1594,22.67275 28.5209,30.10554 55.2896,47.85527 81.0749,56.07525 25.7855,8.22022 50.5872,6.9105 68.1389,1.86488 21.4124,-6.1549 24.0974,12.4632 12.2672,29.39058 -7.1316,10.20362 -36.6847,13.47548 -68.5848,4.01218 -31.9005,-9.46197 -66.1475,-31.65629 -89.6621,-57.66157 -20.4586,-14.98509 -17.9144,5.14643 -8.5868,19.31382 47.086,62.27806 90.1511,85.3803 146.872,81.4538 25.1499,-3.57311 30.8617,12.78973 14.8318,27.89775 -28.1475,19.52986 -63.3411,18.91747 -94.123,-0.37354 -27.3652,-22.07404 -79.7159,-69.60706 -107.1707,-95.07638 -19.347,-12.90392 -25.5272,-0.1827 -19.8508,26.03167 5.1626,15.01226 18.0869,30.8227 53.3066,42.35978 24.0608,11.48914 5.9921,27.3235 -12.0442,27.61783 -9.9253,0.16182 -30.0808,-9.5458 -45.5003,-24.07219 -20.2849,-19.11013 -21.4912,-31.93996 -32.6752,-61.67348 -10.5665,-14.49388 -29.4394,-7.72874 -29.4415,7.46435 9.0518,29.78304 16.829,35.12333 35.1289,47.30501 17.5035,13.74901 -12.1876,18.33116 -22.1925,12.68924 -28.9434,-16.32224 -39.5096,-37.43578 -49.1801,-56.63539 -6.9805,-13.85864 -27.2301,-7.14026 -17.8435,15.48842 22.4327,54.07959 59.2939,75.37336 123.7875,86.30558 6.536,0.97272 10.5231,4.19972 8.2524,10.54324 -8.6562,7.51836 -17.3279,14.34047 -25.9844,21.83302 39.8798,9.71485 72.2796,15.17252 112.1899,24.9134 19.5809,-10.74021 35.3987,-19.85224 54.9792,-30.60355 5.1632,-10.09851 7.5707,-25.51304 36.4673,-14.64866 19.5807,-7.56618 28.6125,-4.79169 39.4779,2.7992 -15.6855,0.48906 -22.5103,4.00357 -28.6604,9.98354 -8.0297,17.69374 -26.5465,19.40304 -45.5001,14.36865 -12.3308,8.69077 -18.8976,15.35704 -31.2257,24.07223 23.0148,-0.65835 39.0489,-0.99963 62.0052,-1.58541 21.9141,-19.68598 39.405,-18.60764 55.0909,-3.17216 11.9555,1.53702 17.0233,1.75203 25.2035,13.90217 -12.8654,-4.41762 -20.9595,-5.74188 -26.5418,-0.93243 -23.2984,11.30077 -38.5191,8.77834 -50.0725,0 -22.4783,1.1501 -42.7331,2.12283 -65.2391,3.35893 8.2671,5.87918 19.6124,8.99789 27.8799,14.92866 33.7603,-8.08078 51.381,2.79653 57.3215,25.84519 4.5243,9.30263 6.6428,18.88012 4.6836,28.83079 -3.2677,-9.10163 -8.5215,-16.92709 -18.1779,-21.833 -30.0905,6.39486 -41.4052,-3.88289 -43.0468,-18.94056 -14.5046,-9.90159 -36.3768,-12.08516 -50.853,-22.11306 -16.9262,4.5335 -25.1079,7.34155 -42.1546,11.84951 -6.0608,15.4086 -19.775,21.50976 -42.0428,17.5411 -26.5075,0.69598 -21.828,9.796 -23.9767,17.07465 -7.045,-10.45325 -6.8487,-20.61898 9.479,-29.85713 5.9407,-13.5026 19.1021,-19.64352 36.3555,-11.84945 16.2409,-3.85767 20.5104,-9.40236 36.6899,-13.24926 -40.9255,-10.91353 -69.956,-13.3693 -110.8509,-24.25893 -10.2364,8.07888 -18.3494,13.87879 -28.6607,21.0865 -5.4341,2.71375 -10.6362,3.39736 -13.8285,0 -25.6257,-31.03108 -37.0707,-58.37901 -60.89,-78.8413 -9.0997,-8.46608 -20.5968,-19.88884 -33.3444,-22.67272 -6.3737,-1.39194 -14.1904,-0.54279 -19.1815,4.01217 -4.9912,4.55444 -8.9118,12.9485 -7.2488,25.47192 2.3861,17.97645 7.5773,23.65223 13.6053,34.42883 6.0278,10.77707 13.3945,17.40596 20.9659,25.65843 15.1432,16.50469 35.1239,26.11123 46.9497,32.56279 23.6518,12.90364 33.655,7.25606 51.9683,6.43785 23.67,2.22225 29.9679,11.8672 10.5944,25.19194 -18.1106,7.8838 -34.3893,8.85706 -47.6192,6.81109 -11.3595,-1.75738 -24.6531,-14.0242 -34.1252,-20.62006 -10.6619,-10.30517 -28.3383,1.91596 -16.2817,13.90223 21.9092,21.78006 43.8008,36.14021 70.8153,35.82851 28.3875,3.1963 23.0774,16.541 4.2376,23.046 -33.9062,11.7076 -64.5195,-10.2216 -80.0713,-24.6322 -11.9985,-10.9826 -20.5207,-11.41096 -18.4011,5.5982 11.9115,30.7934 28.1894,42.6888 54.7567,44.2258 21.5494,-1.6742 21.7822,12.2431 6.0222,21.6465 -35.9017,20.7901 -61.9014,-14.6143 -74.0495,-36.0152 -8.6563,-19.3046 -21.9335,-10.1243 -23.308,5.7849 -0.1796,21.2563 11.3011,38.6116 42.043,60.3671 -23.5214,31.3545 -50.9431,63.2461 -74.4949,94.7033 l -71.3909,-665.2344 71.3729,-105.10305 c 7.4337,-5.74186 32.5738,-30.52292 39.1429,-33.96247 2.3963,-2.14163 3.8534,-3.65474 0.3341,-4.75837 -3.4032,-1.06678 -11.3694,-2.26259 -16.7279,-3.07893 15.1371,-12.68598 28.1089,-16.75459 56.7648,-23.69842 -6.9834,-2.48827 -13.7764,-1.03993 -34.3483,-1.86488 8.1672,-9.69963 26.4089,-24.55693 49.961,-31.72435 -15.554,-9.25132 -18.5849,-9.8713 -34.0138,-20.71338 26.717,-1.5854 49.5322,-5.84337 72.4882,-11.66291 14.5133,-5.67767 34.6708,-10.49821 44.4963,-10.63662 z m -2.566,26.03166 c -14.1184,0 -22.8618,4.04897 -22.8618,8.95703 0,4.99326 8.7434,9.05055 22.8618,9.05055 14.0594,0 22.9729,-4.4276 22.9729,-9.42352 0,-4.90807 -8.9135,-8.58406 -22.9729,-8.58406 z"
     fill="#000000"
     id="path1472"
     style="stroke-width:3.26419" />
</svg>
