<?xml version="1.0" encoding="UTF-8" standalone="no"?>
<!-- Created with Inkscape (http://www.inkscape.org/) -->

<svg
   id="svg2"
   sodipodi:docname="red_white_wolf.svg"
   viewBox="0 0 329.49 336.85"
   sodipodi:version="0.32"
   version="1.1"
   inkscape:version="1.2.2 (b0a8486541, 2022-12-01)"
   inkscape:export-filename="red_white_wolf.svg.png"
   inkscape:export-xdpi="96"
   inkscape:export-ydpi="96"
   xmlns:inkscape="http://www.inkscape.org/namespaces/inkscape"
   xmlns:sodipodi="http://sodipodi.sourceforge.net/DTD/sodipodi-0.dtd"
   xmlns="http://www.w3.org/2000/svg"
   xmlns:svg="http://www.w3.org/2000/svg"
   xmlns:rdf="http://www.w3.org/1999/02/22-rdf-syntax-ns#"
   xmlns:cc="http://creativecommons.org/ns#"
   xmlns:dc="http://purl.org/dc/elements/1.1/">
  <defs
     id="defs228" />
  <sodipodi:namedview
     id="base"
     bordercolor="#666666"
     inkscape:pageshadow="2"
     inkscape:window-y="0"
     fit-margin-left="0"
     pagecolor="#ffffff"
     inkscape:window-maximized="1"
     inkscape:zoom="0.49068255"
     inkscape:window-x="0"
     borderopacity="1.0"
     inkscape:current-layer="layer2"
     inkscape:cx="345.43719"
     inkscape:cy="293.46876"
     fit-margin-top="0"
     fit-margin-right="0"
     units="cm"
     fit-margin-bottom="0"
     inkscape:window-height="1011"
     showgrid="false"
     inkscape:pageopacity="0.0"
     inkscape:window-width="1920"
     inkscape:showpageshadow="2"
     inkscape:pagecheckerboard="0"
     inkscape:deskcolor="#d1d1d1" />
  <g
     id="layer2"
     inkscape:label="Cercle"
     inkscape:groupmode="layer"
     transform="translate(-12.192 -461.5)">
    <path
       id="path5064"
       style="fill-rule:evenodd;fill:#ff0000"
       inkscape:connector-curvature="0"
       d="m175.89 461.51c-61.468-0.29678-121.2 37.389-147.33 92.969-22.231 45.622-21.964 101.83 1.6597 146.85 2.1107 4.1092 4.3792 8.15 6.8471 12.051-4.5921 11.998-11.294 24.1-10.035 37.372 2.1979 7.6938 14.288 10.463 18.899 3.4688 3.9755-5.7659 4.0774-13.178 7.1578-19.326 7.665 8.7119 16.211 16.62 25.534 23.58-1.1963 8.9591-4.1119 17.505-6.5522 26.14-1.1656 4.3328 0.22757 9.3489 4.1433 11.769 4.686 3.3383 11.875 2.3966 14.99-2.6154 4.2122-5.4904 5.786-12.415 8.9059-18.523 0.42088-2.6669 1.7309-2.7592 3.7717-1.2021 38.826 19.366 85.447 22.259 126.51 8.1489 44.209-14.967 81.078-49.77 98.858-92.913 18.215-43.525 16.285-94.969-5.0351-137.02-10.804-21.445-26.341-40.417-45.177-55.28-2.1425-6.8796-8.1414-13.706-15.899-13.159-1.7525 0.0642-3.5033 0.60505-4.8728-0.8672-24.894-14.178-53.673-21.785-82.384-21.446z" />
  </g>
  <g
     id="layer1"
     inkscape:label="Loup"
     inkscape:groupmode="layer"
     transform="translate(-12.192 -461.5)">
    <g
       id="g5125"
       style="fill:#ffffff"
       transform="matrix(.44048 0 0 .44048 -3.0529 455.69)">
      <path
         id="path5066"
         d="m408.61 37.209c-193.16 0-350.05 156.89-350.05 350.05 0 67.64 19.228 130.82 52.526 184.38 4.3495-10.947 8.689-21.904 13.199-32.768-24.115-45.17-37.788-96.771-37.788-151.61 0-7.6322 0.26202-15.201 0.78276-22.7-0.92559-4.4616-1.2261-9.0693-0.72877-13.82 0.74445-0.76203 1.5034-1.5042 2.2673-2.2403 19.11-159.73 154.86-283.36 319.79-283.36 53.704 0 104.31 13.114 148.8 36.304 8.0237-6.6249 16.272-13.205 25.372-17.841-51.3-29.521-110.78-46.394-174.17-46.394zm238.97 92.321c-0.93043 12.304 5.381 12.721-1.7681 39.722 52.715 57.339 84.889 133.88 84.889 218.01 0 178.05-144.04 322.06-322.09 322.06-62.295 0-120.44-17.632-169.7-48.18-1.42 9.6692-3.6427 19.225-6.6129 28.503 51.794 30.287 112.05 47.64 176.31 47.64 193.16 0 350.05-156.87 350.05-350.03 0-106.83-35.506-193.5-111.08-257.73zm-493.02 455.88c-7.9036 4.9075-15.033 10.965-21.296 17.868 19.376 24.646 41.979 46.636 67.182 65.32 0.23119-12.35 0.0317-24.717-1.7005-36.871-16.215-13.923-31.018-29.459-44.185-46.318z"
         sodipodi:nodetypes="ssccscccsccsccssccsscccccc"
         style="block-progression:tb;fill-rule:evenodd;text-indent:0;color:#000000;text-transform:none;fill:#ffffff"
         inkscape:connector-curvature="0" />
      <path
         id="path1657"
         d="m604.79 85.956c-14.969 0.66519-27.392 9.9793-38.058 19.731-11.275 9.7267-24.034 17.397-36.493 25.345-19.745 13.208-38.104 28.036-57.276 41.972-27.675 17.692-61.805 16.626-92.554 24.994-26.453 8.8637-50.325 24.18-70.692 43.217-10.218 8.3817-18.945 18.314-28.394 27.285-18.275 14.834-39.138 26.045-60.339 35.939-20.296 9.6255-42.708 11.563-64.092 17.64-22.266 6.5472-43.966 16.503-61.838 31.472-2.9557 4.4917 0.52359 10.185 1.9974 14.629 8.0364 18.934 23.537 33.267 37.815 47.532 13.707 13.101 29.87 23.197 46.803 31.661-18.264 30.031-35.64 60.795-49.26 93.202-7.7282 22.809-16.896 45.044-27.091 66.815-7.1906 17.08-13.254 34.84-15.88 53.217-1.2109 3.5255 3.7985 6.703 5.4253 2.7262 4.7164-13.282 6.4779-27.684 13.604-40.056 9.001-16.65 22.58-30.352 36.714-42.693 7.0143-5.0333 15.145-9.7863 23.909-10.238 14.178 1.4903 21.907 15.667 27.676 27.183 9.7829 19.964 13.076 42.202 12.784 64.292-0.002 25.313-5.9563 50.245-12.605 74.47-1.2773 6.177-5.6186 11.847-5.3443 18.246 1.5954 3.5075 5.4592 0.37714 6.2081-2.1323 17.831-34.01 30.73-71.173 34.495-109.59 1.2314-19.143-1.1966-38.456-8.1515-56.304-8.5454-25.467-21.538-49.106-31.256-74.011-6.4705-19.139-7.3554-40.233-3.5899-60.002 2.6474-2.7939 7.9675-0.62157 11.417-1.3766 29.378 1.2511 57.02-10.881 82.289-24.568 6.1232-2.8157 11.508-7.5598 17.607-10.062 2.9135 3.0316 0.79758 8.0758 2.7262 11.66 13.214 35.943 36.808 67.714 65.408 93.009 15.744 12.826 32.257 25.566 43.013 43.071 11.546 16.795 17.29 36.742 18.385 56.964 0.62218 5.2494 1.0332 10.497 2.6452 15.574 5.7868-12.883 4.9379-27.615 3.023-41.27-5.8741-22.055-15.562-42.812-27.689-62.102-10.145-18.469-22.588-37.414-21.679-59.36-0.0949-22.574 6.7286-44.548 18.562-63.697 9.3466-17.294 22.134-32.028 33.181-48.129 13.058-20.004 20.993-43.715 20.067-67.884 0.74216-17.334-1.7585-34.762-0.71386-52.013 0.9363-10.15 5.3386-19.465 6.8019-29.367 0.82348-4.7046-2.0652-10.098 2.1323-13.523 5.177-9.2717 10.813-18.613 19.45-25.196 6.3663-4.7239 13.089-10.591 21.254-11.161 5.113 1.2417 8.7035 6.3921 7.8816 11.822 0.0712 12.951-7.5588 24.274-11.714 36.223-6.3071 16.852-13.459 33.572-17.248 51.176-1.0312 11.136-1.1241 23.236 3.8328 33.47 2.5609 2.8618 4.8355-1.466 4.3186-3.9408-0.55647-16.823 3.0668-33.531 11.107-48.356 9.7835-20.276 27.381-35.53 37.046-55.912 10.885-18.227 10.508-40.169 17.14-59.867 1.4293-2.9959 3.8513-6.7502 5.8032-8.6103-2.1246 6.5605 3.2699 14.075 10.392 13.145 7.5019-0.66516 15.049-4.0826 20.46-9.2581 2.0248-5.1236-6.9772-7.5727-3.9948-12.713 1.9476-3.5152 7.4079-2.5233 7.5576 1.6195 1.637 4.3584-1.5599 7.9516-2.1324 11.957 1.2438 4.7387 8.101 4.3066 10.041 8.8532 5.6772 10.16 1.5422 22.426-1.8288 32.665-7.3401 18.281-16.532 35.978-21.812 55.141-7.4874 19.521-22.437 35.024-33.797 52.199-12.526 21.553-19.367 46.923-17.167 71.933-0.31864 2.9168 3.3835 5.6766 4.8855 2.2403 3.3487-6.2808 4.4333-14.213 9.0152-19.677 20.25-17.303 41.423-33.902 62.486-50.312 5.6139-3.3946 12.42-9.1234 19.299-6.2351 11.256 5.7794 11.867 20.334 11.579 31.526-1.7313 39.158-23.947 76.277-56.622 97.818-21.76 15.835-42.32 35.303-53.801 60.164-6.0977 13.993-8.4753 29.214-9.9329 44.347 4.0339-4.613 8.8839-9.5747 8.0705-16.249 2.2447-16.251 12.062-30.743 22.683-42.778 3.9647-5.0713 13.506-14.541 19.424-6.8861 4.1178 7.7533 0.78046 17.489 0.40653 25.953-3.4111 27.29-4.2984 55.313 0.78109 82.392-0.16136 2.6546 3.4332 6.5499 4.7235 2.5642 0.0242-16.298-1.7084-32.687-0.29691-49.017 2.3142-36.019 12.564-71.704 30.932-102.86 17.896-28.859 40.743-54.819 57.231-84.527 10.773-20.418 12.988-45.786 4.6882-67.462-3.2897-8.1022-9.6488-14.286-15.574-20.541-14.196 9.8665-26.218 22.35-37.599 35.062-2.0269 1.1585-1.8916-3.3-2.2943-4.3456-1.3377-16.979 8.9769-31.818 13.145-47.775 5.4841-18.288 11.957-36.822 12.659-55.981-0.27378-10.569-3.5446-21.392-12.137-28.121-3.8294-2.2464-3.6109-6.5061-3.8962-10.261-1.9635-9.3309-4.8257-19.316-11.552-26.371-1.8311-1.4324-4.3715-1.3997-6.586-1.3226zm-146.46 104.88c4.1804-0.4505 2.1528 5.5574 2.6992 7.8815 0.84983 10.065-5.1332 18.968-8.2414 28.22-5.9363 15.112-14.607 30.589-30.06 37.612-4.1398 2.7082-10.199 3.8311-12.713 8.3674 0.38297 4.4117 6.2337 1.5595 8.9612 1.6195 7.3396-1.3757 15.411 0.41857 21.701 4.1027 6.3862 5.0398 4.802 14.285 5.2634 21.485-0.35949 11.527-8.2695 20.954-12.821 31.109-6.7617 12.96-14.219 25.902-25.129 35.776-4.4097 3.8663-9.8969 11.488-16.6 8.2594-14.129-7.1822-18.471-25.064-17.018-39.81 2.351-21.866 6.7692-43.772 15.21-64.162 5.8742-13.799 17.444-24.857 32.039-28.503 6.0533-2.7628 7.9141-10.083 13.442-13.685 5.0835-5.2974 12.514-8.7471 16.654-14.656 0.23252-3.7349-5.1421-1.2866-7.4767-0.43188-7.34 4.4899-14.882 8.6447-23.024 11.606-8.7743 4.2749-19.639 5.8735-26.506 13.253-8.8527 11.551-11.407 26.422-17.255 39.562-9.2795 23.906-19.082 48.207-19.827 74.179-1.6023 19.871 0.28221 40.018-2.0565 59.761-2.2245 8.1648-6.4604 19.718-16.708 19.758-8.9612-0.20032-12.483-10.339-15.979-16.924-15.244-32.19-11.154-70.48 3.3363-102.22 3.5173-8.3216-4.4304 0.32105-6.5554 2.8355-13.666 15.251-18.54 36.242-21.181 56.035-1.5452 11.835-0.54377 24.116 0.45886 35.737-4.5492 3.5602-11.672 1.3167-17.032 0.53983-14.331-2.4152-25.825-11.721-36.493-20.892-11.383-8.107-22.91-19.184-37.95-18.327-6.686 0.52717-13.986 1.022-19.812 4.5076-2.1544 3.6694 3.5962 4.4712 6.0461 4.4806 9.2206 0.50408 16.091 8.2565 21.782 14.71 5.9884 7.0947 9.7398 15.994 9.0414 25.397 1.8168 5.0858-2.3029 7.9331-5.5604 11.021-7.5381 6.8618-18.207 13.219-28.633 8.7258-21.706-5.0449-39.698-20.452-52.839-38.075-5.9445-8.1638-11.251-17.686-9.8488-28.176-0.558-15.036 12.047-26.594 24.302-33.011 23.565-12.173 50.795-16.021 77.061-13.55 16.746 3.2436 30.842 14.601 40.495 28.383 2.7969 2.9337 5.1458 8.8211 9.9524 8.2448 3.7252-2.0514-0.29757-6.9101-0.96623-9.8338-8.2426-16.376-7.2648-36.236-1.544-53.138 7.2516-18.701 20.937-34.323 34.657-48.396 6.5483-5.5754 13.79-11.921 22.511-13.334 5.4563 1.0209 9.1122 6.4258 12.659 10.311 5.1835 11.15 6.0846 24.117 10.716 35.548 4.0502 2.495 3.7408-4.3309 3.8062-6.8554-0.36973-15.681 4.2126-31.755 14.791-43.565 6.8404-6.1958 16.111-10.761 25.642-8.9342 4.7614-0.31205 11.04 2.5993 15.034-0.91771 2.3564-4.4319-6.3986-7.4301-2.6452-11.741 3.0504-6.0918 7.6988-11.586 14.548-13.334 9.4588-3.7097 19.568-5.8881 29.664-6.559zm66.858 185.51c-6.9282 5.9206-8.8254 15.581-15.034 22.214-12.369 15.714-26.843 30.473-34.99 49.121-1.9348 3.8918-3.7553 8.4544-6.6851 11.394-2.7908-5.5612-1.6288-12.134-2.9961-17.922-2.8794-2.8984-4.3583 2.5701-4.3186 4.8045-4.6103 30.406-0.61445 61.591 6.8559 91.178 3.8956 13.57 8.7954 27.197 16.573 39.03 2.3565 3.0658 5.6345-0.85217 4.2917-3.6439-2.0485-11.129-7.4385-21.178-9.1232-32.471-7.3088-33.815-1.4449-69.539 12.959-100.64 11.118-23.036 30.263-41.977 37.219-67.136-1.5835 1.3586-3.167 2.7172-4.7505 4.0757z"
         sodipodi:nodetypes="ccccccccccccccccccccccccccccccccccccccccccccccccccccccccccccccccccccccccccccccccccccccccccccccccccccccccccccccccccccccccccccccccccccccccccccccccccccccccccccccccccc"
         style="fill:#ffffff"
         inkscape:connector-curvature="0" />
    </g>
  </g>
  <metadata
     id="metadata225">
    <rdf:RDF>
      <cc:Work>
        <dc:format>image/svg+xml</dc:format>
        <dc:type
           rdf:resource="http://purl.org/dc/dcmitype/StillImage" />
        <cc:license
           rdf:resource="http://creativecommons.org/publicdomain/zero/1.0/" />
        <dc:publisher>
          <cc:Agent
             rdf:about="http://openclipart.org/">
            <dc:title>Openclipart</dc:title>
          </cc:Agent>
        </dc:publisher>
        <dc:date>2012-08-20T06:45:33</dc:date>
        <dc:description>Remix logo for 2012</dc:description>
        <dc:source>https://openclipart.org/detail/171828/tribal-wolf-by-loup.org-171828</dc:source>
        <dc:creator>
          <cc:Agent>
            <dc:title>loup.org</dc:title>
          </cc:Agent>
        </dc:creator>
        <dc:subject>
          <rdf:Bag>
            <rdf:li>loup</rdf:li>
            <rdf:li>tatouage</rdf:li>
            <rdf:li>tattoo</rdf:li>
            <rdf:li>team logo</rdf:li>
            <rdf:li>tribal wolf</rdf:li>
            <rdf:li>wolf</rdf:li>
            <rdf:li>wolves</rdf:li>
          </rdf:Bag>
        </dc:subject>
      </cc:Work>
      <cc:License
         rdf:about="http://creativecommons.org/licenses/publicdomain/">
        <cc:permits
           rdf:resource="http://creativecommons.org/ns#Reproduction" />
        <cc:permits
           rdf:resource="http://creativecommons.org/ns#Distribution" />
        <cc:permits
           rdf:resource="http://creativecommons.org/ns#DerivativeWorks" />
      </cc:License>
    </rdf:RDF>
  </metadata>
</svg>
