<?xml version="1.0" encoding="UTF-8" standalone="no"?>
<!-- Created with Inkscape (http://www.inkscape.org/) -->

<svg
   width="400mm"
   height="400mm"
   viewBox="0 0 400 399.99996"
   version="1.1"
   id="svg5"
   sodipodi:docname="turk400x400.svg"
   inkscape:version="1.4.2 (ebf0e940d0, 2025-05-08)"
   inkscape:export-filename="turk400x400.svg.png"
   inkscape:export-xdpi="96"
   inkscape:export-ydpi="96"
   xmlns:inkscape="http://www.inkscape.org/namespaces/inkscape"
   xmlns:sodipodi="http://sodipodi.sourceforge.net/DTD/sodipodi-0.dtd"
   xmlns="http://www.w3.org/2000/svg"
   xmlns:svg="http://www.w3.org/2000/svg">
  <sodipodi:namedview
     id="namedview7"
     pagecolor="#ffffff"
     bordercolor="#000000"
     borderopacity="0.25"
     inkscape:showpageshadow="2"
     inkscape:pageopacity="0.0"
     inkscape:pagecheckerboard="0"
     inkscape:deskcolor="#d1d1d1"
     inkscape:document-units="mm"
     showgrid="false"
     inkscape:zoom="0.34041773"
     inkscape:cx="724.11034"
     inkscape:cy="809.2998"
     inkscape:window-width="1920"
     inkscape:window-height="1014"
     inkscape:window-x="0"
     inkscape:window-y="0"
     inkscape:window-maximized="1"
     inkscape:current-layer="layer1" />
  <defs
     id="defs2">
    <filter
       inkscape:label="Jigsaw Piece"
       inkscape:menu="Bevels"
       inkscape:menu-tooltip="Low, sharp bevel"
       style="color-interpolation-filters:sRGB"
       id="filter2244"
       x="-0.001888731"
       y="-0.047597356"
       width="1.0037775"
       height="1.0951947">
      <feSpecularLighting
         in="SourceAlpha"
         surfaceScale="1"
         specularConstant="2"
         specularExponent="18.5"
         id="feSpecularLighting2236">
        <feDistantLight
           elevation="30"
           azimuth="225"
           id="feDistantLight2234" />
      </feSpecularLighting>
      <feComposite
         result="result0"
         operator="atop"
         in2="SourceGraphic"
         id="feComposite2238" />
      <feMorphology
         radius="2"
         result="result1"
         in="SourceAlpha"
         operator="dilate"
         id="feMorphology2240" />
      <feComposite
         in="result0"
         in2="result1"
         id="feComposite2242" />
    </filter>
  </defs>
  <g
     inkscape:label="Layer 1"
     inkscape:groupmode="layer"
     id="layer1">
    <rect
       style="fill:#ff0000;stroke-width:0.264583"
       id="rect1"
       width="400.1033"
       height="399.75327"
       x="1.3447595e-07"
       y="0.56361622" />
    <g
       transform="matrix(0.05324661,0,0,-0.05276043,6.9277334,392.25075)"
       fill="#000000"
       stroke="none"
       id="g8"
       style="fill:#ffffff">
      <path
         d="m 3389,6824 c -1,-104 -4,-259 -8,-344 -7,-150 -9,-165 -81,-442 -41,-158 -78,-284 -81,-280 -4,4 -16,36 -27,72 -11,36 -57,180 -102,320 -45,140 -117,368 -161,505 -97,301 -101,313 -94,265 3,-19 24,-172 48,-340 37,-254 43,-318 37,-385 -4,-44 -15,-182 -26,-307 -10,-126 -21,-228 -24,-228 -5,0 -32,52 -265,505 -246,479 -306,595 -310,595 -3,0 -2,-6 0,-12 3,-7 48,-146 100,-308 l 95,-295 26,-300 c 14,-164 24,-308 22,-318 -3,-20 -21,2 -493,638 -249,336 -283,379 -243,305 14,-25 84,-160 156,-301 l 131,-256 76,-303 c 42,-166 74,-304 73,-305 -2,-2 -208,193 -458,433 -250,240 -450,430 -445,422 5,-8 94,-130 199,-270 l 190,-255 127,-290 c 69,-159 125,-291 124,-293 -2,-2 -43,25 -93,60 -50,35 -141,98 -204,140 -62,42 -244,166 -403,275 -349,238 -364,248 -312,199 21,-19 131,-124 244,-233 225,-216 182,-162 470,-603 44,-69 80,-126 79,-128 -2,-1 -52,21 -112,49 -60,28 -192,89 -293,136 -102,47 -235,108 -295,137 -284,134 -426,198 -426,191 0,-2 60,-44 132,-93 342,-230 406,-278 473,-352 37,-41 91,-100 119,-130 153,-164 237,-260 230,-260 -6,0 -248,66 -494,135 -47,13 -161,45 -255,70 -93,26 -233,64 -309,86 -77,21 -141,37 -143,35 -2,-2 52,-28 119,-59 419,-189 466,-214 577,-299 236,-181 386,-300 389,-309 2,-5 -9,-7 -25,-4 -15,3 -181,21 -368,40 -187,19 -380,39 -430,45 -191,21 -407,42 -410,38 -2,-1 140,-42 314,-90 l 318,-86 269,-147 c 148,-81 272,-150 276,-154 5,-4 -85,-13 -200,-19 -114,-7 -274,-17 -357,-22 -82,-6 -220,-15 -305,-20 -400,-25 -379,-23 -330,-32 25,-4 173,-21 330,-37 l 285,-29 235,-82 c 129,-45 262,-91 295,-103 48,-16 56,-22 40,-28 -11,-5 -200,-49 -420,-99 -220,-50 -434,-99 -475,-110 -41,-10 -128,-30 -193,-45 -65,-15 -117,-28 -115,-30 2,-1 93,3 203,11 467,31 454,32 784,-25 161,-28 295,-52 297,-54 2,-2 -126,-57 -284,-122 -158,-65 -333,-138 -390,-161 -57,-24 -107,-44 -113,-44 -5,0 -20,-6 -32,-13 -12,-8 -93,-43 -179,-78 -86,-35 -155,-65 -154,-67 2,-1 148,31 326,73 l 323,75 h 315 c 221,0 313,-3 306,-10 -6,-6 -58,-40 -115,-75 -57,-35 -135,-84 -174,-108 -158,-100 -596,-373 -673,-420 -45,-27 -81,-51 -79,-53 2,-2 138,52 303,120 l 300,125 308,51 c 170,28 310,49 312,48 1,-2 -79,-75 -178,-163 -100,-88 -186,-164 -192,-170 -6,-5 -69,-61 -141,-123 -71,-63 -148,-130 -170,-150 -22,-21 -88,-79 -147,-131 -60,-52 -108,-96 -108,-98 0,-3 40,22 364,224 l 198,125 306,104 c 206,70 300,98 290,87 -8,-10 -53,-65 -99,-123 -47,-58 -163,-201 -259,-319 -96,-118 -224,-276 -284,-350 -60,-75 -116,-145 -125,-156 -20,-25 56,40 295,251 l 191,169 273,148 c 150,81 275,145 278,143 5,-5 -341,-622 -396,-706 -20,-30 -37,-59 -38,-65 -1,-5 -34,-66 -74,-135 -82,-142 -107,-189 -92,-175 5,6 100,121 209,257 149,184 218,261 274,305 211,167 429,332 429,324 0,-9 -58,-168 -182,-501 -28,-74 -54,-146 -58,-160 -5,-14 -47,-130 -94,-259 -48,-129 -85,-236 -83,-237 2,-2 74,122 161,277 l 158,280 216,234 c 119,129 217,233 218,232 1,-1 -33,-191 -77,-422 -44,-231 -84,-447 -89,-480 -6,-33 -22,-118 -36,-189 -14,-71 -23,-130 -21,-132 2,-2 27,63 56,144 177,489 157,446 326,703 84,129 163,248 175,264 l 22,30 -6,-290 c -3,-159 -8,-441 -11,-625 l -5,-335 29,150 c 17,83 44,227 62,320 31,163 36,179 124,380 51,116 108,246 126,288 18,42 36,77 40,77 3,0 11,-37 17,-82 14,-102 138,-951 156,-1068 l 14,-85 2,65 c 1,36 6,191 10,345 l 7,280 72,275 c 39,151 75,283 79,293 6,14 19,-16 49,-110 23,-70 107,-335 188,-588 81,-253 149,-462 152,-465 3,-3 3,13 0,35 -74,483 -89,604 -83,685 11,165 46,543 50,547 9,9 396,-750 396,-776 0,-12 4,-20 9,-17 4,3 44,-64 87,-148 44,-85 80,-153 82,-151 2,2 -17,65 -42,141 -159,491 -154,470 -171,694 -9,113 -20,252 -25,310 -5,58 -7,106 -6,107 1,1 51,-64 111,-145 320,-431 636,-852 641,-852 2,0 -11,28 -29,63 -19,34 -87,166 -152,292 l -119,230 -77,308 c -76,303 -77,308 -51,285 28,-24 168,-157 377,-359 147,-142 342,-329 365,-349 10,-8 48,-44 85,-80 l 67,-65 -48,67 c -27,37 -118,159 -202,272 l -153,204 -125,287 c -69,158 -124,288 -122,290 2,1 131,-85 288,-192 157,-108 368,-252 470,-321 102,-69 208,-141 235,-159 51,-35 -103,120 -332,334 -79,74 -117,119 -173,206 -39,62 -116,181 -171,265 -55,85 -99,155 -97,157 2,1 172,-76 378,-172 485,-226 760,-352 760,-348 0,2 -1,3 -331,228 -212,144 -218,150 -355,299 -76,84 -172,188 -212,231 -40,44 -72,81 -70,83 4,3 488,-128 728,-197 58,-17 123,-35 145,-40 22,-4 103,-26 180,-48 77,-22 141,-38 143,-37 1,2 -39,22 -90,46 -51,23 -185,86 -298,138 l -204,95 -243,190 c -134,104 -245,192 -247,196 -3,4 30,3 72,-1 267,-28 763,-79 797,-83 22,-2 85,-9 140,-14 55,-6 129,-14 165,-17 36,-4 63,-4 60,-2 -3,3 -142,43 -310,88 -280,76 -314,87 -420,143 -256,135 -451,245 -443,250 4,2 60,8 123,11 359,21 772,47 890,56 75,5 160,11 190,11 47,1 40,3 -45,14 -55,7 -203,23 -330,35 l -230,22 -185,63 c -102,35 -241,83 -310,106 l -125,43 45,12 c 39,11 321,76 620,145 278,63 479,110 505,118 28,8 26,9 -20,10 -27,1 -117,-4 -200,-9 -417,-29 -346,-32 -688,26 -170,29 -310,54 -313,56 -5,6 9,12 281,124 216,88 275,113 500,207 72,30 183,76 247,102 65,27 116,50 115,51 -2,2 -138,-29 -302,-69 l -300,-72 -340,-2 -340,-3 95,60 c 52,34 214,135 360,226 146,90 321,200 390,243 69,43 148,93 175,110 28,17 46,31 42,31 -4,0 -142,-56 -305,-124 l -298,-124 -309,-51 c -170,-28 -310,-49 -312,-47 -5,5 635,569 656,578 9,4 13,7 8,7 -4,1 32,36 80,78 49,43 90,80 93,83 3,3 24,22 48,43 23,20 39,37 36,37 -3,0 -104,-62 -225,-137 -310,-195 -337,-211 -404,-232 -33,-11 -165,-55 -292,-99 -128,-45 -233,-79 -233,-76 0,4 61,80 280,349 344,421 500,615 500,621 0,4 -238,-202 -260,-226 -51,-55 -253,-216 -310,-247 -41,-22 -164,-89 -273,-148 -109,-59 -200,-106 -202,-104 -2,2 27,58 64,124 62,109 334,588 372,653 19,33 107,190 144,257 l 27,50 -29,-31 c -15,-17 -109,-131 -208,-254 -170,-211 -187,-228 -310,-323 -71,-56 -184,-143 -249,-194 -65,-51 -120,-92 -122,-90 -3,3 49,147 160,447 14,36 46,124 71,195 26,72 53,144 60,160 11,25 108,294 130,360 9,26 -53,-79 -202,-343 l -121,-214 -207,-224 c -114,-123 -212,-227 -218,-231 -7,-4 -8,5 -4,28 8,43 46,249 141,755 42,220 76,407 76,415 -1,8 -51,-124 -113,-292 l -113,-307 -163,-248 c -90,-137 -170,-256 -178,-264 -12,-13 -14,-2 -9,80 3,52 8,266 11,475 3,209 8,450 10,535 3,85 3,151 0,145 -3,-5 -32,-153 -64,-327 l -60,-317 -122,-278 c -67,-153 -125,-282 -130,-286 -10,-12 -13,4 -64,363 -66,454 -68,469 -63,495 3,14 1,22 -3,19 -5,-3 -9,-2 -9,3 -1,29 -49,325 -54,330 -3,4 -6,-79 -7,-183 z m -18,-1010 c -6,-242 -11,-452 -12,-469 -1,-33 -3,-27 -77,206 l -41,127 49,213 c 26,118 56,249 65,292 10,43 19,76 22,74 2,-3 -1,-202 -6,-443 z m 365,-17 c -46,-247 -86,-450 -88,-452 -2,-3 -16,79 -30,181 l -27,185 93,227 c 51,125 101,249 111,276 11,27 20,45 22,40 1,-5 -35,-211 -81,-457 z m 483,281 c -23,-62 -51,-142 -64,-178 -52,-145 -193,-527 -208,-560 -14,-32 -14,-21 -9,155 l 5,190 140,230 c 161,263 168,275 173,275 2,0 -15,-51 -37,-112 z M 3029,5590 c 23,-157 44,-298 47,-315 3,-16 -36,48 -86,144 -79,151 -91,178 -86,210 3,20 10,144 16,276 6,132 14,247 17,255 6,15 18,-56 92,-570 z m 1648,453 c -6,-11 -170,-300 -194,-343 -180,-319 -266,-470 -269,-467 -2,1 1,21 6,42 5,22 21,104 36,182 l 26,143 195,225 c 172,197 217,247 200,218 z M 2700,5490 c 50,-157 95,-296 101,-309 21,-51 -3,-26 -109,116 l -110,148 -31,285 c -17,157 -31,290 -30,295 1,13 63,-174 179,-535 z m 2318,283 c -35,-43 -169,-208 -297,-366 -128,-159 -235,-287 -237,-285 -1,2 25,79 58,172 l 62,168 130,107 c 270,223 341,281 344,281 2,0 -25,-35 -60,-77 z M 2359,5392 c 111,-217 201,-395 199,-397 -2,-2 -63,55 -136,127 l -132,130 -76,267 c -41,146 -77,275 -80,286 l -6,20 15,-20 c 7,-11 105,-197 216,-413 z m 3004,125 c -32,-30 -76,-69 -98,-88 -22,-19 -123,-109 -225,-200 -245,-218 -320,-282 -320,-277 0,3 41,76 90,164 l 90,158 253,147 c 138,81 256,147 260,148 5,1 -18,-23 -50,-52 z M 2074,5168 c 146,-197 266,-360 266,-363 0,-3 -68,41 -151,97 l -152,103 -52,110 c -29,61 -76,160 -105,220 -82,172 -103,221 -87,205 8,-8 134,-176 281,-372 z m 3591,38 c -38,-24 -113,-71 -165,-104 -116,-72 -539,-336 -560,-348 -21,-11 -9,4 117,159 99,121 104,126 170,151 37,14 163,61 278,105 116,44 215,80 220,80 6,1 -21,-19 -60,-43 z M 1780,4944 c 218,-208 377,-364 370,-364 -4,0 -52,21 -106,46 -55,25 -127,59 -161,75 -47,22 -69,39 -94,76 -18,26 -87,127 -154,223 -169,242 -171,247 -64,144 52,-50 146,-140 209,-200 z m 4189,-68 c -10,-10 -852,-357 -856,-353 -7,7 260,237 282,243 25,6 557,112 569,113 5,1 7,-1 5,-3 z M 1507,4674 c 444,-302 512,-348 510,-351 -2,-1 -83,20 -182,47 -180,50 -180,50 -224,97 -25,27 -119,123 -210,216 -91,92 -163,167 -159,167 4,0 123,-79 265,-176 z m 4628,-209 c -5,-2 -109,-27 -230,-55 -121,-27 -316,-72 -433,-100 -117,-27 -218,-50 -224,-50 -13,0 17,20 177,120 l 119,75 146,6 c 176,6 459,9 445,4 z M 1545,4226 c 209,-97 373,-176 365,-176 -47,0 -339,32 -358,40 -20,9 -461,327 -487,352 -12,12 12,1 480,-216 z m 4682,-178 c 10,-3 -2,-8 -27,-11 -39,-6 -848,-58 -875,-56 -11,0 2,6 211,92 l 131,53 271,-37 c 149,-21 279,-39 289,-41 z M 1368,3904 c 468,-127 494,-135 490,-139 -2,-2 -85,-9 -186,-15 l -182,-11 -258,132 c -141,72 -259,133 -261,135 -10,9 30,-1 397,-102 z m 4459,-153 c 32,-11 126,-40 208,-66 216,-67 263,-83 240,-84 -11,-1 -150,13 -310,29 -159,17 -337,35 -395,41 -58,6 -130,13 -160,17 l -55,7 175,42 c 184,44 201,45 297,14 z M 1256,3540 c 159,-16 339,-35 399,-41 61,-6 133,-14 160,-18 l 50,-7 -135,-32 c -257,-61 -198,-64 -510,33 -151,47 -279,87 -285,89 -23,10 48,4 321,-24 z m 4744,-245 c 146,-74 260,-134 253,-134 -13,-1 -884,237 -890,243 -2,2 53,7 124,11 70,3 135,8 143,9 8,2 35,4 60,4 39,1 83,-18 310,-133 z M 1899,3186 c -2,-2 -80,-36 -174,-74 l -170,-69 -300,42 c -165,24 -293,44 -285,45 39,4 841,57 884,59 27,0 47,-1 45,-3 z m 3613,-85 c 189,-21 143,0 374,-171 56,-41 138,-102 183,-134 45,-33 80,-61 78,-63 -2,-2 -161,69 -353,158 -487,225 -491,228 -469,228 11,0 95,-8 187,-18 z M 1980,2906 c 0,-2 -69,-47 -152,-99 l -153,-95 -280,-7 c -154,-3 -289,-9 -300,-12 -12,-3 -16,-2 -10,4 10,9 74,25 540,133 143,33 276,64 295,69 41,10 60,13 60,7 z m 3429,-112 155,-42 135,-139 c 75,-76 172,-176 216,-222 l 80,-84 -130,89 c -71,48 -251,171 -400,272 -148,101 -256,180 -240,176 17,-4 99,-26 184,-50 z M 2119,2647 c -12,-10 -208,-184 -236,-210 -30,-28 -51,-34 -325,-88 -161,-31 -294,-56 -296,-54 -2,1 50,25 114,51 64,27 253,106 418,176 254,106 348,142 325,125 z m 3186,-161 100,-47 80,-117 c 244,-355 258,-377 225,-347 -42,37 -513,487 -595,567 l -60,59 75,-34 c 41,-19 120,-56 175,-81 z M 2180,2273 2068,2135 1787,2028 c -155,-59 -283,-106 -284,-104 -2,1 130,85 292,187 162,101 339,212 392,245 54,34 100,60 102,58 1,-1 -47,-65 -109,-141 z m 2850,-3 c 80,-55 148,-101 151,-102 8,-3 259,-532 259,-544 0,-6 -534,702 -554,735 -4,6 -5,11 -3,11 2,0 68,-45 147,-100 z M 2423,2068 c -47,-84 -90,-159 -97,-166 -7,-7 -46,-32 -87,-55 -40,-24 -150,-87 -244,-141 -93,-54 -174,-101 -180,-103 -16,-7 64,66 365,332 157,139 291,259 299,268 7,10 17,17 22,17 4,0 -31,-69 -78,-152 z m 2441,-78 68,-66 83,-290 c 46,-159 82,-290 80,-292 -1,-2 -58,104 -125,235 -68,131 -166,321 -218,423 l -95,185 69,-65 c 38,-35 100,-94 138,-130 z m -2182,-112 -67,-177 -225,-184 c -124,-102 -226,-184 -228,-182 -2,1 95,124 215,272 120,148 251,310 292,361 41,50 76,90 77,89 2,-2 -27,-82 -64,-179 z m 1979,-322 c 10,-94 24,-216 29,-271 6,-55 13,-112 16,-127 3,-16 3,-28 1,-28 -6,0 -8,8 -147,440 -51,157 -103,319 -116,360 -13,41 -24,79 -24,84 0,5 50,-57 111,-139 l 110,-148 z m -1685,192 -33,-177 -89,-103 c -153,-178 -296,-343 -307,-353 -14,-14 -36,-53 235,425 58,102 131,231 163,288 31,56 59,101 61,99 2,-2 -11,-82 -30,-179 z m 1264,-6 83,-162 -12,-208 c -6,-114 -14,-250 -18,-302 -8,-113 -6,-122 -57,231 -19,134 -47,320 -61,413 -24,165 -29,204 -21,195 2,-2 40,-77 86,-167 z m -952,-97 -4,-160 -148,-240 c -142,-232 -178,-284 -162,-240 4,11 36,99 71,195 35,96 102,280 149,409 47,128 87,236 87,240 7,31 10,-74 7,-204 z m 638,28 57,-178 -63,-285 c -35,-157 -67,-292 -72,-300 -7,-11 -8,-10 -4,5 3,11 8,226 12,478 4,251 8,457 10,457 1,0 28,-80 60,-177 z m -316,-56 22,-162 -113,-277 c -62,-153 -115,-276 -117,-274 -2,2 1,21 6,42 6,22 45,229 88,462 54,288 81,415 85,398 4,-15 17,-99 29,-189 z"
         id="path4"
         style="fill:#ffffff" />
      <path
         d="m 7008,4083 c 7,-3 16,-2 19,1 4,3 -2,6 -13,5 -11,0 -14,-3 -6,-6 z"
         id="path6"
         style="fill:#ffffff" />
    </g>
    <path
       fill="#ffffff"
       d="m 147.72242,103.59071 c 0.78966,-2.12422 1.47561,-4.293832 2.46166,-6.331552 0.9178,2.71839 1.76334,5.475062 2.96077,8.079992 0.74321,1.33864 1.45375,2.69996 2.32794,3.95492 0.74874,1.26631 1.81112,2.28163 2.64985,3.47988 0.63688,0.90187 1.36783,1.7371 1.88472,2.72405 2.00337,3.44159 3.86496,6.96826 5.72654,10.49493 0.45137,0.70192 0.90413,1.4067 1.39783,2.07743 -0.19499,-1.17556 -0.50457,-2.32843 -0.70235,-3.50256 -0.13365,-1.00681 -0.29045,-2.00937 -0.41457,-3.01618 1.41015,3.00625 2.67711,6.08624 3.88675,9.18607 0.22778,1.02099 0.39144,2.05899 0.58916,3.0885 0.18278,1.39393 0.28777,2.79637 0.45004,4.19314 0.30549,1.89451 0.66827,3.77908 1.12923,5.64097 0.54276,1.8463 1.11831,3.68266 1.82199,5.47081 0.59735,1.45775 0.90285,3.01901 1.40742,4.50937 0.59869,1.39535 1.21923,2.78078 1.83431,4.16904 -0.98058,0.37862 -2.02384,0.6296 -2.8735,1.29608 -0.94919,0.48356 -1.60514,1.35707 -2.35388,2.10012 -1.30788,1.35282 -2.25161,3.01618 -3.12441,4.69088 -0.11319,0.73172 -0.17865,1.47051 -0.2605,2.2079 -0.88374,-0.11771 -1.76334,-0.28928 -2.65253,-0.34175 -1.85885,0.24106 -3.7245,0.44951 -5.56015,0.84941 -1.85611,0.41123 -3.7531,0.55019 -5.62968,0.81537 0.35323,-1.5088 0.60008,-3.04453 0.97645,-4.54624 0.55782,-1.25639 1.19331,-2.4759 1.76886,-3.72519 0.88233,0.73454 1.87245,1.34005 2.63619,2.21639 0.59322,0.60976 1.17284,1.2337 1.77153,1.83778 1.35288,-0.23398 2.68257,-0.65088 4.03,-0.94299 0.3491,-0.034 0.56729,-0.33608 0.79368,-0.57715 1.21376,-1.34997 2.46572,-2.66166 3.68629,-4.00454 0.16092,-1.11175 0.17319,-2.24334 0.28505,-3.36218 -0.20046,-2.93818 -0.55369,-5.8636 -0.956,-8.77909 -0.51415,-2.42769 -1.06104,-4.84971 -1.58746,-7.27455 -0.16639,-0.67216 -0.24819,-1.37266 -0.5073,-2.01646 -0.3819,-0.98129 -0.76101,-1.96256 -1.13604,-2.94526 -0.32731,-0.86502 -0.47323,-1.79809 -0.84966,-2.64041 -1.50969,-2.5 -3.03164,-4.99292 -4.51137,-7.51278 -0.9928,-1.79098 -2.33208,-3.33381 -3.50352,-4.99575 -0.99692,-1.44924 -2.22435,-2.69712 -3.35766,-4.02724 -0.77734,-0.84374 -1.62014,-1.61941 -2.41388,-2.44612 -1.00918,0.82955 -2.04291,1.62649 -3.03714,2.47306 -0.9792,1.11032 -1.88472,2.29013 -2.85711,3.40613 -0.81554,0.90188 -1.63788,1.7995 -2.448,2.70705 -0.64776,0.85224 -1.14558,1.82076 -1.80426,2.66166 -0.75827,0.7388 -1.51381,1.48044 -2.28842,2.2008 0.23592,-1.25496 0.4923,-2.50852 0.79507,-3.74788 1.91612,-5.1716 3.72857,-10.38431 5.63241,-15.56017 0.61508,-1.42513 1.30516,-2.81339 1.92565,-4.23569 z"
       id="path119"
       style="display:inline;opacity:0.272848;fill:#000000;stroke-width:0.139064" />
    <path
       d="m 245.41268,105.33774 c 1.19739,-2.60352 2.04292,-5.360192 2.96077,-8.078582 0.83873,1.74277 1.46875,3.576302 2.12203,5.399902 0.45962,1.38968 1.16192,2.67159 1.74426,4.00597 0.62735,1.25922 1.03238,2.61912 1.53154,3.93505 1.24511,3.39622 2.42208,6.81795 3.68084,10.2099 0.4023,1.2025 0.96965,2.35396 1.18377,3.61601 0.17999,0.9033 0.4023,1.79808 0.55096,2.70704 -0.59055,-0.5346 -1.14831,-1.10607 -1.72793,-1.65344 -1.07604,-0.90329 -1.58607,-2.30006 -2.49299,-3.35792 -0.77461,-0.85082 -1.54376,-1.7059 -2.31842,-2.55673 -0.97373,-1.116 -1.87792,-2.29581 -2.85711,-3.40613 -0.99418,-0.84657 -2.0293,-1.64351 -3.03715,-2.47306 -1.12238,1.14577 -2.29795,2.23766 -3.32213,3.48413 -1.85478,1.97958 -3.34946,4.27256 -4.9928,6.43365 -0.77193,1.1557 -1.43335,2.38656 -2.15889,3.57204 -1.00512,1.69173 -2.03203,3.36927 -3.05076,5.05248 -0.51688,0.72037 -0.63141,1.63217 -0.90965,2.46031 -0.43777,1.38826 -1.05558,2.70704 -1.51382,4.0868 -0.4309,1.92427 -0.84825,3.85281 -1.26964,5.77993 -0.29184,1.42371 -0.69146,2.82757 -0.82239,4.28107 -0.33137,2.48724 -0.61229,4.98299 -0.7828,7.48725 0.1118,1.12025 0.12273,2.25469 0.28777,3.36785 1.3133,1.43222 2.64439,2.84885 3.95361,4.28673 0.20999,0.2751 0.56457,0.28787 0.86734,0.37294 1.2097,0.27935 2.40846,0.60126 3.6195,0.87636 0.85914,-0.77709 1.60515,-1.69174 2.45342,-2.48583 0.66553,-0.53885 1.34875,-1.05218 2.01976,-1.58395 0.57822,1.24646 1.20965,2.46739 1.77019,3.72378 0.37504,1.50028 0.62461,3.03602 0.97512,4.54481 -1.80158,-0.25524 -3.62223,-0.38711 -5.40469,-0.76999 -1.90931,-0.41974 -3.8513,-0.64662 -5.78514,-0.89336 -0.88919,0.0525 -1.76885,0.22404 -2.65119,0.34175 -0.0818,-0.73739 -0.14865,-1.47618 -0.26045,-2.2079 -0.67101,-1.21667 -1.28469,-2.4844 -2.17116,-3.55219 -0.56734,-0.81963 -1.30788,-1.4776 -1.97476,-2.20221 -0.26865,-0.29637 -0.56189,-0.56862 -0.90414,-0.76433 -0.58369,-0.34316 -1.11424,-0.8012 -1.762,-1.01107 -0.51415,-0.18434 -1.0297,-0.36585 -1.53973,-0.55728 0.41869,-0.93307 0.8278,-1.8704 1.24103,-2.80631 0.28638,-0.66931 0.62462,-1.31877 0.80873,-2.02921 0.40504,-1.42939 0.78008,-2.87295 1.34196,-4.24703 1.62154,-4.17614 2.66346,-8.59617 3.04942,-13.08143 0.11866,-1.6577 0.46231,-3.2856 0.791,-4.90785 1.20965,-3.09842 2.47521,-6.17982 3.88542,-9.18465 -0.21004,1.47902 -0.35597,2.97221 -0.6942,4.42854 -0.13773,0.69626 -0.31504,1.38543 -0.42138,2.08878 0.49369,-0.67073 0.94512,-1.37551 1.39783,-2.07743 1.72113,-3.25157 3.42993,-6.51307 5.2697,-9.69515 1.17011,-2.19371 2.76845,-4.09247 4.31772,-6.00115 1.1196,-1.5726 2.08518,-3.25157 3.00163,-4.95889 z"
       id="path121"
       style="display:inline;opacity:0.272848;fill:#000000;stroke-width:0.139064" />
    <path
       fill="#ffffff"
       d="m 135.11296,126.50201 c 0.22226,-0.34034 0.46911,-0.66365 0.73781,-0.96569 -0.31504,2.08168 -0.65328,4.16762 -0.7324,6.27625 0.19639,1.23653 0.3437,2.49007 0.75147,3.67556 0.39004,1.5329 0.97785,2.99916 1.60241,4.44272 1.38974,2.61771 2.75624,5.24959 4.15412,7.86162 1.05692,1.66621 2.10703,3.35225 3.41079,4.82418 0.60689,0.60127 1.15105,1.26632 1.71019,1.91436 -1.16877,0.42683 -2.35253,0.80969 -3.5145,1.25638 -0.62188,0.33324 -1.24377,0.67783 -1.83559,1.06495 -0.53736,0.57713 -1.07198,1.17129 -1.53834,1.81225 -0.17325,0.73314 -0.38324,1.46484 -0.47736,2.21357 0.41731,2.56949 0.78419,5.19995 1.86704,7.57659 0.41458,0.74873 0.64095,1.635 1.2751,2.23058 0.39824,0.38996 0.72008,0.87209 1.16471,1.20675 0.46091,0.0639 0.9246,0.14465 1.39102,0.15315 0.53735,-0.34316 1.08691,-0.67357 1.59288,-1.06353 0.23324,-0.50624 0.39823,-1.04368 0.59461,-1.56552 -0.57688,-0.19143 -1.16603,-0.34883 -1.72652,-0.58706 -0.65328,-0.32474 -1.29831,-0.6679 -1.94477,-1.00681 1.42381,-0.57147 2.85303,-1.12877 4.28637,-1.67471 0.851,-0.31056 1.62561,-0.79836 2.44661,-1.17839 -0.21685,1.46199 -0.70915,3.00908 -0.17045,4.45689 0.049,0.54453 -0.0123,1.11033 0.18545,1.63218 0.3723,0.4169 0.94646,0.61968 1.21923,1.13868 0.40777,0.71753 0.91512,1.38685 1.16464,2.19088 -1.12098,-0.38571 -2.23795,-0.9274 -3.44486,-0.85508 -1.01465,0.25099 -2.04023,0.44526 -3.06034,0.66222 -0.96419,0.4481 -1.59969,1.36983 -2.28976,2.16393 -0.78147,0.75582 -1.55608,1.53291 -2.47666,2.1058 -0.85373,0.70051 -1.97745,0.82955 -2.90211,1.39535 -0.7978,0.33465 -1.46061,0.9118 -2.06476,1.5343 -0.17319,0.27794 -0.33277,0.57573 -0.4255,0.89479 0.0777,0.44385 0.18139,0.88627 0.31504,1.31594 0.41457,0.70335 1.22331,0.88061 1.92704,1.10608 1.58607,0.4878 3.03983,1.33153 4.47864,2.16534 -0.79373,0.29637 -1.54654,0.77 -2.40846,0.8097 -0.87281,0.12621 -1.75792,0.19144 -2.61573,0.42116 -0.96692,0.25241 -1.96518,0.41549 -2.88711,0.82389 -1.65565,0.88911 -2.51479,2.69427 -3.6699,4.12365 -0.67374,0.90755 -1.47562,1.72718 -1.99116,2.75243 -0.65049,1.15428 -1.40877,2.24618 -2.22022,3.28417 0.17731,-1.1245 0.32184,-2.25467 0.52642,-3.37209 0.81692,-2.43478 1.71153,-4.84545 2.7603,-7.1838 0.51003,-1.20533 1.06239,-2.39366 1.55195,-3.60892 0.26051,-1.3372 0.44323,-2.69002 0.67647,-4.03291 0.28772,-1.58111 0.17999,-3.21753 0.57415,-4.7788 0.26726,-1.36415 0.61916,-2.71271 0.78961,-4.0953 0.42004,-2.95094 0.86739,-5.89763 1.19058,-8.86133 0.11458,-0.82956 0.17318,-1.66621 0.32184,-2.49009 0.3355,-1.30176 0.67647,-2.60352 1.01605,-3.90528 0.25911,-0.76858 0.80187,-1.39535 1.08145,-2.15259 0.11184,-0.74306 0.25777,-1.48327 0.30957,-2.23342 -0.20999,-0.94583 -0.47596,-1.88174 -0.72961,-2.81622 -0.68868,-1.45208 -1.51788,-2.82757 -2.39207,-4.16762 -0.28911,-0.50057 -0.67642,-0.95151 -0.86734,-1.50739 -0.81553,-2.55956 -1.70339,-5.1248 -2.02796,-7.8134 0.008,-0.89336 -0.0288,-1.79098 0.0175,-2.68293 0.29598,-0.95577 0.63689,-1.89734 0.96832,-2.84034 0.70642,-1.39534 1.53288,-2.72121 2.35388,-4.04707 z"
       id="path123"
       style="display:inline;opacity:0.272848;fill:#000000;stroke-width:0.139064" />
    <path
       d="m 262.68763,125.53915 c 0.78421,0.88912 1.30109,1.98243 1.93385,2.98639 0.46643,0.91181 1.04744,1.78249 1.28882,2.7978 0.2523,1.0054 0.75007,1.9725 0.62322,3.04028 0.13093,3.3792 -0.776,6.68749 -1.89699,9.82419 -1.07877,1.76972 -2.26661,3.47704 -3.13941,5.37153 -0.25504,0.9359 -0.51962,1.87181 -0.72967,2.81766 0.0519,0.75156 0.19644,1.49462 0.31098,2.23767 0.3205,0.86359 0.98737,1.56694 1.17283,2.4915 0.31097,1.27056 0.68188,2.52695 0.97105,3.80319 0.40637,3.4586 0.83327,6.91295 1.35695,10.35453 0.21958,1.96398 0.72008,3.87409 1.091,5.8083 0.16638,1.64351 0.22777,3.3012 0.56054,4.92202 0.27412,1.27057 0.24819,2.63898 0.86053,3.80744 1.17285,2.69287 2.38522,5.37154 3.33987,8.16083 0.24824,0.77992 0.62328,1.52865 0.71735,2.35394 0.12958,0.92598 0.2837,1.84913 0.41869,2.77653 -0.96692,-1.2266 -1.83425,-2.54113 -2.58299,-3.92088 -0.761,-1.08906 -1.65834,-2.07034 -2.40573,-3.16932 -0.80595,-1.12309 -1.58608,-2.34686 -2.80664,-3.02469 -0.9096,-0.44101 -1.91612,-0.59273 -2.88165,-0.84799 -1.0883,-0.29636 -2.21888,-0.346 -3.32353,-0.5346 -0.61508,-0.1886 -1.19603,-0.48214 -1.79199,-0.71894 1.55061,-0.91039 3.13668,-1.79808 4.86456,-2.29297 0.59461,-0.14891 1.19876,-0.42117 1.53834,-0.97846 0.13365,-0.42966 0.23731,-0.87209 0.31642,-1.31593 -0.21004,-0.88345 -0.9533,-1.41521 -1.60106,-1.94414 -0.92739,-0.56155 -1.91884,-0.99547 -2.93216,-1.35423 -1.28196,-0.6764 -2.38388,-1.66336 -3.40265,-2.70563 -0.65595,-0.77708 -1.28738,-1.6435 -2.2093,-2.08593 -1.02418,-0.22122 -2.05389,-0.41407 -3.07261,-0.66507 -1.21645,-0.0723 -2.34703,0.4637 -3.47219,0.86501 0.23731,-0.78134 0.70508,-1.44641 1.09924,-2.14692 0.26319,-0.51899 0.78415,-0.79835 1.19872,-1.16846 0.0149,-0.77567 -0.0832,-1.57544 0.23185,-2.30432 0.15684,-1.27198 -0.10227,-2.5468 -0.23593,-3.80885 2.21477,1.13443 4.57276,1.90726 6.86391,2.85168 -0.64781,0.3375 -1.29288,0.68207 -1.94472,1.00681 -0.56188,0.23964 -1.15242,0.39563 -1.72791,0.5899 0.19911,0.519 0.36276,1.05644 0.59595,1.56268 0.50328,0.38996 1.05284,0.71895 1.5902,1.06211 0.48956,-0.034 1.0146,-0.0453 1.48102,-0.20561 0.5087,-0.51049 0.99285,-1.05361 1.46608,-1.60097 1.04331,-1.88032 1.82611,-3.93365 2.1793,-6.08056 0.20184,-0.99263 0.37503,-1.99235 0.54142,-2.99349 0.10231,-0.5034 -0.11319,-0.98979 -0.2018,-1.47618 -0.13504,-0.46086 -0.12004,-1.00823 -0.48281,-1.35564 -0.43777,-0.48923 -0.83596,-1.01674 -1.29831,-1.47902 -0.59322,-0.38712 -1.21376,-0.73171 -1.83564,-1.06495 -1.16192,-0.44669 -2.34568,-0.83097 -3.51446,-1.25638 0.81827,-1.04085 1.81112,-1.91576 2.58573,-2.99349 0.92326,-1.14578 1.67339,-2.42485 2.48207,-3.65571 1.39515,-2.57516 2.72891,-5.18436 4.11179,-7.76519 0.89466,-1.89167 1.53974,-3.89536 2.05797,-5.93025 0.13092,-0.78985 0.27957,-1.57828 0.38596,-2.37239 -0.0791,-2.10862 -0.41875,-4.19456 -0.74606,-6.27483 z"
       id="path125"
       style="display:inline;opacity:0.272848;fill:#000000;stroke-width:0.139064" />
    <path
       fill="#ffffff"
       d="m 149.27035,135.68524 c 0.21953,-0.42542 0.41318,-0.86784 0.66689,-1.27482 0.32864,1.41379 0.60275,2.84459 1.02145,4.23427 0.32324,0.68917 0.74188,1.32871 1.09651,2.00369 0.24411,0.52326 0.72001,0.85367 1.11552,1.24363 0.15958,0.13613 0.31504,0.33607 0.54962,0.29352 1.79065,-0.0382 3.57857,-0.14465 5.36375,-0.28502 0.65323,-0.0468 1.32011,-0.0284 1.95158,-0.23539 0.47323,-0.1574 0.99553,-0.20279 1.41283,-0.50482 0.45824,-0.31765 0.90286,-0.65797 1.37335,-0.96002 -0.15818,0.68917 -0.0248,1.47051 -0.42823,2.07885 -0.46642,0.79836 -0.92053,1.60522 -1.38289,2.40641 -0.51956,0.0624 -1.03371,0.16025 -1.55194,0.22831 -1.19197,0.13613 -2.41661,-0.0879 -3.58811,0.24249 -0.87012,0.16591 -1.72927,0.4013 -2.60485,0.52042 -1.61742,-0.002 -3.23622,0.0269 -4.85229,-0.0142 -0.54281,-0.42684 -1.08696,-0.85934 -1.5902,-1.33439 -0.17725,-0.71185 -0.3573,-1.43364 -0.44456,-2.16109 0.12138,-0.943 0.13092,-1.92287 0.51688,-2.80205 0.48957,-1.21526 0.72276,-2.5383 1.37469,-3.67982 z"
       id="path127"
       style="display:inline;opacity:0.272848;fill:#000000;stroke-width:0.139064" />
    <path
       d="m 248.62029,134.41184 c 0.40638,0.71895 0.77735,1.46483 1.12238,2.21923 0.36412,1.12025 0.73235,2.23909 1.13465,3.34516 0.17046,0.71753 0.21139,1.46342 0.30277,2.19513 -0.0695,0.65797 -0.25911,1.29751 -0.38184,1.94555 -0.0206,0.26234 -0.2619,0.38996 -0.42823,0.54737 -0.41462,0.32472 -0.80054,0.68917 -1.22603,0.9983 -1.6202,0.0411 -3.24308,0.0127 -4.86327,0.0127 -1.54922,-0.20136 -3.05349,-0.80544 -4.6341,-0.71043 -1.04465,0.0525 -2.07296,-0.12337 -3.09988,-0.27935 -0.51823,-0.92313 -1.06918,-1.82644 -1.56834,-2.76093 -0.14865,-0.55871 -0.13505,-1.15429 -0.24277,-1.72434 0.56461,0.35026 1.0733,0.79127 1.64746,1.1245 0.61781,0.2042 1.24784,0.40415 1.89291,0.49916 2.22709,0.14464 4.45277,0.33891 6.68387,0.35735 0.47055,-0.22264 0.81554,-0.69059 1.21243,-1.03659 0.46091,-0.62536 0.776,-1.35707 1.1865,-2.01929 0.30272,-0.46796 0.39003,-1.03092 0.53591,-1.56268 0.27416,-1.04226 0.47735,-2.10296 0.72558,-3.15089 z"
       id="path129"
       style="display:inline;opacity:0.272848;fill:#000000;stroke-width:0.139064" />
    <path
       fill="#ffffff"
       d="m 177.03006,135.02018 c 2.0593,1.60664 4.10767,3.26433 6.42068,4.46541 0.63002,0.37152 1.34056,0.62536 1.86565,1.16421 0.85373,0.89336 2.0593,1.24646 3.04395,1.95123 0.65596,0.49915 1.42376,0.77992 2.19703,1.01815 0.28096,0.0483 0.55642,-0.0993 0.8346,-0.14038 -0.37091,-2.25611 -0.89053,-4.49804 -0.94641,-6.79527 0.45138,0.46513 0.62457,1.11176 0.87142,1.70025 0.89058,2.25184 1.9993,4.39875 3.14353,6.52014 0.79915,1.26206 1.62562,2.50993 2.34708,3.82162 0.22912,0.90614 0.23865,1.85905 0.41458,2.77937 0.51142,2.72264 0.82506,5.48073 1.02965,8.24591 -0.0438,1.28758 -0.10913,2.57374 -0.18273,3.8599 -0.23458,-0.70193 -0.39143,-1.4308 -0.60554,-2.13982 -0.32051,-1.01957 -0.29051,-2.10863 -0.5155,-3.14947 -0.38457,-2.27596 -1.07192,-4.48952 -1.9475,-6.61091 -0.51003,-0.91322 -0.99965,-1.8548 -1.67061,-2.65599 -0.47323,-0.59415 -0.89192,-1.24219 -1.46881,-1.7371 -0.47322,-0.40414 -0.86053,-0.94583 -1.44969,-1.17697 -0.47188,-0.21697 -0.93965,-0.44385 -1.40875,-0.66365 -0.81147,-0.38287 -1.73066,-0.4637 -2.50939,-0.92456 -0.47457,-0.27226 -0.97507,-0.49489 -1.43876,-0.78559 -0.59735,-0.61969 -0.83466,-1.56978 -1.57247,-2.05049 -0.47049,-0.32616 -0.89872,-0.71611 -1.39242,-1.00397 -0.50596,0.034 -1.03372,0.007 -1.52195,0.16024 -0.4105,0.27651 -0.89053,0.50198 -1.21784,0.87776 -0.0175,0.70477 -0.0232,1.41238 0.009,2.11714 0.10087,0.83239 0.25365,1.65769 0.36272,2.49008 0.38735,0.17725 0.76374,0.38428 1.16057,0.54169 0.79374,-0.13897 1.54788,-0.4481 2.30889,-0.71044 -0.15681,0.67215 -0.15953,1.39252 -0.46912,2.01929 -0.32457,0.70477 -0.58781,1.44073 -0.94372,2.12848 -0.46369,0.71327 -0.94105,1.41946 -1.42654,2.11855 -1.00099,-2.22632 -2.10564,-4.4101 -2.89803,-6.73002 -0.55642,-2.0278 -0.97646,-4.13642 -0.81693,-6.25497 0.009,-1.49321 0.21963,-2.97081 0.39416,-4.44982 z"
       id="path131"
       style="display:inline;opacity:0.272848;fill:#000000;stroke-width:0.139064" />
    <path
       d="m 219.3822,136.68921 c 0.71466,-0.55587 1.42514,-1.11883 2.14522,-1.66761 0.29458,2.45321 0.62462,4.95038 0.27144,7.41635 -0.0778,1.04794 -0.41051,2.04907 -0.63009,3.07006 -0.78007,2.405 -1.93523,4.65117 -2.96215,6.94698 -0.48684,-0.69909 -0.9628,-1.40528 -1.42649,-2.11997 -0.35597,-0.68633 -0.61915,-1.42087 -0.94239,-2.12422 -0.31091,-0.62822 -0.31365,-1.34856 -0.47049,-2.02213 0.72146,0.251 1.43741,0.53035 2.18203,0.70761 0.41462,-0.10778 0.77739,-0.36728 1.16469,-0.55021 0.15273,-1.52865 0.32185,-3.05729 0.23866,-4.59587 -0.32051,-0.38145 -0.76921,-0.65939 -1.18651,-0.92031 -0.46776,-0.0724 -0.94646,-0.1262 -1.41829,-0.10209 -0.54142,0.39279 -1.07198,0.80403 -1.59839,1.21667 -0.50185,0.5346 -0.76508,1.26773 -1.25331,1.81509 -0.43231,0.27653 -0.90008,0.48497 -1.3433,0.73881 -0.89193,0.5488 -1.96251,0.61258 -2.87624,1.1075 -0.65188,0.35877 -1.42102,0.5346 -1.94472,1.10607 -1.56292,1.38401 -2.79576,3.13246 -3.77635,4.9986 -1.07191,2.59644 -1.85471,5.33467 -2.16702,8.14664 -0.11047,1.29184 -0.56323,2.51419 -0.90007,3.75356 -0.0737,-1.28616 -0.13912,-2.57232 -0.18278,-3.85991 0.16639,-2.26036 0.40777,-4.51646 0.76781,-6.75413 0.18411,-1.01249 0.36004,-2.02639 0.47596,-3.05021 0.0627,-0.40697 0.06,-0.83097 0.20051,-1.22093 0.92733,-1.75128 2.16022,-3.30971 3.02209,-5.1007 1.03651,-1.91719 1.95704,-3.90102 2.74665,-5.94159 0.12959,-0.37011 0.3287,-0.71186 0.59328,-0.9983 -0.056,2.29723 -0.57555,4.53915 -0.94646,6.79383 0.31364,0.044 0.63549,0.23682 0.95326,0.10636 0.59462,-0.21838 1.22058,-0.38429 1.74426,-0.76574 0.81007,-0.55729 1.68154,-1.00823 2.538,-1.4847 0.54823,-0.30345 0.91373,-0.86216 1.45789,-1.17129 0.91373,-0.51758 1.86019,-0.97136 2.74938,-1.53007 0.92739,-0.64522 1.89431,-1.22946 2.77392,-1.94415 z"
       id="path133"
       style="display:inline;opacity:0.272848;fill:#000000;stroke-width:0.139064" />
    <path
       fill="#ffffff"
       d="m 152.14926,147.00546 c 1.48108,1.07488 2.89803,2.2476 4.41731,3.26717 0.8864,0.5658 1.64607,1.30743 2.44114,1.9966 0.90692,0.8097 1.85199,1.56977 2.7821,2.35111 0.92467,0.73171 1.70473,1.63501 2.54208,2.47023 -0.95327,-0.0312 -1.92972,0.12195 -2.85984,-0.15598 -0.54142,-0.15173 -1.10738,-0.2198 -1.63107,-0.42967 -0.97786,-0.56013 -1.85065,-1.36983 -2.98257,-1.57828 -0.45009,0.16591 -0.89192,0.37153 -1.30382,0.62252 -0.52637,0.77 -1.06238,1.5343 -1.62968,2.27454 -0.27823,0.72178 -0.34642,1.51731 -0.54688,2.26744 -0.22231,0.7615 -0.0778,1.56269 -0.14319,2.34261 -0.25092,0.7076 -0.54823,1.40103 -0.85373,2.08594 -0.0397,-0.74022 -0.0289,-1.48328 -0.0532,-2.22349 -0.0887,-1.84771 0.13365,-3.68974 0.18412,-5.53603 0.0587,-0.59558 -0.19499,-1.1628 -0.4173,-1.69457 -1.64474,-1.74986 -3.18034,-3.61316 -4.63142,-5.54028 -0.4337,-0.66648 -0.81554,-1.36841 -1.18511,-2.07459 1.65699,0.8806 3.27307,1.84345 4.91641,2.74958 0.40776,0.14038 0.85099,0.10068 1.27376,0.16165 0.16504,-0.28219 0.34231,-0.55586 0.48689,-0.8494 -0.18685,-0.8565 -0.57416,-1.66053 -0.806,-2.5071 z"
       id="path135"
       style="display:inline;opacity:0.272848;fill:#000000;stroke-width:0.139064" />
    <path
       d="m 243.21426,149.41046 c 1.08146,-0.77709 2.10838,-1.635 3.19395,-2.405 -0.21957,0.72746 -0.48823,1.43789 -0.731,2.15825 -0.23185,0.44811 0.24685,0.80687 0.39963,1.19258 0.42823,-0.0539 0.87826,-0.0127 1.29149,-0.1574 1.642,-0.91038 3.25942,-1.86756 4.91368,-2.75241 -0.39277,0.7317 -0.77873,1.47333 -1.24511,2.15825 -1.42927,1.86189 -2.8953,3.7025 -4.52503,5.38005 -0.24818,0.40698 -0.37642,0.89053 -0.48962,1.35565 0.0232,1.18122 0.0737,2.36245 0.13778,3.54227 0.0927,1.54708 -0.056,3.09416 -0.11186,4.63982 -0.34642,-0.68633 -0.68873,-1.37833 -0.98057,-2.09019 -0.0695,-0.67498 0.0422,-1.35848 -0.0682,-2.02921 -0.0968,-0.60409 -0.21,-1.20534 -0.30545,-1.80943 -0.0573,-0.32756 -0.0859,-0.67923 -0.28911,-0.95008 -0.46917,-0.69768 -0.90693,-1.41946 -1.40335,-2.09445 -0.41185,-0.25099 -0.85373,-0.45661 -1.30238,-0.62252 -1.16877,0.21129 -2.05115,1.0763 -3.074,1.62223 -0.69962,0.19995 -1.4101,0.35452 -2.11791,0.51476 -0.75827,0.0695 -1.522,0.017 -2.28027,0.027 0.83465,-0.83522 1.61473,-1.73851 2.54072,-2.47022 1.23697,-1.02525 2.47119,-2.05474 3.66723,-3.13104 0.84961,-0.79977 1.84792,-1.39535 2.77938,-2.07884 z"
       id="path137"
       style="display:inline;opacity:0.272848;fill:#000000;stroke-width:0.139064" />
    <path
       fill="#ffffff"
       d="m 185.12815,150.00462 c 0.63961,1.21385 1.23696,2.45037 1.80431,3.70109 0.5073,1.14577 1.14831,2.21781 1.73199,3.32105 0.23592,0.46795 0.56735,0.90187 0.65462,1.43789 0.17865,0.90046 0.42142,1.78815 0.56868,2.69428 -0.0258,1.12025 -0.16499,2.23482 -0.22638,3.35366 1.06104,-0.98127 2.29249,-1.86613 2.90896,-3.2388 0.13092,-0.60266 0.28499,-1.20108 0.38185,-1.81083 -0.1214,-1.95123 -0.28912,-3.89962 -0.40777,-5.85226 0.82779,2.48299 1.77153,4.92628 2.65798,7.38941 0.28912,0.63812 -0.007,1.34289 0.0927,2.00937 0.13232,0.94866 0.2987,1.89166 0.42962,2.84175 0.12,1.2266 0.19639,2.45746 0.29185,3.68691 0.32184,2.72547 0.8496,5.45236 0.69415,8.21046 -0.30138,1.0692 -0.74327,2.09303 -1.04739,3.16222 -0.16498,1.01249 -0.30684,2.02923 -0.45142,3.04454 0.0819,0.31338 0.38736,0.51335 0.56601,0.77709 0.67234,-0.72321 1.29418,-1.50454 1.80019,-2.36104 0.30138,-0.88344 0.55229,-1.78673 0.83595,-2.67584 0.19231,0.67073 0.53461,1.34855 0.40503,2.06608 -0.10499,0.86642 -0.0982,1.74986 -0.25092,2.6092 -0.3955,0.90755 -0.84554,1.78814 -1.2533,2.69003 -0.19505,0.39704 -0.33823,0.83947 -0.65735,1.15286 -1.01052,1.08055 -2.03064,2.15259 -2.9853,3.28701 -0.56868,0.68635 -1.20423,1.31595 -1.68699,2.0746 -0.36277,0.5658 -0.81692,1.07913 -1.06918,1.71583 -0.16366,0.38713 -0.33005,0.77567 -0.49782,1.1628 0.29597,0.66647 0.57142,1.34288 0.84966,2.01787 0.61642,-0.33466 1.2765,-0.59984 1.81926,-1.0607 0.66147,-0.54453 1.36381,-1.03801 1.99796,-1.61515 0.26865,-0.54594 0.42004,-1.14434 0.68049,-1.69312 0.24417,-0.33465 0.58235,-0.57998 0.87693,-0.86217 0.30277,0.45377 0.80326,0.81679 0.85646,1.40811 0.10226,0.64947 0.32458,1.29752 0.21684,1.964 -0.0818,0.68774 -0.0381,1.38825 -0.15684,2.07033 -0.54962,1.21952 -1.20692,2.38089 -1.89838,3.51958 -0.25365,0.35734 -0.27139,0.81112 -0.33139,1.23511 -0.12819,1.08764 -0.33277,2.16393 -0.45549,3.25299 0.37777,1.24646 0.93553,2.43336 1.32696,3.6784 -0.21958,1.45349 -0.44869,2.90982 -0.47462,4.38602 0.72827,0.77992 1.54514,1.48327 2.28841,2.25608 -0.5673,0.6353 -1.06238,1.34715 -1.72106,1.89027 -0.60555,0.49773 -1.13465,1.08338 -1.63927,1.68747 -0.84553,1.01388 -1.80973,1.90868 -2.74118,2.83466 0.46776,-1.79665 0.85373,-3.61458 1.34603,-5.40417 0.3505,-1.21383 0.54008,-2.46737 0.776,-3.70674 0.13638,-1.35423 0.14592,-2.72266 0.0955,-4.0797 -0.19093,-0.74448 -0.4023,-1.48327 -0.64096,-2.21074 -1.21103,-2.75809 -2.68257,-5.39848 -3.63176,-8.27284 -0.55369,-1.4549 -0.70508,-3.02611 -0.96692,-4.55333 0.12958,-0.98555 0.31364,-1.96541 0.48961,-2.94386 0.28092,-0.71044 0.63416,-1.3911 0.98326,-2.06751 0.76781,-1.13302 1.56288,-2.24617 2.38115,-3.33949 0.45823,-0.57856 0.65188,-1.31309 0.96558,-1.97532 0.40364,-0.80262 0.42684,-1.72576 0.60823,-2.59502 0.16365,-1.1316 0.56735,-2.22349 0.58234,-3.37636 0.009,-0.57147 0.10639,-1.1401 0.0873,-1.71016 -0.35458,-1.63783 -0.881,-3.23738 -1.06238,-4.91209 -0.39684,-1.50454 -0.68595,-3.05304 -1.29284,-4.48668 -0.20597,-0.10494 -0.44869,-0.044 -0.66827,-0.0666 -0.59189,1.85906 -0.851,3.81596 -1.55061,5.63814 -0.48143,0.45235 -1.02419,0.83523 -1.54788,1.23369 -0.46096,0.0879 -0.94785,0.0624 -1.41288,0.0142 -0.37778,-0.21839 -0.75828,-0.44244 -1.10331,-0.71187 -0.49369,-0.85222 -0.67781,-1.84203 -0.78415,-2.81764 0.23999,-1.0295 0.73235,-1.97675 1.23831,-2.89138 0.29591,-0.69912 0.56048,-1.41096 0.82779,-2.1214 0.50458,-2.62763 -0.0819,-5.30631 -0.82239,-7.82333 -0.4391,-1.11033 -0.91918,-2.21073 -1.6624,-3.14238 -0.15824,0.46937 -0.23598,0.96568 -0.4187,1.42797 -0.63688,1.38684 -1.33922,2.74107 -2.08384,4.06978 -0.28643,0.49064 -0.50188,1.05643 -0.97511,1.39252 -0.82239,0.76857 -1.7102,1.44923 -2.65258,2.04906 0.90012,0.86501 1.86977,1.64209 2.87623,2.36813 -1.37469,0.14038 -2.62939,-0.60692 -3.97541,-0.74589 -0.41457,-0.0355 -0.83466,-0.15031 -1.24923,-0.0893 -0.43097,0.35167 -0.86466,0.71611 -1.23697,1.13301 -0.23045,0.49916 -0.42276,1.02099 -0.57956,1.54992 0.18138,0.94017 0.75548,1.73285 1.43602,2.3497 0.65462,0.3304 1.27923,0.78559 2.02251,0.86217 0.97645,0.14464 1.94337,0.36585 2.8803,0.69484 0.37096,0.268 0.72961,0.57005 1.04331,0.91038 0.42823,0.87776 0.75007,1.81367 1.27649,2.63898 0.31092,0.73028 0.98734,1.14434 1.53149,1.66619 0.2755,0.2198 0.51282,0.5814 0.90285,0.55018 1.46742,0.0865 2.93211,0.21413 4.39679,0.3446 -0.5291,0.39137 -1.02965,0.83382 -1.59422,1.16705 -0.76099,0.25809 -1.5356,0.47505 -2.30754,0.69059 -2.34568,-0.24249 -4.67775,-0.61969 -6.98524,-1.12309 0.64642,1.09898 1.48107,2.08452 1.97471,3.27709 0.22505,0.51333 0.48416,1.01106 0.69694,1.53007 0.19772,0.57147 0.31638,1.16988 0.4923,1.74986 0.25231,0.77426 0.12138,1.60381 0.19365,2.405 0.0873,0.93591 -0.23865,1.83493 -0.37365,2.74958 -0.15004,1.14862 -0.64781,2.19797 -1.07057,3.25724 -0.26185,-1.32445 -0.43504,-2.67017 -0.47462,-4.02157 -0.0232,-0.39421 0.005,-0.80119 -0.12953,-1.17554 -0.30004,-0.89762 -0.47597,-1.8548 -1.00378,-2.64891 -0.43638,-0.95434 -1.18237,-1.68605 -1.89292,-2.41776 -0.9028,-0.4566 -1.87245,-0.76574 -2.77938,-1.21526 -0.90006,-0.5346 -1.76333,-1.13443 -2.66752,-1.65911 1.37195,1.65769 2.83118,3.25441 4.02314,5.05958 0.44184,1.32444 1.00239,2.62195 1.21104,4.01731 0.0982,0.70901 0.42957,1.42371 0.20453,2.14265 -0.63142,2.82758 -0.97099,5.74024 -0.79508,8.64296 0.4037,0.66507 0.8524,1.30035 1.28877,1.94272 0.89872,0.99689 1.95296,1.83778 2.83396,2.8531 1.32557,1.93846 2.86665,3.70251 4.19634,5.63955 0.44461,-0.35593 0.92326,-0.66931 1.33649,-1.06495 0.28777,-0.4722 0.4555,-1.00964 0.70781,-1.5017 0.44462,1.20675 0.42004,2.50851 0.40916,3.77908 -0.16778,0.56295 -0.36143,1.12309 -0.59462,1.66193 -0.28638,0.37437 -0.62054,0.70761 -0.92053,1.07062 -0.80193,-0.83239 -1.75385,-1.51588 -2.41119,-2.48867 -0.75828,-0.95859 -1.4265,-1.99802 -2.28435,-2.86586 -0.58229,-0.62394 -1.16604,-1.24646 -1.74973,-1.86756 -0.34365,-0.35451 -0.64234,-0.78275 -1.10325,-0.97845 -1.00785,-0.50624 -1.9775,-1.09756 -2.99896,-1.56552 -1.20969,-0.17865 -2.42347,-0.33607 -3.63584,-0.49771 -2.12889,-0.078 -4.26999,0.18151 -6.39341,-0.0836 -0.50869,-0.0425 -1.01738,-0.0724 -1.52469,-0.12621 0.67095,-1.16137 1.38011,-2.31424 1.78519,-3.61175 -0.21823,-0.63244 -0.52508,-1.23228 -0.81826,-1.83069 -0.55369,-0.60408 -1.2233,-1.08764 -1.81112,-1.65769 1.10604,-0.0836 2.20662,-0.24956 3.3126,-0.3219 0.866,0.13189 1.71159,0.39138 2.57073,0.57006 1.73065,0.28644 3.16534,1.47334 4.86188,1.87323 0,-1.23795 -0.16773,-2.48157 0.005,-3.71526 0.14458,-1.32304 0.23324,-2.65174 0.32596,-3.98045 0.0273,-0.41549 -0.12004,-0.81111 -0.20184,-1.21101 -0.14458,-0.54594 -0.20319,-1.12309 -0.46097,-1.62791 -0.40369,-0.81537 -0.78146,-1.6435 -1.19196,-2.45463 -1.08279,-1.88741 -2.21336,-3.74362 -3.35487,-5.59275 -0.96965,-1.42939 -1.89291,-2.91691 -3.15988,-4.0868 -0.42957,-0.23539 -0.87006,-0.45944 -1.32696,-0.62677 -1.23011,-0.29778 -2.48073,-0.49771 -3.70676,-0.81112 -0.67096,-0.28361 -1.34196,-0.57288 -1.98972,-0.90613 -0.90012,-0.58281 -1.78112,-1.19966 -2.67031,-1.80091 0.42004,-0.12477 0.84554,-0.25525 1.28604,-0.27794 1.31881,-0.0809 2.63484,-0.22972 3.95495,-0.29495 1.12243,0.0199 2.24754,-0.0369 3.36719,0.0298 1.19876,0.22548 2.41526,0.37153 3.60037,0.65798 0.91512,0.40556 1.95024,0.58706 2.72757,1.26914 0.54416,0.42968 1.11285,0.82247 1.64608,1.26773 0.79234,0.73739 1.53968,1.52582 2.30476,2.29298 0.45549,0.23963 0.99831,0.26234 1.48653,0.42257 0.0206,-0.52184 0.0778,-1.04226 0.075,-1.5641 -0.35865,-1.24646 -0.95466,-2.39649 -1.6038,-3.50256 -0.77734,-1.14152 -1.58741,-2.26886 -2.22842,-3.49974 -0.23046,-0.77992 -0.48003,-1.55701 -0.65461,-2.35253 0.0968,-0.60976 0.18824,-1.22377 0.34369,-1.82077 0.20865,-0.42541 0.42823,-0.87209 0.75142,-1.21526 1.22062,-0.74021 2.493,-1.37833 3.74903,-2.04764 0.98878,-0.61543 1.95977,-1.2649 2.89669,-1.96257 0.23185,-0.17868 0.50457,-0.33324 0.63823,-0.61259 1.05011,-2.05759 2.2898,-4.01023 3.24579,-6.12027 0.39416,-1.15574 0.74874,-2.32704 1.15244,-3.4799 z"
       id="path139"
       style="display:inline;opacity:0.272848;fill:#000000;stroke-width:0.139064" />
    <path
       d="m 211.58001,153.80071 c 0.58368,-1.28332 1.19331,-2.55247 1.84931,-3.7975 0.41731,1.18689 0.77328,2.39648 1.19192,3.58339 0.72827,1.52439 1.54381,3.00199 2.38254,4.46257 0.34916,0.5899 0.59869,1.24504 0.99558,1.80233 1.03779,0.83664 2.1575,1.55843 3.27307,2.27737 1.3051,0.71611 2.658,1.35139 3.91268,2.15968 0.25773,0.36018 0.4937,0.74587 0.67776,1.15428 0.15412,0.59699 0.24685,1.21243 0.3437,1.8236 -0.13772,0.68349 -0.37504,1.34147 -0.54689,2.01788 -0.12272,0.52609 -0.46503,0.94725 -0.72553,1.40386 -0.48957,0.84373 -1.07465,1.6194 -1.61195,2.4277 -0.6492,1.10607 -1.24376,2.25752 -1.6038,3.50256 0,0.52183 0.0546,1.04226 0.0764,1.5641 0.46916,-0.1333 0.95193,-0.21271 1.41562,-0.36586 0.85373,-0.80969 1.63788,-1.70164 2.52434,-2.4759 0.68461,-0.51616 1.35562,-1.0536 2.05522,-1.54707 0.57143,-0.28787 1.18785,-0.46797 1.777,-0.71612 0.66142,-0.29921 1.38969,-0.33891 2.09203,-0.47646 0.7092,-0.11203 1.41428,-0.2751 2.12889,-0.35167 1.68288,-0.009 3.36714,-0.0539 5.0446,0.1262 1.1115,0.14181 2.26115,0.0581 3.33585,0.43959 -0.95193,0.63104 -1.87385,1.31595 -2.85303,1.90018 -0.821,0.34884 -1.60655,0.83381 -2.49574,0.97277 -1.00645,0.21696 -2.01703,0.40982 -3.01941,0.64521 -0.65055,0.27652 -1.37057,0.51192 -1.81112,1.12168 -1.05279,1.06069 -1.82199,2.36387 -2.67572,3.59189 -1.66787,2.75526 -3.4558,5.45521 -4.71183,8.45011 -0.18004,0.71611 -0.36004,1.43364 -0.49369,2.16109 0.0587,1.65344 0.22911,3.3012 0.39138,4.94755 0.0397,1.00823 -0.0586,2.01504 -0.0627,3.02327 1.42789,-0.34601 2.67439,-1.21385 4.06,-1.68464 1.12511,-0.24674 2.2393,-0.56154 3.37261,-0.75865 1.10603,0.0709 2.20661,0.23823 3.3126,0.32047 -0.52777,0.49065 -1.07872,0.95577 -1.61334,1.43791 -0.26865,0.2212 -0.36684,0.57713 -0.51823,0.88343 -0.16231,0.38997 -0.38731,0.75724 -0.49642,1.16988 0.40369,1.2961 1.11285,2.44896 1.78385,3.61034 -1.00378,0.0809 -2.00477,0.18434 -3.00988,0.24816 -1.59015,0.003 -3.18035,-0.0596 -4.76915,-0.0496 -1.29284,0.16874 -2.59661,0.31054 -3.87722,0.5431 -1.08692,0.56438 -2.1725,1.13584 -3.24169,1.73426 -0.82239,0.79553 -1.57654,1.67046 -2.373,2.49859 -1.14284,1.14436 -1.98976,2.55531 -3.03576,3.78759 -0.58916,0.57998 -1.2097,1.12734 -1.79473,1.71156 -0.30004,-0.363 -0.63415,-0.69484 -0.91919,-1.0706 -0.23458,-0.53744 -0.42823,-1.099 -0.59601,-1.66195 -0.0123,-1.27056 -0.0355,-2.57091 0.40916,-3.77766 0.25231,0.49064 0.42004,1.0295 0.70781,1.50029 0.41183,0.39563 0.89192,0.70902 1.33649,1.06495 0.81008,-1.15854 1.65974,-2.2873 2.54754,-3.38203 0.83466,-1.02666 1.47835,-2.22065 2.44527,-3.12678 0.59323,-0.61118 1.20423,-1.20534 1.78385,-1.83069 0.42276,-0.56864 0.74868,-1.20675 1.13052,-1.80375 0.2987,-0.40131 0.13912,-0.93591 0.17732,-1.40103 0.0397,-1.68746 -0.0614,-3.37352 -0.20046,-5.0539 -0.14592,-0.87351 -0.30278,-1.74419 -0.46096,-2.61344 -0.16092,-0.66223 0.15818,-1.30602 0.24685,-1.95265 0.23318,-1.41804 0.79507,-2.73824 1.25603,-4.08396 1.20284,-1.79666 2.65799,-3.39621 4.03268,-5.05106 -1.21377,0.67499 -2.30341,1.60097 -3.61264,2.08027 -0.60828,0.27226 -1.24104,0.48497 -1.83019,0.79552 -0.3437,0.30205 -0.62189,0.67357 -0.93832,1.00398 -0.58369,0.57288 -0.90146,1.35423 -1.30784,2.05899 -0.29869,0.75865 -0.51549,1.55417 -0.73507,2.3426 -0.0627,1.62933 -0.18278,3.2615 -0.51823,4.85821 -0.30143,-0.68633 -0.55508,-1.39535 -0.81827,-2.09728 -0.24277,-0.88202 -0.34916,-1.79666 -0.551,-2.6886 -0.1568,-0.63387 -0.0573,-1.28759 -0.0505,-1.92996 0.0191,-0.52893 -0.0289,-1.07205 0.13778,-1.58111 0.24272,-0.78277 0.36138,-1.61374 0.73368,-2.34828 0.30684,-0.6282 0.5687,-1.27908 0.89466,-1.89593 0.50462,-0.82104 1.06238,-1.60663 1.56561,-2.42768 -1.37061,0.25099 -2.72618,0.60125 -4.1118,0.75581 -0.93553,0.1177 -1.86974,0.26659 -2.80527,0.37294 -0.62873,-0.12478 -1.23149,-0.36159 -1.85065,-0.52041 -0.83599,-0.18435 -1.43061,-0.87068 -2.11935,-1.34289 1.55747,-0.15173 3.11901,-0.24958 4.67776,-0.38004 0.53601,-0.38288 0.99286,-0.87636 1.50289,-1.2961 0.4255,-0.34032 0.62054,-0.87635 0.90285,-1.33295 0.41597,-0.69059 0.65189,-1.47619 1.02419,-2.19088 0.45276,-0.43959 0.90966,-0.96852 1.55334,-1.07629 0.78008,-0.251 1.58334,-0.40698 2.39074,-0.53176 0.73507,-0.0794 1.35284,-0.5346 2.00199,-0.85934 0.68054,-0.61685 1.25469,-1.40953 1.43607,-2.34969 -0.15684,-0.52894 -0.34911,-1.05078 -0.57961,-1.54851 -0.37365,-0.41831 -0.80735,-0.78275 -1.2383,-1.13443 -1.36789,-0.0553 -2.68253,0.42967 -3.99589,0.76574 -0.39956,0.11345 -0.8196,0.0709 -1.22737,0.0695 1.00506,-0.72604 1.97471,-1.50313 2.87617,-2.36813 -1.1033,-0.70335 -2.14248,-1.51873 -3.06715,-2.45889 -0.86733,-1.48894 -1.68426,-3.01191 -2.42067,-4.57602 -0.33685,-0.58564 -0.4405,-1.26489 -0.64236,-1.90443 -0.76374,0.96144 -1.25877,2.09587 -1.69653,3.2459 -0.62735,2.22774 -1.18923,4.55759 -0.89873,6.89452 0.0258,1.02099 0.57003,1.9101 0.89326,2.84884 0.50323,0.95576 1.04192,1.92145 1.28331,2.98923 -0.10634,0.97561 -0.29046,1.96541 -0.78415,2.81766 -0.34643,0.26942 -0.72554,0.49347 -1.10331,0.71185 -0.46642,0.0483 -0.95192,0.0724 -1.41288,-0.0142 -0.52369,-0.39848 -1.06646,-0.78134 -1.54788,-1.23228 -0.69961,-1.82361 -0.95873,-3.7805 -1.55061,-5.63955 -0.22231,0.0198 -0.46097,-0.0326 -0.66688,0.0638 -0.59735,1.39536 -0.87013,2.90842 -1.27104,4.37041 -0.18824,1.5726 -0.61914,3.09275 -0.99965,4.62282 -0.19365,0.59415 -0.0206,1.21667 -0.0139,1.82501 0.01,1.53574 0.55776,2.98782 0.73914,4.50229 0.10639,1.19257 0.67782,2.25185 1.15105,3.32105 1.30649,1.92144 2.91983,3.6869 3.67402,5.94586 0.14727,0.84231 0.285,1.68605 0.43092,2.52978 0.0846,0.43676 -0.064,0.86926 -0.12546,1.30035 -0.15407,0.79126 -0.26185,1.59103 -0.43503,2.37947 -0.88373,2.98498 -2.25296,5.77852 -3.67538,8.5196 -0.55781,0.97561 -0.87966,2.06749 -1.22877,3.13528 -0.0995,1.55276 -0.0216,3.12111 0.33824,4.63699 0.26999,1.37551 0.60276,2.73541 0.99419,4.07971 0.40364,1.48186 0.73095,2.98355 1.12918,4.46683 -1.07465,-1.05219 -2.1561,-2.10296 -3.11488,-3.27427 -0.63549,-0.81112 -1.51514,-1.3599 -2.1561,-2.16393 -0.27277,-0.32614 -0.54281,-0.65372 -0.81966,-0.97278 0.74193,-0.77425 1.5602,-1.47617 2.28842,-2.25609 -0.0448,-1.33295 -0.18139,-2.66167 -0.42684,-3.97053 -0.15685,-0.53176 0.18138,-1.0068 0.33276,-1.49036 0.30685,-0.87209 0.68735,-1.71866 0.94647,-2.60493 -0.18546,-1.36275 -0.37504,-2.72974 -0.59188,-4.08822 -0.58509,-1.13586 -1.30517,-2.19938 -1.837,-3.37069 -0.48282,-0.73312 -0.27957,-1.65769 -0.40236,-2.48582 -0.12953,-0.70903 0.0846,-1.40101 0.20458,-2.09019 0.049,-0.59275 0.55236,-0.95718 0.8578,-1.4152 0.27551,0.25807 0.57009,0.4963 0.821,0.78275 0.34644,0.57147 0.42963,1.29467 0.80601,1.84771 1.19057,0.95433 2.33888,2.00369 3.74769,2.6021 0.27684,-0.6764 0.55229,-1.35139 0.8496,-2.01787 -0.35184,-0.78985 -0.62595,-1.62933 -1.17284,-2.30431 -0.776,-1.24788 -1.79472,-2.29157 -2.73299,-3.40189 -0.83192,-0.97561 -1.76065,-1.86047 -2.58165,-2.84317 -0.57008,-1.16847 -1.12104,-2.3497 -1.66112,-3.53376 -0.15546,-0.85933 -0.14866,-1.74136 -0.25226,-2.6092 -0.12958,-0.71752 0.21138,-1.39535 0.40503,-2.06608 0.28227,0.88911 0.53323,1.78815 0.83461,2.67158 0.50463,0.85934 1.12924,1.64068 1.80159,2.3653 0.18952,-0.2439 0.42276,-0.45802 0.57141,-0.73312 -0.12411,-0.74448 -0.28369,-1.48186 -0.41322,-2.22351 -0.19365,-1.4223 -0.93827,-2.66874 -1.34196,-4.0244 -0.0191,-0.85223 -0.0355,-1.70874 0.0134,-2.55956 0.25231,-1.71017 0.50461,-3.42032 0.7978,-5.12197 0.18546,-1.39961 0.22777,-2.81481 0.39416,-4.21583 0.13227,-0.94868 0.30546,-1.89025 0.44184,-2.83751 0.10366,-0.67073 -0.18139,-1.37833 0.105,-2.01787 0.88919,-2.49717 1.88338,-4.95464 2.67711,-7.48726 -0.13505,1.98526 -0.29323,3.9691 -0.42003,5.95294 0.10906,0.64521 0.25638,1.28616 0.41457,1.92003 0.2823,0.4949 0.62322,0.95576 0.97784,1.39818 0.61503,0.59417 1.26557,1.15147 1.89838,1.73002 -0.0614,-1.12026 -0.20184,-2.23342 -0.22638,-3.35367 0.14726,-0.90613 0.38864,-1.79524 0.56869,-2.69428 0.0858,-0.53602 0.41731,-0.96993 0.65461,-1.43931 0.56601,-1.07203 1.19197,-2.11287 1.687,-3.22461 z"
       id="path141"
       style="display:inline;opacity:0.272848;fill:#000000;stroke-width:0.139064" />
    <path
       fill="#ffffff"
       d="m 153.69441,177.68053 c 0.60281,-0.0893 1.19876,-0.22689 1.80565,-0.27794 1.17011,0.0596 2.34027,0.16024 3.50899,0.25242 0.51009,0.25099 0.99558,0.56437 1.46881,0.88486 0.3587,0.41265 0.64101,0.89054 0.96418,1.33438 -1.10872,0.23965 -2.22702,0.44385 -3.36033,0.49065 -0.65461,-0.044 -0.97918,0.64378 -1.40741,1.03658 0.21958,0.37295 0.37364,0.79127 0.63687,1.13727 0.58504,0.48639 1.2615,0.84941 1.83427,1.35282 0.28777,0.73454 0.60827,1.46341 0.83326,2.22064 -0.17319,1.12168 -0.45411,2.23342 -0.95326,3.24732 -0.66142,0.72888 -1.41015,1.37124 -2.07296,2.10012 -0.29184,0.26659 -0.45823,0.63386 -0.63276,0.98695 0.72008,0.10069 1.43329,0.2907 2.15884,0.32899 1.25742,-0.4878 2.50252,-1.02099 3.6631,-1.72717 1.26016,-0.61118 2.22022,-1.69881 3.42172,-2.40784 0.61781,-0.38003 1.22058,-0.78559 1.84519,-1.15145 -0.19772,0.77567 -0.4105,1.54709 -0.60962,2.32275 -0.0438,0.19994 -0.15545,0.37295 -0.28364,0.52752 -0.79507,0.97277 -1.57654,1.95689 -2.38115,2.92258 -0.33684,0.4013 -0.64235,0.84374 -1.0665,1.1557 -0.69003,0.51617 -1.31877,1.13585 -2.1043,1.50029 -1.71561,0.943 -3.46806,1.81084 -5.23006,2.65741 0.71869,0.50057 1.44283,0.99688 2.14656,1.52014 0.71601,0.60692 1.41696,1.23086 2.12343,1.85055 -0.98739,0.69198 -1.96796,1.39249 -2.94716,2.09586 -0.41729,0.32473 -0.95872,0.34883 -1.44422,0.49489 -1.65019,0.37437 -3.2772,0.84516 -4.91233,1.28191 -0.90146,-0.0241 -1.78112,-0.33465 -2.68119,-0.39421 -0.72827,0.17158 -1.44154,0.41548 -2.16976,0.59274 -0.3069,0.61827 -0.63688,1.22519 -0.92331,1.85621 -0.0968,0.59275 -0.0505,1.2025 -0.11453,1.80234 -0.0134,0.57431 -0.1582,1.16848 0.0216,1.73142 0.11046,0.41266 0.22231,0.82672 0.32457,1.24363 0.48004,-0.0114 0.9628,0.0369 1.44016,-0.027 1.66245,-1.63784 3.17348,-3.43449 4.76094,-5.14891 0.78827,-0.34174 1.61747,-0.58564 2.42754,-0.87209 0.87419,-0.21555 1.77292,-0.30347 2.65665,-0.47221 0.91233,-0.19144 1.84652,-0.15032 2.76979,-0.19994 -1.20418,0.58139 -2.4698,1.03233 -3.66445,1.63641 -0.86326,1.00397 -1.65019,2.0746 -2.45207,3.13246 -0.28097,0.31196 -0.19092,0.77283 -0.26597,1.16279 0.56735,-0.0198 1.14151,0.0411 1.70747,-0.0298 1.58065,-0.83097 3.06441,-1.84203 4.56729,-2.81481 0.50735,-0.35876 1.13197,-0.43392 1.70339,-0.62819 0.59322,-0.15456 1.16599,-0.42541 1.78519,-0.44101 1.03238,-0.0369 2.06337,-0.20562 3.09715,-0.11203 1.08005,0.11345 2.1629,0.19994 3.24441,0.30205 -2.31022,1.09614 -4.71049,2.00794 -6.90891,3.34374 -0.65462,0.50056 -1.32016,0.98696 -1.96524,1.5017 -0.43503,0.44527 -0.82914,0.93591 -1.21783,1.42656 -0.31092,0.54736 -0.5373,1.14152 -0.80188,1.71441 0.74054,0.0454 1.47288,0.20846 2.21615,0.22406 0.6205,-0.2425 1.18372,-0.62677 1.81107,-0.84799 0.55915,-0.0114 1.11691,0.0624 1.67746,0.0851 0,0.46371 0.14046,0.94724 0.0314,1.39962 -0.30958,0.48213 -0.62188,0.96283 -0.96831,1.41803 -0.46091,0.28927 -0.9478,0.56296 -1.45649,0.74306 -1.07331,0.0312 -2.14523,0.21412 -3.21988,0.13328 -1.87111,-0.19569 -3.74495,-0.3687 -5.62695,-0.38996 -1.13057,0.0298 -2.23795,-0.24249 -3.35765,-0.36301 1.42381,-0.85366 2.92262,-1.55701 4.42957,-2.23483 0.0614,-0.3219 0.12412,-0.6438 0.17731,-0.9657 -1.6488,0.26517 -3.30306,0.49065 -4.95872,0.70336 -0.76915,0.19286 -1.53288,0.44668 -2.26661,0.75155 -0.25912,0.36018 -0.48958,0.74731 -0.68188,1.15145 -0.165,1.11176 -0.35051,2.22634 -0.39685,3.35225 0.0422,0.86218 -0.57281,1.52298 -0.87965,2.27595 -1.41423,-0.0241 -2.83391,0.0581 -4.24546,-0.0483 -1.75926,-0.29071 -3.52945,0.0623 -5.29552,0.0766 1.28738,-0.90471 2.51068,-1.93703 3.93449,-2.60919 0.54276,-0.29352 1.10604,-0.5502 1.6338,-0.87208 0.32597,-0.68493 0.52509,-1.42657 0.81007,-2.1299 0.24825,-0.55872 0.18959,-1.18406 0.27005,-1.77681 0.11045,-1.52156 0.26865,-3.03886 0.3873,-4.56042 0.007,-0.71752 -0.0723,-1.43363 -0.0695,-2.15116 -2.26522,0.2113 -4.52364,0.48638 -6.78345,0.74163 1.62154,-1.01815 3.32354,-1.89876 4.96414,-2.88572 0.42143,-0.59132 0.7324,-1.28049 1.05011,-1.93846 -0.16772,-1.24788 -0.3941,-2.48866 -0.59729,-3.73086 0.66003,0.21695 1.32011,0.43959 1.97884,0.6608 1.20418,0.47362 2.50253,0.53318 3.75584,0.78843 1.65833,0.37011 3.36306,0.23682 5.04599,0.30204 0.81553,0.0624 1.61194,-0.16024 2.39748,-0.35025 0.50869,-0.24673 0.97651,-0.57714 1.45788,-0.87635 -0.52368,-0.22547 -1.02692,-0.5105 -1.5656,-0.69768 -1.01193,-0.20987 -2.03884,-0.34598 -3.04938,-0.56579 -3.59356,-0.99547 -7.17214,-2.06042 -10.68113,-3.34516 -0.89599,-0.21838 -1.53014,-0.95576 -2.24068,-1.51163 2.60752,0.36727 5.20691,0.80119 7.80624,1.22944 1.2697,-0.01 2.53939,-0.12195 3.80903,-0.1645 0.96558,-0.28502 1.91477,-0.64096 2.8653,-0.97986 0.89873,-0.44101 1.78385,-0.91322 2.67031,-1.3826 -3.04942,-0.0751 -6.09477,-0.25524 -9.13052,-0.55587 -2.508,-0.53316 -4.99141,-1.18974 -7.47347,-1.84062 2.23382,-0.24532 4.4759,-0.42682 6.71932,-0.55161 1.27238,-0.0596 2.54753,-0.10068 3.81583,-0.21271 1.36242,-0.35877 2.72758,-0.72036 4.08453,-1.10607 0.41457,-0.26092 0.69415,-0.71186 1.04739,-1.05644 0.83733,-0.85366 1.54654,-1.82644 2.28162,-2.77227 -0.16366,-0.84657 -0.34778,-1.68747 -0.49643,-2.53546 -1.04465,-0.39421 -2.06343,-0.90471 -3.16942,-1.0848 -0.47462,-0.0879 -0.93965,-0.22547 -1.41834,-0.28644 -0.96012,0.0865 -1.89431,0.43107 -2.86664,0.37578 -0.8592,-0.0411 -1.74159,0.10775 -2.57893,-0.15741 -0.75007,-0.19711 -1.5056,-0.36727 -2.25161,-0.57998 1.74426,-0.92598 3.48445,-1.8633 5.18237,-2.88146 0.97781,-0.62252 2.08523,-0.95718 3.13262,-1.42512 0.60961,-0.28505 1.28876,-0.30348 1.93652,-0.43252 z"
       id="path143"
       style="display:inline;opacity:0.272848;fill:#000000;stroke-width:0.139064" />
    <path
       d="m 239.9112,177.61672 c 1.39376,-0.0227 2.80118,-0.38855 4.18406,-0.0639 0.80188,0.15883 1.62562,0.21696 2.41388,0.44527 0.99692,0.4325 2.03338,0.77567 2.99489,1.29183 1.84245,1.09614 3.7163,2.13274 5.61055,3.12962 -0.746,0.2127 -1.50149,0.38287 -2.25023,0.57997 -0.93011,0.27936 -1.90791,0.10778 -2.85983,0.15741 -1.12511,0.0411 -2.23255,-0.61826 -3.34533,-0.22973 -1.33516,0.19427 -2.58439,0.71327 -3.82949,1.22518 -0.14871,0.84799 -0.33278,1.68889 -0.49643,2.53546 0.99279,1.33863 2.06477,2.61203 3.23353,3.78759 1.37877,0.42682 2.78479,0.77 4.17861,1.14719 1.2683,0.11203 2.54345,0.15315 3.81722,0.2127 2.24342,0.12622 4.48544,0.30489 6.71932,0.55163 -2.48206,0.65088 -4.96553,1.30743 -7.47486,1.84061 -3.03442,0.30064 -6.0811,0.48214 -9.12913,0.55587 1.24644,0.63104 2.44522,1.39394 3.7913,1.78106 0.75141,0.21413 1.46468,0.63955 2.26388,0.61402 1.09784,0.007 2.19156,0.14321 3.2908,0.13045 2.59799,-0.42683 5.19732,-0.86075 7.8049,-1.22801 -0.50322,0.43108 -1.01058,0.85933 -1.54653,1.2422 -2.71531,1.04934 -5.49737,1.90726 -8.27953,2.73965 -1.42649,0.37153 -2.8203,0.88486 -4.27953,1.1004 -0.62188,0.11912 -1.24922,0.20562 -1.86704,0.34033 -0.53868,0.18719 -1.04053,0.47222 -1.56421,0.69768 0.48003,0.29779 0.94646,0.62819 1.45515,0.87493 0.74049,0.17725 1.49195,0.39705 2.26114,0.35309 1.29965,-0.0326 2.60073,-0.0156 3.89903,-0.0936 1.35969,-0.21555 2.71665,-0.44951 4.0736,-0.68775 0.99012,-0.2992 1.96385,-0.65513 2.9485,-0.9742 -0.20458,1.24363 -0.43096,2.48441 -0.59869,3.73371 0.23045,0.55587 0.54957,1.06921 0.81961,1.60806 0.15685,0.40556 0.59055,0.52609 0.92192,0.73739 1.44015,0.83096 2.89531,1.63499 4.32458,2.48865 -2.27754,-0.26518 -4.55369,-0.53601 -6.8353,-0.75298 0.005,0.95434 -0.14593,1.91152 -0.0123,2.86302 0.17185,1.73144 0.27689,3.47277 0.46096,5.20281 0.30277,0.85366 0.58101,1.72715 0.94924,2.55389 1.13191,0.68491 2.39341,1.13585 3.4476,1.9583 0.70374,0.51049 1.42928,0.98978 2.1193,1.52298 -1.77292,-0.0142 -3.54991,-0.36729 -5.31737,-0.0738 -1.40469,0.1007 -2.81618,0.0227 -4.22226,0.0454 -0.26592,-0.57998 -0.62188,-1.12025 -0.836,-1.7215 -0.0654,-1.31169 -0.23184,-2.61488 -0.44049,-3.90953 -0.19506,-0.40274 -0.42412,-0.78844 -0.68189,-1.14862 -0.956,-0.36869 -1.93245,-0.76007 -2.95942,-0.84799 -1.42649,-0.1645 -2.84618,-0.38855 -4.26587,-0.60692 0.0518,0.32189 0.11453,0.64378 0.17593,0.96569 1.50694,0.67783 3.0071,1.37976 4.43091,2.23626 -0.80193,0.10068 -1.60108,0.22547 -2.40162,0.33323 -1.65972,0.0624 -3.32491,0.061 -4.97506,0.2666 -0.88239,0.0483 -1.76066,0.22689 -2.64572,0.16449 -0.59735,-0.0397 -1.19336,-0.0979 -1.79204,-0.11913 -0.65869,0.0241 -1.20284,-0.42965 -1.7688,-0.71185 -0.36004,-0.3446 -0.58235,-0.81963 -0.88373,-1.21527 -0.3955,-0.4637 -0.11185,-1.11174 -0.13093,-1.66052 0.55916,-0.0227 1.11692,-0.0964 1.67741,-0.0851 0.84013,0.2368 1.5602,1.05501 2.48619,0.80119 0.51143,-0.0724 1.0242,-0.13188 1.54108,-0.17726 -0.30411,-0.62393 -0.51549,-1.30744 -0.9178,-1.87182 -0.46096,-0.51333 -0.84692,-1.11458 -1.41015,-1.51589 -0.91646,-0.66647 -1.76746,-1.45065 -2.81216,-1.89875 -1.85879,-1.03659 -3.84856,-1.77681 -5.75648,-2.69995 1.717,-0.10494 3.43126,-0.45803 5.15372,-0.26802 0.7078,0.0865 1.44149,0.007 2.12342,0.26093 0.75822,0.26092 1.55608,0.4084 2.29384,0.72887 1.60112,1.00397 3.15446,2.0987 4.83053,2.97221 0.56323,0.0709 1.13738,0.01 1.70607,0.0298 -0.0778,-0.38996 0.0149,-0.85083 -0.26731,-1.16279 -0.80054,-1.05786 -1.58742,-2.1299 -2.45068,-3.13104 -1.1947,-0.60408 -2.46027,-1.05644 -3.66584,-1.63783 0.87414,0.0525 1.75653,0.003 2.62114,0.17441 0.67647,0.11486 1.35427,0.22973 2.03203,0.33608 0.87285,0.11203 1.68153,0.49631 2.51619,0.76291 0.28097,0.11628 0.62055,0.15173 0.82781,0.40981 1.52061,1.68888 3.00988,3.41323 4.61915,5.01136 0.47596,0.0624 0.96006,0.0156 1.44015,0.0241 0.12272,-0.57572 0.3355,-1.1316 0.41318,-1.71583 -0.0232,-0.90188 -0.12273,-1.79807 -0.135,-2.69853 0.0175,-0.346 -0.17318,-0.6367 -0.31777,-0.92882 -0.22092,-0.42824 -0.43096,-0.86217 -0.65188,-1.289 -0.72961,-0.17867 -1.44154,-0.41974 -2.17111,-0.59274 -0.54007,0.0284 -1.06783,0.17583 -1.60245,0.25525 -0.43365,0.0496 -0.87688,0.23681 -1.30923,0.0851 -1.59561,-0.45519 -3.19808,-0.88486 -4.81141,-1.26064 -0.44597,-0.12762 -0.93827,-0.16166 -1.31604,-0.4637 -0.97784,-0.70335 -1.95837,-1.40244 -2.94303,-2.09303 0.96419,-0.82246 1.86699,-1.73001 2.92257,-2.4291 0.44596,-0.31765 0.89326,-0.63387 1.34608,-0.943 -1.94616,-0.93308 -3.87861,-1.90018 -5.76746,-2.95236 -0.52642,-0.34458 -0.99419,-0.77283 -1.49607,-1.14862 -0.5373,-0.38429 -0.9028,-0.9515 -1.33103,-1.4464 -0.791,-0.97136 -1.59561,-1.93279 -2.35796,-2.92541 -0.30137,-0.84799 -0.47868,-1.74561 -0.7228,-2.61345 1.11691,0.70192 2.27341,1.34855 3.29353,2.20222 1.49469,1.25354 3.25261,2.11429 5.02961,2.84459 0.2673,0.0964 0.53188,0.28786 0.82919,0.23539 0.64502,-0.10352 1.2901,-0.21554 1.93518,-0.32473 -0.50462,-1.13727 -1.55473,-1.84913 -2.373,-2.72548 -0.42684,-0.32474 -0.54957,-0.8721 -0.73781,-1.35281 -0.29045,-0.71894 -0.40637,-1.49603 -0.54683,-2.2561 0.13772,-0.55729 0.40364,-1.07205 0.58776,-1.61374 0.11866,-0.25241 0.14731,-0.58281 0.39416,-0.74304 0.55095,-0.42117 1.14557,-0.77852 1.6856,-1.21669 0.26185,-0.346 0.41596,-0.76432 0.63688,-1.13868 -0.42957,-0.39138 -0.75414,-1.07914 -1.40741,-1.03518 -1.13331,-0.0468 -2.24889,-0.25099 -3.35487,-0.49064 0.43229,-0.55587 0.72141,-1.29042 1.37468,-1.61231 0.46236,-0.23253 0.86873,-0.67071 1.41562,-0.64518 z"
       id="path145"
       style="display:inline;opacity:0.272848;fill:#000000;stroke-width:0.139064" />
    <path
       fill="#ffffff"
       d="m 172.42729,209.93104 c 0.67642,-0.10067 1.34743,-0.24957 2.02931,-0.32048 0.70234,-0.01 1.40468,0.0213 2.10842,0.0496 -0.61373,0.52042 -1.24382,1.01957 -1.86024,1.53431 -0.22364,0.1645 -0.31637,0.43959 -0.43364,0.68492 -0.20731,0.47504 -0.49369,0.93023 -0.53596,1.46342 0.075,0.33891 0.31912,0.62393 0.31638,0.98696 0.0832,1.22659 0.51689,2.51844 1.51654,3.25013 0.77053,0.31198 1.55741,0.57857 2.30748,0.94726 0.51416,-0.0737 1.02559,-0.19285 1.5247,-0.33891 0.35596,-0.22405 0.62188,-0.57289 0.93831,-0.84941 0.17452,-0.19143 0.42684,-0.34601 0.48003,-0.62251 0.17592,-0.77283 0.33411,-1.54994 0.51416,-2.31992 0.61234,0.41265 1.25196,0.78276 1.85471,1.21383 0.49643,0.42399 0.94374,0.91038 1.42928,1.35139 0.12,0.12479 0.34772,0.26093 0.23453,0.47788 -0.31091,1.37552 -0.93687,2.63332 -1.45788,3.9294 -0.30138,0.69767 -0.56184,1.41522 -0.88781,2.10153 -1.49334,-0.86217 -2.93895,-1.81652 -4.43091,-2.68009 -1.22196,-0.37153 -2.49026,-0.57289 -3.71222,-0.94158 -0.87414,-0.54879 -1.7306,-1.13585 -2.56934,-1.74134 -0.35869,-0.63672 -0.64507,-1.31453 -0.98192,-1.964 -0.39684,-0.74448 -0.56322,-1.58678 -0.8428,-2.37948 -0.41323,-0.97419 -0.11592,-2.04765 -0.13778,-3.07006 0.86739,-0.24673 1.69658,-0.64803 2.59665,-0.76289 z"
       id="path147"
       style="display:inline;opacity:0.272848;fill:#000000;stroke-width:0.139064" />
    <path
       d="m 221.99251,209.66019 c 0.70095,-0.0298 1.40195,-0.0581 2.1043,-0.0496 0.68188,0.0724 1.35556,0.2198 2.03476,0.32048 0.89874,0.11486 1.72788,0.51616 2.59526,0.76291 0.0149,0.78843 0.10366,1.5797 0.0682,2.36813 -0.36823,1.16705 -0.64508,2.3823 -1.23423,3.45718 -0.27278,0.52469 -0.5005,1.0763 -0.79647,1.58822 -0.54822,0.42966 -1.14964,0.78275 -1.7156,1.1869 -0.36957,0.23396 -0.70781,0.55302 -1.14284,0.64947 -0.88647,0.20987 -1.77292,0.42541 -2.65939,0.6367 -0.31911,0.0794 -0.65735,0.12195 -0.94238,0.30345 -1.42103,0.85651 -2.82031,1.75129 -4.25087,2.58651 -0.61648,-1.38117 -1.1633,-2.79495 -1.75792,-4.18463 -0.26458,-0.59132 -0.41462,-1.22519 -0.58916,-1.84629 -0.11592,-0.21697 0.11046,-0.3531 0.23459,-0.47788 0.4841,-0.44101 0.93145,-0.9274 1.43056,-1.35281 0.60142,-0.42966 1.24108,-0.79976 1.85338,-1.21242 0.17732,0.76433 0.3355,1.53575 0.51008,2.30291 0.0448,0.28644 0.30412,0.44384 0.4855,0.64095 0.31504,0.27652 0.58096,0.62394 0.93692,0.84799 0.49916,0.14748 1.01053,0.26376 1.52608,0.33891 0.74734,-0.37011 1.53561,-0.63528 2.30615,-0.94727 0.99419,-0.72887 1.43056,-2.01362 1.51375,-3.23454 -0.0325,-0.45802 0.43782,-0.8097 0.27551,-1.26632 -0.17865,-0.61401 -0.47323,-1.19683 -0.78281,-1.74701 -0.64508,-0.58568 -1.34603,-1.10185 -2.00337,-1.6719 z"
       id="path149"
       style="display:inline;opacity:0.272848;fill:#000000;stroke-width:0.139064" />
    <path
       fill="#ffffff"
       d="m 177.22917,211.93899 c 0.66276,-0.17442 1.41015,-0.10919 1.99658,0.27509 0.69007,0.64947 0.69141,1.71584 0.58641,2.60495 -0.10226,1.1784 -1.31742,2.18947 -2.44387,1.77255 -0.87419,-0.41549 -1.70205,-1.05362 -2.10976,-1.98526 -0.0366,-0.31764 -0.0366,-0.63954 0,-0.95434 0.40503,-0.80828 1.08964,-1.52014 1.97198,-1.71299 z"
       id="path151"
       style="display:inline;opacity:0.272848;fill:#000000;stroke-width:0.139064" />
    <path
       d="m 219.79135,211.99287 c 1.31057,-0.52042 2.97442,0.3219 3.26214,1.77823 0.1814,1.11316 -0.58229,2.1228 -1.48241,2.6248 -0.5605,0.37577 -1.34062,0.38145 -1.89704,-0.003 -1.18238,-0.68065 -1.59288,-2.41775 -0.88234,-3.60466 0.25777,-0.3531 0.57142,-0.68633 0.99965,-0.79552 z"
       id="path153"
       style="display:inline;opacity:0.272848;fill:#000000;stroke-width:0.139064" />
    <path
       fill="#ffffff"
       d="m 186.74561,219.45319 c 0.67508,-1.0366 1.33242,-2.08454 2.00477,-3.11969 -0.28505,1.42938 -0.46504,2.88713 -0.88513,4.2839 -0.1268,0.5048 -0.30138,0.99688 -0.38864,1.51163 0.0627,0.64946 0.14592,1.29891 0.26319,1.94128 0.20731,0.7147 0.42962,1.42798 0.66007,2.13701 0.32324,0.37435 0.74601,0.66221 1.15105,0.94156 0.55914,0.23256 1.12918,0.44385 1.70333,0.6353 1.68705,0.11342 3.44899,0 5.04465,0.69625 -1.15238,0.89336 -2.28161,1.82219 -3.31534,2.86303 -1.42654,1.84345 -2.85169,3.68833 -4.19772,5.59701 0.0149,-1.72433 -0.15412,-3.45576 0.0518,-5.17301 0.048,-0.56297 0.12552,-1.12736 0.11593,-1.69174 -0.0736,-0.64946 -0.195,-1.29183 -0.30819,-1.93421 -1.29557,-0.7629 -2.50933,-1.65911 -3.75856,-2.49858 0.44323,-1.54142 0.92326,-3.07147 1.32284,-4.62565 0.16772,-0.52609 0.21819,-1.10606 0.53595,-1.56409 z"
       id="path155"
       style="display:inline;opacity:0.272848;fill:#000000;stroke-width:0.139064" />
    <path
       d="m 209.82755,216.3959 c 0.74735,1.11882 1.48928,2.25184 2.17935,3.41038 0.54142,1.94839 1.07872,3.89962 1.66381,5.83522 -1.24924,0.84092 -2.46301,1.73711 -3.75862,2.50001 -0.11454,0.64238 -0.23593,1.28477 -0.30819,1.93421 -0.0109,0.56722 0.0682,1.13443 0.11593,1.70024 0.20457,1.71442 0.0355,3.443 0.0519,5.1645 -0.90285,-1.24788 -1.79065,-2.50712 -2.74938,-3.7096 -0.70647,-0.86925 -1.28608,-1.8633 -2.16162,-2.56665 -0.81687,-0.79127 -1.7156,-1.48043 -2.60207,-2.18378 1.38557,-0.59842 2.91031,-0.60833 4.38592,-0.65798 0.80594,0.0596 1.52196,-0.38712 2.26929,-0.62959 0.45143,-0.26234 0.8892,-0.59558 1.24377,-0.98554 0.45276,-1.36134 0.911,-2.75811 0.90286,-4.2116 -0.53597,-1.83635 -0.93693,-3.70674 -1.2329,-5.59982 z"
       id="path157"
       style="display:inline;opacity:0.272848;fill:#000000;stroke-width:0.139064" />
    <path
       fill="#ffffff"
       d="m 164.41781,221.09244 c 1.32149,-0.23963 2.64984,-0.42683 3.99453,-0.38712 -0.42003,0.57571 -0.80326,1.18265 -1.04192,1.86614 -0.19777,0.31481 0.0283,0.65938 0.15547,0.95434 0.45137,0.35168 0.96146,0.61685 1.45241,0.90755 3.0385,1.1713 6.2911,1.4634 9.46598,2.01504 1.34876,0.15029 2.70165,0.2595 4.04906,0.43108 -0.45822,0.96709 -1.12649,2.01787 -0.86326,3.14095 0.18959,0.0695 0.37911,0.20705 0.59189,0.14747 1.2233,-0.20136 2.45614,-0.34457 3.65083,-0.69626 0.1132,0.52753 0.36551,1.04228 0.29458,1.59813 -0.15412,2.45749 -0.24824,4.92628 -0.005,7.38091 0.005,1.56692 -0.0846,3.14238 -0.33823,4.68945 -0.22639,2.01221 -0.78827,3.95918 -1.31331,5.9033 -0.3573,1.20959 -0.58915,2.47023 -1.18376,3.58764 -0.8442,1.59814 -1.13604,3.41749 -1.77292,5.10212 -0.38184,0.99831 -0.53736,2.0675 -0.84693,3.08991 -0.43503,1.24645 -0.92053,2.47449 -1.34469,3.7252 -0.10227,1.12876 -0.09,2.26319 -0.0232,3.39478 -0.09,1.79523 -0.26453,3.58907 -0.24818,5.38996 -0.0627,1.16281 0.39956,2.25893 0.56322,3.39622 0.21411,1.41662 0.56055,2.80346 0.88373,4.19741 0.33003,1.63075 0.89058,3.20194 1.09511,4.86103 -0.75007,-0.42682 -1.52876,-0.80119 -2.25569,-1.26771 -1.02691,-0.82673 -2.03745,-1.67472 -3.10802,-2.43905 -0.63827,-0.41689 -1.02285,-1.10889 -1.51515,-1.67754 -0.84286,-0.96852 -1.79339,-1.83211 -2.6335,-2.79921 -0.42004,-0.82247 -0.86869,-1.64351 -1.10327,-2.54822 -0.1991,-0.72746 -0.48007,-1.43082 -0.63827,-2.16677 -0.0887,-1.11174 -0.26045,-2.22916 -0.12138,-3.3423 0.0859,-0.68635 0.0928,-1.37978 0.17592,-2.06325 0.33823,1.1259 0.51962,2.30148 0.87558,3.42314 0.36004,0.7161 0.71595,1.4379 1.10738,2.13698 0.40097,0.52042 0.89192,0.96001 1.32423,1.45633 0.54415,0.63812 1.28743,1.02808 1.93791,1.53292 0.29597,0.24532 0.66962,0.33323 1.02965,0.4339 0.17866,-0.44384 0.41597,-0.86217 0.56735,-1.31594 0.0641,-0.65372 0.0846,-1.31311 0.11593,-1.96683 -0.47869,-1.97532 -1.44969,-3.75497 -2.36754,-5.53743 -0.46091,-1.18974 -0.7978,-2.43053 -1.3283,-3.59333 -0.43916,-0.91179 -0.60961,-1.92144 -0.81007,-2.9098 0.0681,-0.55731 0.0422,-1.18975 0.40777,-1.64353 0.70914,-1.00823 1.36103,-2.06182 2.19295,-2.96795 1.55742,-1.86047 3.0453,-3.80462 4.25226,-5.93168 0.42003,-0.83521 0.99146,-1.57118 1.56695,-2.29438 -0.19499,1.34856 -0.41591,2.69428 -0.55095,4.05276 0.48142,-0.68063 0.76099,-1.48184 1.11011,-2.23624 0.36143,-0.86217 0.81146,-1.68746 1.06511,-2.59359 0.28231,-0.98979 0.69146,-1.94839 0.806,-2.98214 0.0927,-0.71186 0.25365,-1.41378 0.30824,-2.12847 -0.0248,-2.22491 -0.0723,-4.47393 -0.57282,-6.64636 -0.46504,-0.56013 -1.10738,-0.92457 -1.82472,-0.96571 -1.07192,1.77964 -2.42753,3.44443 -2.96076,5.50769 -0.10226,0.71326 -0.47596,1.32728 -0.82373,1.93563 -0.195,-0.78987 -0.40777,-1.57688 -0.56189,-2.37383 0.0165,-0.72744 0.0289,-1.46056 0.12958,-2.17952 0.43637,-1.116 0.90553,-2.22064 1.45649,-3.28134 0.34643,-0.66507 0.60689,-1.37409 0.85373,-2.08311 -0.0299,-0.36869 -0.29184,-0.68775 -0.40503,-1.03658 -0.69282,0.0737 -1.38289,0.20135 -2.02791,0.48212 -0.67648,0.30489 -1.41836,0.33892 -2.13709,0.45237 -0.95599,0.11912 -1.87925,0.40556 -2.81618,0.61685 -1.74153,0.34884 -3.23488,1.40103 -4.76641,2.26745 0.4473,-0.65797 0.95192,-1.27057 1.41834,-1.91294 0.49503,-0.78844 1.38284,-1.12166 2.09203,-1.65486 1.50835,-0.92596 2.84346,-2.12421 4.38319,-2.99773 -0.57008,-0.38996 -1.13331,-0.78983 -1.70339,-1.17837 -0.21412,-0.16167 -0.48137,-0.18718 -0.73368,-0.22831 -1.79339,-0.16876 -3.45719,-1.03092 -5.26145,-1.12594 -1.45654,-0.044 -2.91309,-0.0567 -4.36684,-0.15456 -1.06104,-0.0865 -2.12069,0.0525 -3.18034,0.0809 -0.72142,0.009 -1.42108,0.20418 -2.13023,0.3148 -0.80734,0.0922 -1.47968,0.60551 -2.22569,0.89053 0.99012,-1.02668 1.91478,-2.13841 3.04942,-2.99774 1.19738,-0.98555 2.49707,-1.86047 3.91542,-2.46031 0.51415,-0.22261 1.00646,-0.54026 1.57242,-0.59698 z"
       id="path159"
       style="display:inline;opacity:0.272848;fill:#000000;stroke-width:0.139064" />
    <path
       d="m 230.14519,220.70532 c 1.49061,-0.0397 2.96617,0.18293 4.42544,0.47646 0.76781,0.31057 1.51515,0.68066 2.26661,1.03375 0.93007,0.57998 1.87792,1.14435 2.71253,1.87038 1.16604,0.87352 2.11662,2.00937 3.12854,3.06157 -0.57282,-0.22548 -1.10058,-0.55872 -1.67746,-0.77001 -2.39208,-0.57856 -4.87275,-0.60692 -7.31261,-0.44101 -1.4333,0.10068 -2.8953,-0.0695 -4.30133,0.29779 -0.881,0.15882 -1.72519,0.47078 -2.58845,0.69767 -0.60416,0.1503 -1.23557,0.1503 -1.83292,0.3304 -0.64781,0.39849 -1.26424,0.85225 -1.88204,1.29893 0.96285,0.53603 1.84792,1.20108 2.73031,1.86896 0.80873,0.58565 1.6556,1.11318 2.48345,1.67046 0.37638,0.26092 0.80868,0.46795 1.07599,0.865 0.52509,0.72038 1.08831,1.41238 1.59561,2.14834 -1.33783,-0.76291 -2.63753,-1.63924 -4.10768,-2.10579 -1.23283,-0.28078 -2.44933,-0.65939 -3.70675,-0.80971 -0.6437,-0.0964 -1.30378,-0.14747 -1.90659,-0.42117 -0.64503,-0.28077 -1.3351,-0.4084 -2.02657,-0.48353 -0.11592,0.35025 -0.37364,0.66931 -0.40637,1.03657 0.29318,0.87352 0.64776,1.72433 1.08011,2.53262 0.41184,0.78986 0.72415,1.62933 1.08691,2.44329 0.26319,0.52468 0.19505,1.13443 0.24685,1.7059 0.15139,1.11599 -0.32184,2.17103 -0.53462,3.24447 -0.25365,-0.48779 -0.57957,-0.95008 -0.71734,-1.49177 -0.4405,-2.25892 -1.91611,-4.05419 -3.06576,-5.95861 -0.71188,0.0369 -1.32835,0.3999 -1.80839,0.93025 -0.36271,1.38968 -0.44183,2.8375 -0.54822,4.2683 0.0299,1.116 -0.15685,2.24478 0.0792,3.34658 0.16092,0.8636 0.20865,1.75553 0.49503,2.59076 0.35865,1.07488 0.62049,2.18947 1.12784,3.20477 0.51823,1.06637 0.88373,2.2235 1.54381,3.21045 -0.13366,-1.35705 -0.35596,-2.70278 -0.54962,-4.05133 0.60008,0.74731 1.18238,1.51871 1.61747,2.38513 1.36783,2.38231 3.07669,4.53065 4.84275,6.60383 0.55369,0.70618 1.02692,1.47477 1.552,2.20504 0.3655,0.45379 0.33684,1.08622 0.40777,1.64352 -0.19912,0.95009 -0.3505,1.92712 -0.7692,2.80912 -0.5073,1.13586 -0.87687,2.32843 -1.28877,3.50399 -0.7078,1.53148 -1.62699,2.97223 -2.1043,4.61147 -0.14457,0.50198 -0.4255,0.99547 -0.32869,1.53999 0.049,0.51193 0.0315,1.03091 0.10092,1.54283 0.15005,0.45379 0.3873,0.87209 0.56735,1.31594 0.35731,-0.10068 0.73235,-0.18717 1.02965,-0.43391 0.52509,-0.39989 1.09104,-0.74164 1.59288,-1.17414 0.46096,-0.4708 0.896,-0.96569 1.35427,-1.43788 0.41597,-0.40131 0.61642,-0.96571 0.89053,-1.46909 0.24685,-0.50908 0.5769,-0.98696 0.68601,-1.5556 0.25226,-0.96853 0.43911,-1.95548 0.72142,-2.91407 0.0832,0.71469 0.0941,1.43789 0.18412,2.15399 0.12138,0.99547 -0.0315,1.99377 -0.10093,2.98783 -0.033,0.54736 -0.26046,1.055 -0.40642,1.57686 -0.24546,0.73456 -0.39958,1.50738 -0.76369,2.19512 -0.2905,0.53603 -0.45962,1.16564 -0.92326,1.5797 -0.99012,1.05362 -2.06203,2.03062 -2.92536,3.20477 -0.53456,0.77993 -1.38422,1.20534 -2.0879,1.79099 -0.90693,0.66082 -1.68973,1.51591 -2.70305,2.00937 -0.49503,0.26516 -0.98465,0.54026 -1.47834,0.80969 0.19504,-1.62932 0.74327,-3.17357 1.0515,-4.77736 0.2482,-1.23087 0.5905,-2.4447 0.72962,-3.69685 0.13499,-1.14292 0.40369,-2.26603 0.51416,-3.41037 -0.0139,-1.56127 0.0505,-3.12253 0.0123,-4.68379 -0.0668,-1.59672 0.17725,-3.20903 -0.0654,-4.79441 -0.42143,-1.16705 -0.85512,-2.32983 -1.27516,-3.49688 -0.32865,-1.01817 -0.47184,-2.09303 -0.84554,-3.09559 -0.46916,-1.25922 -0.78961,-2.56949 -1.20696,-3.84715 -0.23452,-0.59131 -0.52096,-1.15995 -0.77735,-1.73994 -0.48549,-0.97277 -0.66007,-2.06607 -0.98052,-3.10125 -0.86328,-2.97647 -1.54247,-6.03233 -1.64608,-9.14919 -0.1637,-1.69883 0.21272,-3.39196 0.11319,-5.09077 -0.0258,-1.28049 -0.056,-2.55957 -0.15139,-3.83581 -0.0723,-0.55726 0.17866,-1.07059 0.29592,-1.59812 1.19331,0.34743 2.42615,0.4949 3.64812,0.69484 0.21138,0.0596 0.40096,-0.0766 0.59328,-0.14748 0.26318,-1.12308 -0.40643,-2.17243 -0.86333,-3.14095 1.68567,-0.23397 3.39039,-0.28786 5.06512,-0.59559 2.84211,-0.46652 5.73741,-0.79977 8.44993,-1.85052 0.48962,-0.2907 1.00105,-0.55588 1.45247,-0.90755 0.12407,-0.29497 0.35184,-0.63954 0.15546,-0.95434 -0.2387,-0.68351 -0.62189,-1.29045 -1.04197,-1.86616 z"
       id="path161"
       style="display:inline;opacity:0.272848;fill:#000000;stroke-width:0.139064" />
    <path
       fill="#ffffff"
       d="m 195.39604,231.85254 c 0.46643,-0.30771 0.93012,-0.61968 1.39516,-0.9274 0.29596,0.32048 0.66688,0.57574 0.90965,0.94441 0.23593,0.77285 0.46097,1.55277 0.66689,2.33694 -0.30277,2.22917 -1.35562,4.23994 -1.93245,6.39537 0.13092,1.39678 0.9028,2.58792 1.43603,3.84432 0.28503,0.51475 0.23323,1.12591 0.2973,1.69881 0.0273,0.98127 0.23046,1.95972 0.11458,2.94243 -0.39276,-0.55161 -0.57147,-1.23512 -0.99011,-1.76829 -0.56189,-0.71185 -1.08558,-1.46059 -1.53562,-2.25185 -0.42688,-1.45208 -0.83872,-2.91408 -1.20015,-4.38459 0.20051,-1.55134 0.57688,-3.07574 0.85238,-4.61289 -0.11731,-0.29068 -0.51415,-0.39562 -0.74599,-0.60124 -0.87961,0.44243 -1.86292,0.52327 -2.80665,0.72887 0.65054,-0.99405 1.15511,-2.11857 2.0375,-2.924 0.49503,-0.47931 0.91507,-1.05505 1.50148,-1.42089 z"
       id="path163"
       style="display:inline;opacity:0.272848;fill:#000000;stroke-width:0.139064" />
    <path
       d="m 201.76627,230.92514 c 0.7692,0.55587 1.65153,0.97138 2.28434,1.71018 0.5223,0.58989 1.15918,1.08479 1.55607,1.7853 0.36138,0.59418 0.74054,1.17698 1.09373,1.77681 -0.94373,-0.20562 -1.92839,-0.28644 -2.80665,-0.72887 -0.24818,0.16734 -0.50322,0.32614 -0.73915,0.51192 0.1432,1.15428 0.46911,2.28587 0.64235,3.44016 0.0573,0.52893 0.31231,1.07205 0.12819,1.60097 -0.36689,1.34998 -0.72007,2.70704 -1.12511,4.04425 -0.45009,0.79127 -0.97377,1.54142 -1.53567,2.25327 -0.41863,0.53317 -0.59868,1.21668 -0.99006,1.76972 -0.11184,-0.90188 0.0654,-1.79951 0.0982,-2.69854 0.0408,-0.51333 0.0505,-1.03091 0.14727,-1.53573 0.53189,-1.41805 1.46473,-2.7113 1.59834,-4.26122 -0.35458,-1.20533 -0.76235,-2.39224 -1.20965,-3.56212 -0.31504,-0.77993 -0.45688,-1.61657 -0.66688,-2.42768 -0.14046,-0.38289 0.048,-0.75866 0.14319,-1.12168 0.16639,-0.5346 0.29045,-1.08338 0.47184,-1.61231 0.24278,-0.3687 0.61235,-0.62395 0.90966,-0.94443 z"
       id="path165"
       style="display:inline;opacity:0.272848;fill:#000000;stroke-width:0.139064" />
    <path
       fill="#ffffff"
       d="m 157.22252,241.36475 c 1.1933,-1.37834 2.20522,-2.90557 3.21168,-4.43138 -0.0216,0.88345 -0.064,1.76689 -0.14046,2.64891 -0.24819,1.52865 -0.49915,3.08282 -1.16057,4.48952 -0.30958,0.58423 -0.63823,1.15711 -0.94373,1.74417 2.06337,-0.41831 4.0068,-1.26487 6.02111,-1.86896 -0.70647,0.95576 -1.35428,1.95547 -1.84792,3.05021 0.0134,0.27652 0.105,0.54168 0.15546,0.81537 1.11284,-0.19568 2.09203,-0.78559 3.13668,-1.18973 -0.34777,0.66081 -0.7896,1.26348 -1.12377,1.93279 -0.19226,0.50907 -0.3723,1.02383 -0.52503,1.54849 -0.0382,0.75583 -0.11046,1.54993 0.18958,2.26462 0.24138,0.96284 0.85234,1.74986 1.29418,2.61629 0.75966,-0.3616 1.49335,-0.78276 2.26114,-1.12592 0.63421,-0.21695 1.2765,-0.40415 1.91885,-0.5899 -0.52916,1.66195 -1.20011,3.27284 -1.67473,4.95462 -0.31498,1.13444 -0.74595,2.27881 -0.67235,3.47988 0.0248,0.81395 -0.09,1.6506 0.16639,2.43902 0.49782,1.89027 0.60555,3.84715 0.77466,5.78847 -0.7242,-1.26775 -1.46741,-2.52696 -2.13296,-3.8273 -0.56868,-1.65771 -1.37195,-3.23599 -1.71153,-4.97167 -0.11046,-0.97419 -0.21411,-1.94838 -0.23731,-2.92825 -0.76373,-0.19143 -1.51927,-0.41689 -2.28708,-0.58565 -1.24103,-0.17017 -2.49841,-0.20704 -3.72583,-0.48354 -1.17831,-0.27369 -2.38795,-0.34743 -3.57445,-0.5658 -1.50701,-0.64806 -2.95669,-1.4294 -4.39545,-2.22207 2.04837,-0.30488 4.11314,-0.0453 6.15471,0.17443 1.24104,0.2042 2.50393,0.1106 3.74903,0.007 0.67915,-0.0369 1.33789,-0.23114 1.97611,-0.46512 0.26324,-0.2907 0.36411,-0.7076 0.55781,-1.04793 -1.59973,-1.00255 -3.30992,-1.82502 -5.11692,-2.32134 -1.8493,-0.0652 -3.7081,0.0993 -5.54921,-0.15456 -1.7988,-0.12621 -3.60038,0.0453 -5.39784,0.0936 0.92327,-0.45662 1.87112,-0.86644 2.82165,-1.25498 1.92024,-0.37577 3.86362,-0.61258 5.81245,-0.75013 -0.41049,-0.3616 -0.79512,-0.76575 -1.24923,-1.06495 -1.70065,-0.30915 -3.41079,-0.55731 -5.13598,-0.65372 -0.99966,-0.29496 -1.97338,-0.69342 -2.94576,-1.07631 0.93145,-0.13471 1.86972,-0.20562 2.8053,-0.30627 2.24749,-0.3219 4.46771,-0.95153 6.49702,-2.02213 0.761,-0.62538 1.40876,-1.38261 2.0443,-2.13986 z"
       id="path167"
       style="display:inline;opacity:0.272848;fill:#000000;stroke-width:0.139064" />
    <path
       d="m 238.12328,236.93337 c 1.52195,2.32985 3.13529,4.63984 5.17552,6.51308 1.03378,0.62393 2.19156,0.97419 3.314,1.38401 1.97476,0.60691 4.03267,0.77282 6.07152,1.00253 -0.70916,0.30772 -1.44423,0.54171 -2.16157,0.8239 -0.86059,0.40131 -1.82339,0.2836 -2.73577,0.41689 -1.06919,0.11203 -2.1275,0.31906 -3.18848,0.48924 -0.45282,0.30204 -0.83874,0.70049 -1.24517,1.06495 1.39655,0.11485 2.79438,0.22405 4.17592,0.47221 0.71462,0.13754 1.4701,0.13613 2.13565,0.47646 0.7678,0.36303 1.5656,0.65797 2.31841,1.05645 -1.7974,-0.0496 -3.59899,-0.21979 -5.39783,-0.0922 -1.84107,0.25241 -3.69991,0.0879 -5.54922,0.15315 -1.807,0.49631 -3.51719,1.32021 -5.11692,2.32133 0.16365,0.33182 0.30958,0.67641 0.49235,1.00257 1.44015,0.65371 3.05484,0.57429 4.59457,0.62818 2.43841,-0.21979 4.8946,-0.66648 7.3426,-0.2978 -1.2465,0.69201 -2.50119,1.37126 -3.79681,1.95691 -0.8728,0.50196 -1.90379,0.38712 -2.85298,0.58847 -1.40062,0.26235 -2.79984,0.53886 -4.22226,0.62677 -1.06238,0.0639 -2.07157,0.44101 -3.10127,0.68348 -0.0791,1.3429 -0.0955,2.71839 -0.51416,4.00597 -0.24952,0.95859 -0.68735,1.84488 -1.02146,2.77228 -0.19504,0.50056 -0.33823,1.02807 -0.60275,1.49745 -0.64101,1.15995 -1.2929,2.31567 -1.96385,3.45578 0.1582,-1.41805 0.14046,-2.85452 0.38184,-4.26265 0.17319,-1.17414 0.39277,-2.34968 0.32051,-3.54369 0.10226,-1.73426 -0.3505,-3.42315 -0.77739,-5.08083 -0.44324,-1.26207 -0.89461,-2.51987 -1.3365,-3.78193 0.65462,0.19286 1.31335,0.37721 1.95564,0.61402 0.74054,0.33749 1.45248,0.74305 2.17796,1.11458 0.29051,-0.5658 0.60008,-1.12166 0.89466,-1.68604 0.63688,-1.60949 0.55782,-3.47278 -0.12685,-5.05248 -0.28092,-0.54736 -0.59869,-1.07205 -0.8578,-1.62933 1.04464,0.39987 2.0211,0.9898 3.13261,1.1869 0.0518,-0.25241 0.12,-0.49773 0.16092,-0.74731 -0.44596,-1.13727 -1.14558,-2.14124 -1.85199,-3.11969 1.11011,0.34034 2.20795,0.72037 3.30033,1.11742 0.88234,0.33466 1.81246,0.50339 2.72073,0.75154 -0.33551,-0.65229 -0.71328,-1.27765 -1.03646,-1.9342 -0.88775,-2.18944 -1.18506,-4.58735 -1.20825,-6.9484 z"
       id="path169"
       style="display:inline;opacity:0.272848;fill:#000000;stroke-width:0.139064" />
    <path
       fill="#ffffff"
       d="m 183.12616,288.64225 c 0.0109,-0.42399 0.19499,-0.82245 0.29591,-1.228 0.86739,1.02807 1.71019,2.11002 2.81485,2.87577 0.92465,0.20136 1.86704,0.31906 2.8135,0.34033 2.70164,0.0879 5.40737,0.44668 7.98216,1.33154 0.74327,0.58423 1.09784,1.49603 1.40469,2.37947 0.18685,1.91152 0.15005,3.83579 0.0709,5.75441 -0.0818,0.54736 -0.12272,1.11032 -0.27545,1.64209 -0.52096,0.13898 -1.05284,0.23256 -1.5752,0.36729 -0.57008,0.16307 -1.15918,0.0312 -1.7388,0.0269 -0.57554,-0.0468 -1.18784,0.0483 -1.7238,-0.22546 -0.72553,-0.33608 -1.47561,-0.61544 -2.19434,-0.9657 -0.50189,-0.36728 -0.97373,-0.78275 -1.42923,-1.20816 -0.49235,-0.62252 -0.91099,-1.30461 -1.38422,-1.94132 0.66549,0.19286 1.34463,0.35026 1.99657,0.59418 0.80868,0.38429 1.60381,0.79694 2.40702,1.19255 0.3805,0.20137 0.81559,0.22689 1.23016,0.30347 1.00646,0.173 2.01565,0.32615 3.01942,0.51475 0.19092,-0.67924 0.40364,-1.34998 0.58915,-2.0292 0.0778,-0.20847 -0.0438,-0.40982 -0.0968,-0.60126 -0.21958,-0.59132 -0.38457,-1.2011 -0.61915,-1.7839 -1.81385,-0.61543 -3.73811,-0.7303 -5.59829,-1.1316 -1.07877,-0.25525 -2.18888,-0.22547 -3.28266,-0.33749 -0.5305,-0.034 -1.00099,-0.31623 -1.49061,-0.49632 -0.48003,-0.21129 -0.98733,-0.363 -1.4483,-0.61401 -0.7978,-1.49744 -1.31608,-3.1211 -1.76745,-4.76036 z"
       id="path171"
       style="display:inline;opacity:0.272848;fill:#000000;stroke-width:0.139064" />
    <path
       d="m 212.32055,290.29002 c 1.10464,-0.76715 1.94752,-1.8477 2.81485,-2.87577 0.0955,0.48495 0.42142,0.9841 0.22777,1.48468 -0.25504,0.78984 -0.47188,1.59246 -0.73646,2.38088 -0.27138,0.65373 -0.57142,1.29751 -0.866,1.94273 -0.0709,0.25665 -0.35324,0.2921 -0.55231,0.39563 -0.72827,0.268 -1.42927,0.61544 -2.16708,0.84941 -1.16877,0.17584 -2.3648,0.0964 -3.52125,0.36727 -1.88751,0.41123 -3.8377,0.52468 -5.67608,1.1472 -0.25499,0.65655 -0.4541,1.33579 -0.69141,2.00085 -0.11319,0.22123 0,0.45945 0.056,0.6821 0.17319,0.57429 0.34091,1.15287 0.50869,1.73143 1.28876,-0.24532 2.58979,-0.42117 3.87856,-0.67216 0.76507,-0.29495 1.47695,-0.7232 2.22295,-1.0692 0.79374,-0.4495 1.6938,-0.60409 2.553,-0.86501 -0.38731,0.54029 -0.76781,1.08339 -1.14284,1.63218 -0.3355,0.50197 -0.84966,0.82104 -1.28197,1.22234 -0.48956,0.45661 -1.15103,0.60408 -1.73333,0.88911 -0.57008,0.21697 -1.11011,0.59133 -1.73885,0.57006 -0.68869,0.0114 -1.37469,0.0652 -2.06203,0.0851 -0.70369,-0.10068 -1.39511,-0.29352 -2.08791,-0.45095 -0.34917,-1.30317 -0.30684,-2.67159 -0.3369,-4.01304 -0.048,-1.13018 0.056,-2.25895 0.13232,-3.38345 0.3055,-0.88204 0.65869,-1.79098 1.40196,-2.37663 1.92564,-0.62679 3.91814,-1.08197 5.93791,-1.19685 1.62014,-0.17727 3.26621,-0.0865 4.86048,-0.47789 z"
       id="path173"
       style="display:inline;opacity:0.272848;fill:#000000;stroke-width:0.139064" />
  </g>
</svg>
