<?xml version="1.0" encoding="UTF-8" standalone="no"?>
<!-- Created with Inkscape (http://www.inkscape.org/) -->

<svg
   width="1920mm"
   height="1080mm"
   viewBox="0 0 1920 1079.9999"
   version="1.1"
   id="svg5"
   sodipodi:docname="turk.svg"
   inkscape:version="1.4.2 (ebf0e940d0, 2025-05-08)"
   inkscape:export-filename="Turk.png"
   inkscape:export-xdpi="96"
   inkscape:export-ydpi="96"
   xmlns:inkscape="http://www.inkscape.org/namespaces/inkscape"
   xmlns:sodipodi="http://sodipodi.sourceforge.net/DTD/sodipodi-0.dtd"
   xmlns="http://www.w3.org/2000/svg"
   xmlns:svg="http://www.w3.org/2000/svg">
  <sodipodi:namedview
     id="namedview7"
     pagecolor="#ffffff"
     bordercolor="#000000"
     borderopacity="0.25"
     inkscape:showpageshadow="2"
     inkscape:pageopacity="0.0"
     inkscape:pagecheckerboard="0"
     inkscape:deskcolor="#d1d1d1"
     inkscape:document-units="mm"
     showgrid="false"
     inkscape:zoom="0.16919929"
     inkscape:cx="4145.9985"
     inkscape:cy="2514.786"
     inkscape:window-width="1920"
     inkscape:window-height="1014"
     inkscape:window-x="0"
     inkscape:window-y="0"
     inkscape:window-maximized="1"
     inkscape:current-layer="layer1" />
  <defs
     id="defs2">
    <filter
       inkscape:label="Jigsaw Piece"
       inkscape:menu="Bevels"
       inkscape:menu-tooltip="Low, sharp bevel"
       style="color-interpolation-filters:sRGB;"
       id="filter2244"
       x="-0.001888731"
       y="-0.047597357"
       width="1.0037775"
       height="1.0951947">
      <feSpecularLighting
         in="SourceAlpha"
         surfaceScale="1"
         specularConstant="2"
         specularExponent="18.5"
         id="feSpecularLighting2236">
        <feDistantLight
           elevation="30"
           azimuth="225"
           id="feDistantLight2234" />
      </feSpecularLighting>
      <feComposite
         result="result0"
         operator="atop"
         in2="SourceGraphic"
         id="feComposite2238" />
      <feMorphology
         radius="2"
         result="result1"
         in="SourceAlpha"
         operator="dilate"
         id="feMorphology2240" />
      <feComposite
         in="result0"
         in2="result1"
         id="feComposite2242" />
    </filter>
  </defs>
  <g
     inkscape:label="Layer 1"
     inkscape:groupmode="layer"
     id="layer1">
    <rect
       style="fill:#ff0000;stroke-width:0.265339"
       id="rect1886"
       width="1920.5543"
       height="1085.481"
       x="0.57650441"
       y="-1.9330527" />
    <g
       transform="matrix(0.10330241,0,0,-0.09844235,599.25553,800.63091)"
       fill="#000000"
       stroke="none"
       id="g8"
       style="fill:#ffffff">
      <path
         d="m 3389,6824 c -1,-104 -4,-259 -8,-344 -7,-150 -9,-165 -81,-442 -41,-158 -78,-284 -81,-280 -4,4 -16,36 -27,72 -11,36 -57,180 -102,320 -45,140 -117,368 -161,505 -97,301 -101,313 -94,265 3,-19 24,-172 48,-340 37,-254 43,-318 37,-385 -4,-44 -15,-182 -26,-307 -10,-126 -21,-228 -24,-228 -5,0 -32,52 -265,505 -246,479 -306,595 -310,595 -3,0 -2,-6 0,-12 3,-7 48,-146 100,-308 l 95,-295 26,-300 c 14,-164 24,-308 22,-318 -3,-20 -21,2 -493,638 -249,336 -283,379 -243,305 14,-25 84,-160 156,-301 l 131,-256 76,-303 c 42,-166 74,-304 73,-305 -2,-2 -208,193 -458,433 -250,240 -450,430 -445,422 5,-8 94,-130 199,-270 l 190,-255 127,-290 c 69,-159 125,-291 124,-293 -2,-2 -43,25 -93,60 -50,35 -141,98 -204,140 -62,42 -244,166 -403,275 -349,238 -364,248 -312,199 21,-19 131,-124 244,-233 225,-216 182,-162 470,-603 44,-69 80,-126 79,-128 -2,-1 -52,21 -112,49 -60,28 -192,89 -293,136 -102,47 -235,108 -295,137 -284,134 -426,198 -426,191 0,-2 60,-44 132,-93 342,-230 406,-278 473,-352 37,-41 91,-100 119,-130 153,-164 237,-260 230,-260 -6,0 -248,66 -494,135 -47,13 -161,45 -255,70 -93,26 -233,64 -309,86 -77,21 -141,37 -143,35 -2,-2 52,-28 119,-59 419,-189 466,-214 577,-299 236,-181 386,-300 389,-309 2,-5 -9,-7 -25,-4 -15,3 -181,21 -368,40 -187,19 -380,39 -430,45 -191,21 -407,42 -410,38 -2,-1 140,-42 314,-90 l 318,-86 269,-147 c 148,-81 272,-150 276,-154 5,-4 -85,-13 -200,-19 -114,-7 -274,-17 -357,-22 -82,-6 -220,-15 -305,-20 -400,-25 -379,-23 -330,-32 25,-4 173,-21 330,-37 l 285,-29 235,-82 c 129,-45 262,-91 295,-103 48,-16 56,-22 40,-28 -11,-5 -200,-49 -420,-99 -220,-50 -434,-99 -475,-110 -41,-10 -128,-30 -193,-45 -65,-15 -117,-28 -115,-30 2,-1 93,3 203,11 467,31 454,32 784,-25 161,-28 295,-52 297,-54 2,-2 -126,-57 -284,-122 -158,-65 -333,-138 -390,-161 -57,-24 -107,-44 -113,-44 -5,0 -20,-6 -32,-13 -12,-8 -93,-43 -179,-78 -86,-35 -155,-65 -154,-67 2,-1 148,31 326,73 l 323,75 h 315 c 221,0 313,-3 306,-10 -6,-6 -58,-40 -115,-75 -57,-35 -135,-84 -174,-108 -158,-100 -596,-373 -673,-420 -45,-27 -81,-51 -79,-53 2,-2 138,52 303,120 l 300,125 308,51 c 170,28 310,49 312,48 1,-2 -79,-75 -178,-163 -100,-88 -186,-164 -192,-170 -6,-5 -69,-61 -141,-123 -71,-63 -148,-130 -170,-150 -22,-21 -88,-79 -147,-131 -60,-52 -108,-96 -108,-98 0,-3 40,22 364,224 l 198,125 306,104 c 206,70 300,98 290,87 -8,-10 -53,-65 -99,-123 -47,-58 -163,-201 -259,-319 -96,-118 -224,-276 -284,-350 -60,-75 -116,-145 -125,-156 -20,-25 56,40 295,251 l 191,169 273,148 c 150,81 275,145 278,143 5,-5 -341,-622 -396,-706 -20,-30 -37,-59 -38,-65 -1,-5 -34,-66 -74,-135 -82,-142 -107,-189 -92,-175 5,6 100,121 209,257 149,184 218,261 274,305 211,167 429,332 429,324 0,-9 -58,-168 -182,-501 -28,-74 -54,-146 -58,-160 -5,-14 -47,-130 -94,-259 -48,-129 -85,-236 -83,-237 2,-2 74,122 161,277 l 158,280 216,234 c 119,129 217,233 218,232 1,-1 -33,-191 -77,-422 -44,-231 -84,-447 -89,-480 -6,-33 -22,-118 -36,-189 -14,-71 -23,-130 -21,-132 2,-2 27,63 56,144 177,489 157,446 326,703 84,129 163,248 175,264 l 22,30 -6,-290 c -3,-159 -8,-441 -11,-625 l -5,-335 29,150 c 17,83 44,227 62,320 31,163 36,179 124,380 51,116 108,246 126,288 18,42 36,77 40,77 3,0 11,-37 17,-82 14,-102 138,-951 156,-1068 l 14,-85 2,65 c 1,36 6,191 10,345 l 7,280 72,275 c 39,151 75,283 79,293 6,14 19,-16 49,-110 23,-70 107,-335 188,-588 81,-253 149,-462 152,-465 3,-3 3,13 0,35 -74,483 -89,604 -83,685 11,165 46,543 50,547 9,9 396,-750 396,-776 0,-12 4,-20 9,-17 4,3 44,-64 87,-148 44,-85 80,-153 82,-151 2,2 -17,65 -42,141 -159,491 -154,470 -171,694 -9,113 -20,252 -25,310 -5,58 -7,106 -6,107 1,1 51,-64 111,-145 320,-431 636,-852 641,-852 2,0 -11,28 -29,63 -19,34 -87,166 -152,292 l -119,230 -77,308 c -76,303 -77,308 -51,285 28,-24 168,-157 377,-359 147,-142 342,-329 365,-349 10,-8 48,-44 85,-80 l 67,-65 -48,67 c -27,37 -118,159 -202,272 l -153,204 -125,287 c -69,158 -124,288 -122,290 2,1 131,-85 288,-192 157,-108 368,-252 470,-321 102,-69 208,-141 235,-159 51,-35 -103,120 -332,334 -79,74 -117,119 -173,206 -39,62 -116,181 -171,265 -55,85 -99,155 -97,157 2,1 172,-76 378,-172 485,-226 760,-352 760,-348 0,2 -1,3 -331,228 -212,144 -218,150 -355,299 -76,84 -172,188 -212,231 -40,44 -72,81 -70,83 4,3 488,-128 728,-197 58,-17 123,-35 145,-40 22,-4 103,-26 180,-48 77,-22 141,-38 143,-37 1,2 -39,22 -90,46 -51,23 -185,86 -298,138 l -204,95 -243,190 c -134,104 -245,192 -247,196 -3,4 30,3 72,-1 267,-28 763,-79 797,-83 22,-2 85,-9 140,-14 55,-6 129,-14 165,-17 36,-4 63,-4 60,-2 -3,3 -142,43 -310,88 -280,76 -314,87 -420,143 -256,135 -451,245 -443,250 4,2 60,8 123,11 359,21 772,47 890,56 75,5 160,11 190,11 47,1 40,3 -45,14 -55,7 -203,23 -330,35 l -230,22 -185,63 c -102,35 -241,83 -310,106 l -125,43 45,12 c 39,11 321,76 620,145 278,63 479,110 505,118 28,8 26,9 -20,10 -27,1 -117,-4 -200,-9 -417,-29 -346,-32 -688,26 -170,29 -310,54 -313,56 -5,6 9,12 281,124 216,88 275,113 500,207 72,30 183,76 247,102 65,27 116,50 115,51 -2,2 -138,-29 -302,-69 l -300,-72 -340,-2 -340,-3 95,60 c 52,34 214,135 360,226 146,90 321,200 390,243 69,43 148,93 175,110 28,17 46,31 42,31 -4,0 -142,-56 -305,-124 l -298,-124 -309,-51 c -170,-28 -310,-49 -312,-47 -5,5 635,569 656,578 9,4 13,7 8,7 -4,1 32,36 80,78 49,43 90,80 93,83 3,3 24,22 48,43 23,20 39,37 36,37 -3,0 -104,-62 -225,-137 -310,-195 -337,-211 -404,-232 -33,-11 -165,-55 -292,-99 -128,-45 -233,-79 -233,-76 0,4 61,80 280,349 344,421 500,615 500,621 0,4 -238,-202 -260,-226 -51,-55 -253,-216 -310,-247 -41,-22 -164,-89 -273,-148 -109,-59 -200,-106 -202,-104 -2,2 27,58 64,124 62,109 334,588 372,653 19,33 107,190 144,257 l 27,50 -29,-31 c -15,-17 -109,-131 -208,-254 -170,-211 -187,-228 -310,-323 -71,-56 -184,-143 -249,-194 -65,-51 -120,-92 -122,-90 -3,3 49,147 160,447 14,36 46,124 71,195 26,72 53,144 60,160 11,25 108,294 130,360 9,26 -53,-79 -202,-343 l -121,-214 -207,-224 c -114,-123 -212,-227 -218,-231 -7,-4 -8,5 -4,28 8,43 46,249 141,755 42,220 76,407 76,415 -1,8 -51,-124 -113,-292 l -113,-307 -163,-248 c -90,-137 -170,-256 -178,-264 -12,-13 -14,-2 -9,80 3,52 8,266 11,475 3,209 8,450 10,535 3,85 3,151 0,145 -3,-5 -32,-153 -64,-327 l -60,-317 -122,-278 c -67,-153 -125,-282 -130,-286 -10,-12 -13,4 -64,363 -66,454 -68,469 -63,495 3,14 1,22 -3,19 -5,-3 -9,-2 -9,3 -1,29 -49,325 -54,330 -3,4 -6,-79 -7,-183 z m -18,-1010 c -6,-242 -11,-452 -12,-469 -1,-33 -3,-27 -77,206 l -41,127 49,213 c 26,118 56,249 65,292 10,43 19,76 22,74 2,-3 -1,-202 -6,-443 z m 365,-17 c -46,-247 -86,-450 -88,-452 -2,-3 -16,79 -30,181 l -27,185 93,227 c 51,125 101,249 111,276 11,27 20,45 22,40 1,-5 -35,-211 -81,-457 z m 483,281 c -23,-62 -51,-142 -64,-178 -52,-145 -193,-527 -208,-560 -14,-32 -14,-21 -9,155 l 5,190 140,230 c 161,263 168,275 173,275 2,0 -15,-51 -37,-112 z M 3029,5590 c 23,-157 44,-298 47,-315 3,-16 -36,48 -86,144 -79,151 -91,178 -86,210 3,20 10,144 16,276 6,132 14,247 17,255 6,15 18,-56 92,-570 z m 1648,453 c -6,-11 -170,-300 -194,-343 -180,-319 -266,-470 -269,-467 -2,1 1,21 6,42 5,22 21,104 36,182 l 26,143 195,225 c 172,197 217,247 200,218 z M 2700,5490 c 50,-157 95,-296 101,-309 21,-51 -3,-26 -109,116 l -110,148 -31,285 c -17,157 -31,290 -30,295 1,13 63,-174 179,-535 z m 2318,283 c -35,-43 -169,-208 -297,-366 -128,-159 -235,-287 -237,-285 -1,2 25,79 58,172 l 62,168 130,107 c 270,223 341,281 344,281 2,0 -25,-35 -60,-77 z M 2359,5392 c 111,-217 201,-395 199,-397 -2,-2 -63,55 -136,127 l -132,130 -76,267 c -41,146 -77,275 -80,286 l -6,20 15,-20 c 7,-11 105,-197 216,-413 z m 3004,125 c -32,-30 -76,-69 -98,-88 -22,-19 -123,-109 -225,-200 -245,-218 -320,-282 -320,-277 0,3 41,76 90,164 l 90,158 253,147 c 138,81 256,147 260,148 5,1 -18,-23 -50,-52 z M 2074,5168 c 146,-197 266,-360 266,-363 0,-3 -68,41 -151,97 l -152,103 -52,110 c -29,61 -76,160 -105,220 -82,172 -103,221 -87,205 8,-8 134,-176 281,-372 z m 3591,38 c -38,-24 -113,-71 -165,-104 -116,-72 -539,-336 -560,-348 -21,-11 -9,4 117,159 99,121 104,126 170,151 37,14 163,61 278,105 116,44 215,80 220,80 6,1 -21,-19 -60,-43 z M 1780,4944 c 218,-208 377,-364 370,-364 -4,0 -52,21 -106,46 -55,25 -127,59 -161,75 -47,22 -69,39 -94,76 -18,26 -87,127 -154,223 -169,242 -171,247 -64,144 52,-50 146,-140 209,-200 z m 4189,-68 c -10,-10 -852,-357 -856,-353 -7,7 260,237 282,243 25,6 557,112 569,113 5,1 7,-1 5,-3 z M 1507,4674 c 444,-302 512,-348 510,-351 -2,-1 -83,20 -182,47 -180,50 -180,50 -224,97 -25,27 -119,123 -210,216 -91,92 -163,167 -159,167 4,0 123,-79 265,-176 z m 4628,-209 c -5,-2 -109,-27 -230,-55 -121,-27 -316,-72 -433,-100 -117,-27 -218,-50 -224,-50 -13,0 17,20 177,120 l 119,75 146,6 c 176,6 459,9 445,4 z M 1545,4226 c 209,-97 373,-176 365,-176 -47,0 -339,32 -358,40 -20,9 -461,327 -487,352 -12,12 12,1 480,-216 z m 4682,-178 c 10,-3 -2,-8 -27,-11 -39,-6 -848,-58 -875,-56 -11,0 2,6 211,92 l 131,53 271,-37 c 149,-21 279,-39 289,-41 z M 1368,3904 c 468,-127 494,-135 490,-139 -2,-2 -85,-9 -186,-15 l -182,-11 -258,132 c -141,72 -259,133 -261,135 -10,9 30,-1 397,-102 z m 4459,-153 c 32,-11 126,-40 208,-66 216,-67 263,-83 240,-84 -11,-1 -150,13 -310,29 -159,17 -337,35 -395,41 -58,6 -130,13 -160,17 l -55,7 175,42 c 184,44 201,45 297,14 z M 1256,3540 c 159,-16 339,-35 399,-41 61,-6 133,-14 160,-18 l 50,-7 -135,-32 c -257,-61 -198,-64 -510,33 -151,47 -279,87 -285,89 -23,10 48,4 321,-24 z m 4744,-245 c 146,-74 260,-134 253,-134 -13,-1 -884,237 -890,243 -2,2 53,7 124,11 70,3 135,8 143,9 8,2 35,4 60,4 39,1 83,-18 310,-133 z M 1899,3186 c -2,-2 -80,-36 -174,-74 l -170,-69 -300,42 c -165,24 -293,44 -285,45 39,4 841,57 884,59 27,0 47,-1 45,-3 z m 3613,-85 c 189,-21 143,0 374,-171 56,-41 138,-102 183,-134 45,-33 80,-61 78,-63 -2,-2 -161,69 -353,158 -487,225 -491,228 -469,228 11,0 95,-8 187,-18 z M 1980,2906 c 0,-2 -69,-47 -152,-99 l -153,-95 -280,-7 c -154,-3 -289,-9 -300,-12 -12,-3 -16,-2 -10,4 10,9 74,25 540,133 143,33 276,64 295,69 41,10 60,13 60,7 z m 3429,-112 155,-42 135,-139 c 75,-76 172,-176 216,-222 l 80,-84 -130,89 c -71,48 -251,171 -400,272 -148,101 -256,180 -240,176 17,-4 99,-26 184,-50 z M 2119,2647 c -12,-10 -208,-184 -236,-210 -30,-28 -51,-34 -325,-88 -161,-31 -294,-56 -296,-54 -2,1 50,25 114,51 64,27 253,106 418,176 254,106 348,142 325,125 z m 3186,-161 100,-47 80,-117 c 244,-355 258,-377 225,-347 -42,37 -513,487 -595,567 l -60,59 75,-34 c 41,-19 120,-56 175,-81 z M 2180,2273 2068,2135 1787,2028 c -155,-59 -283,-106 -284,-104 -2,1 130,85 292,187 162,101 339,212 392,245 54,34 100,60 102,58 1,-1 -47,-65 -109,-141 z m 2850,-3 c 80,-55 148,-101 151,-102 8,-3 259,-532 259,-544 0,-6 -534,702 -554,735 -4,6 -5,11 -3,11 2,0 68,-45 147,-100 z M 2423,2068 c -47,-84 -90,-159 -97,-166 -7,-7 -46,-32 -87,-55 -40,-24 -150,-87 -244,-141 -93,-54 -174,-101 -180,-103 -16,-7 64,66 365,332 157,139 291,259 299,268 7,10 17,17 22,17 4,0 -31,-69 -78,-152 z m 2441,-78 68,-66 83,-290 c 46,-159 82,-290 80,-292 -1,-2 -58,104 -125,235 -68,131 -166,321 -218,423 l -95,185 69,-65 c 38,-35 100,-94 138,-130 z m -2182,-112 -67,-177 -225,-184 c -124,-102 -226,-184 -228,-182 -2,1 95,124 215,272 120,148 251,310 292,361 41,50 76,90 77,89 2,-2 -27,-82 -64,-179 z m 1979,-322 c 10,-94 24,-216 29,-271 6,-55 13,-112 16,-127 3,-16 3,-28 1,-28 -6,0 -8,8 -147,440 -51,157 -103,319 -116,360 -13,41 -24,79 -24,84 0,5 50,-57 111,-139 l 110,-148 z m -1685,192 -33,-177 -89,-103 c -153,-178 -296,-343 -307,-353 -14,-14 -36,-53 235,425 58,102 131,231 163,288 31,56 59,101 61,99 2,-2 -11,-82 -30,-179 z m 1264,-6 83,-162 -12,-208 c -6,-114 -14,-250 -18,-302 -8,-113 -6,-122 -57,231 -19,134 -47,320 -61,413 -24,165 -29,204 -21,195 2,-2 40,-77 86,-167 z m -952,-97 -4,-160 -148,-240 c -142,-232 -178,-284 -162,-240 4,11 36,99 71,195 35,96 102,280 149,409 47,128 87,236 87,240 7,31 10,-74 7,-204 z m 638,28 57,-178 -63,-285 c -35,-157 -67,-292 -72,-300 -7,-11 -8,-10 -4,5 3,11 8,226 12,478 4,251 8,457 10,457 1,0 28,-80 60,-177 z m -316,-56 22,-162 -113,-277 c -62,-153 -115,-276 -117,-274 -2,2 1,21 6,42 6,22 45,229 88,462 54,288 81,415 85,398 4,-15 17,-99 29,-189 z"
         id="path4"
         style="fill:#ffffff" />
      <path
         d="m 7008,4083 c 7,-3 16,-2 19,1 4,3 -2,6 -13,5 -11,0 -14,-3 -6,-6 z"
         id="path6"
         style="fill:#ffffff" />
    </g>
    <path
       fill="#ffffff"
       d="m 872.40778,262.03841 c 1.532,-3.96346 2.8628,-8.01158 4.7758,-11.81364 1.7806,5.07206 3.421,10.21556 5.7441,15.07595 1.4419,2.49767 2.8204,5.03767 4.5164,7.37923 1.4526,2.36273 3.5137,4.25715 5.1409,6.49288 1.2356,1.68275 2.6537,3.24114 3.6565,5.08264 3.8867,6.42144 7.4983,13.00163 11.1099,19.58182 0.8757,1.30968 1.7541,2.62466 2.7119,3.87614 -0.3783,-2.19339 -0.9789,-4.34446 -1.3626,-6.53521 -0.2593,-1.87854 -0.5635,-3.74914 -0.8043,-5.62769 2.7358,5.60917 5.1938,11.35592 7.5406,17.13971 0.4419,1.905 0.7594,3.84175 1.143,5.76263 0.3546,2.60085 0.5583,5.21758 0.8731,7.82373 0.5927,3.53483 1.2965,7.05114 2.1908,10.52512 1.053,3.44488 2.1696,6.87123 3.5348,10.20763 1.1589,2.71992 1.7516,5.63298 2.7305,8.41375 1.1615,2.6035 2.3654,5.18848 3.5587,7.77875 -1.9024,0.70644 -3.9264,1.17475 -5.5748,2.41829 -1.8415,0.90223 -3.1141,2.53206 -4.5667,3.91848 -2.5374,2.52412 -4.3683,5.62769 -6.0616,8.75242 -0.2196,1.36525 -0.3466,2.74372 -0.5054,4.11956 -1.7145,-0.21961 -3.421,-0.53975 -5.1461,-0.63765 -3.6063,0.44979 -7.2258,0.83873 -10.7871,1.58486 -3.601,0.76729 -7.2813,1.02658 -10.922,1.52135 0.6853,-2.81517 1.1642,-5.6806 1.8944,-8.48254 1.0822,-2.34421 2.3151,-4.61963 3.4317,-6.95061 1.7118,1.37055 3.6327,2.50032 5.1144,4.13544 1.1509,1.13771 2.2754,2.30188 3.4369,3.429 2.6247,-0.43656 5.2044,-1.21444 7.8185,-1.75948 0.6773,-0.0635 1.1006,-0.62706 1.5398,-1.07685 2.3548,-2.51883 4.7837,-4.96623 7.1517,-7.47183 0.3122,-2.07434 0.336,-4.18571 0.553,-6.27327 -0.3889,-5.48217 -1.0742,-10.94053 -1.8547,-16.38036 -0.9975,-4.52967 -2.0585,-9.04875 -3.0798,-13.57312 -0.3228,-1.25413 -0.4815,-2.56117 -0.9842,-3.76238 -0.7409,-1.83092 -1.4764,-3.66183 -2.204,-5.49539 -0.635,-1.61396 -0.9181,-3.35492 -1.6484,-4.92655 -2.9289,-4.6646 -5.8816,-9.31598 -8.7524,-14.01762 -1.9261,-3.34169 -4.5244,-6.22036 -6.7971,-9.32127 -1.9341,-2.70405 -4.3154,-5.03238 -6.5141,-7.51417 -1.5081,-1.57427 -3.1432,-3.02154 -4.6831,-4.56406 -1.9579,1.54781 -3.9634,3.03477 -5.8923,4.61433 -1.8997,2.07169 -3.6565,4.27302 -5.543,6.35529 -1.5822,1.68275 -3.1776,3.35756 -4.7493,5.0509 -1.2567,1.59015 -2.2225,3.39725 -3.5004,4.96623 -1.4711,1.37848 -2.9369,2.76225 -4.4397,4.10633 0.4577,-2.34156 0.9551,-4.68048 1.5425,-6.99293 3.7174,-9.64936 7.2337,-19.37544 10.9273,-29.03274 1.1933,-2.65906 2.5321,-5.24933 3.7359,-7.9031 z"
       id="path119"
       style="display:inline;opacity:0.272848;fill:#000000;stroke-width:0.264583" />
    <path
       d="m 1061.9342,265.29808 c 2.323,-4.85775 3.9634,-10.00125 5.7441,-15.07331 1.6272,3.25173 2.8495,6.67279 4.1169,10.07533 0.8917,2.59291 2.2542,4.98475 3.384,7.47448 1.2171,2.3495 2.0029,4.88685 2.9713,7.34218 2.4156,6.33677 4.699,12.72117 7.1411,19.05 0.7805,2.24367 1.8812,4.39209 2.2966,6.74688 0.3492,1.6854 0.7805,3.35492 1.0689,5.0509 -1.1457,-0.99748 -2.2278,-2.06375 -3.3523,-3.08505 -2.0876,-1.68539 -3.0771,-4.29154 -4.8366,-6.26533 -1.5028,-1.5875 -2.995,-3.18294 -4.4979,-4.77044 -1.8891,-2.08227 -3.6433,-4.2836 -5.543,-6.35529 -1.9288,-1.57956 -3.937,-3.06652 -5.8923,-4.61433 -2.1775,2.13783 -4.4582,4.17512 -6.4452,6.50081 -3.5984,3.69358 -6.4982,7.9719 -9.6864,12.00415 -1.4976,2.15635 -2.7808,4.45293 -4.1884,6.66485 -1.95,3.15648 -3.9423,6.2865 -5.9187,9.42711 -1.0028,1.34408 -1.225,3.04535 -1.7648,4.59052 -0.8493,2.59027 -2.0479,5.05089 -2.9369,7.62529 -0.836,3.59039 -1.6457,7.18873 -2.4632,10.78441 -0.5662,2.65642 -1.3415,5.2758 -1.5955,7.98778 -0.6429,4.64079 -1.1879,9.29745 -1.5187,13.97 0.2169,2.0902 0.2381,4.20687 0.5583,6.28385 2.5479,2.67229 5.1303,5.31548 7.6703,7.99835 0.4074,0.51329 1.0953,0.53711 1.6827,0.69583 2.3469,0.52123 4.6726,1.12186 7.0221,1.63515 1.6668,-1.44991 3.1141,-3.1565 4.7598,-4.63814 1.2912,-1.00542 2.6167,-1.96321 3.9185,-2.9554 1.1218,2.32569 2.3468,4.60375 3.4343,6.94796 0.7276,2.79929 1.2118,5.66473 1.8918,8.47989 -3.4952,-0.47625 -7.0274,-0.72231 -10.4855,-1.43668 -3.7042,-0.78317 -7.4718,-1.2065 -11.2236,-1.66688 -1.7251,0.0979 -3.4317,0.41804 -5.1435,0.63765 -0.1587,-1.37584 -0.2884,-2.75431 -0.5053,-4.11956 -1.3018,-2.27013 -2.4924,-4.6355 -4.2122,-6.62782 -1.1007,-1.52929 -2.5374,-2.75696 -3.8312,-4.10898 -0.5212,-0.55297 -1.0901,-1.06095 -1.7541,-1.4261 -1.1324,-0.64029 -2.1617,-1.4949 -3.4184,-1.88648 -0.9975,-0.34396 -1.9977,-0.68262 -2.9872,-1.03981 0.8123,-1.74096 1.606,-3.48986 2.4077,-5.23611 0.5556,-1.24883 1.2118,-2.46062 1.569,-3.78618 0.7858,-2.667 1.5134,-5.36046 2.6035,-7.92427 3.1459,-7.79198 5.1673,-16.03905 5.9161,-24.40782 0.2302,-3.09298 0.8969,-6.13039 1.5346,-9.15723 2.3468,-5.78114 4.8021,-11.53054 7.538,-17.13706 -0.4075,2.75961 -0.6906,5.54567 -1.3468,8.26294 -0.2672,1.2991 -0.6112,2.58498 -0.8175,3.89731 0.9578,-1.25148 1.8336,-2.56646 2.7119,-3.87614 3.3391,-6.0669 6.6543,-12.15232 10.2236,-18.08957 2.2701,-4.0931 5.371,-7.63587 8.3767,-11.19716 2.1721,-2.93423 4.0454,-6.0669 5.8234,-9.25248 z"
       id="path121"
       style="display:inline;opacity:0.272848;fill:#000000;stroke-width:0.264583" />
    <path
       fill="#ffffff"
       d="m 847.94448,304.78714 c 0.4312,-0.635 0.9101,-1.23825 1.4314,-1.80181 -0.6112,3.88408 -1.2674,7.7761 -1.4209,11.71046 0.381,2.30716 0.6668,4.64608 1.4579,6.858 0.7567,2.86014 1.8971,5.59593 3.1088,8.28939 2.6962,4.88421 5.3473,9.79488 8.0593,14.6685 2.0505,3.10886 4.0878,6.25475 6.6172,9.00113 1.1774,1.12186 2.2331,2.36275 3.3179,3.57187 -2.2675,0.7964 -4.5641,1.51077 -6.8184,2.34421 -1.2065,0.62177 -2.413,1.26471 -3.5612,1.98702 -1.0425,1.07683 -2.0797,2.18543 -2.9845,3.38138 -0.3361,1.36789 -0.7435,2.73314 -0.9261,4.13014 0.8096,4.79425 1.5214,9.70227 3.6222,14.13669 0.8043,1.397 1.2435,3.05064 2.4738,4.16189 0.7726,0.72761 1.397,1.62719 2.2596,2.25161 0.8942,0.11906 1.7938,0.26987 2.6987,0.28575 1.0425,-0.64029 2.1087,-1.25677 3.0903,-1.98438 0.4525,-0.94456 0.7726,-1.94733 1.1536,-2.921 -1.1192,-0.35718 -2.2622,-0.65087 -3.3496,-1.09537 -1.2674,-0.6059 -2.5188,-1.24619 -3.773,-1.87854 2.7623,-1.06627 5.5351,-2.10609 8.3159,-3.12473 1.651,-0.57944 3.1538,-1.48961 4.7466,-2.19869 -0.4207,2.72785 -1.3758,5.61446 -0.3307,8.31585 0.095,1.016 -0.024,2.07169 0.3598,3.04536 0.7223,0.77787 1.8362,1.15623 2.3654,2.1246 0.7911,1.33879 1.7754,2.58763 2.2595,4.08782 -2.1748,-0.71967 -4.3418,-1.73038 -6.6833,-1.59544 -1.9685,0.46831 -3.9582,0.83079 -5.9373,1.2356 -1.8706,0.83609 -3.1035,2.55588 -4.4423,4.03754 -1.5161,1.41023 -3.0189,2.86015 -4.8049,3.92907 -1.6563,1.30704 -3.8364,1.54781 -5.6303,2.6035 -1.5478,0.62441 -2.8337,1.70127 -4.0058,2.86276 -0.336,0.51858 -0.6456,1.07421 -0.8255,1.66952 0.1508,0.82815 0.3519,1.65365 0.6112,2.45534 0.8043,1.31233 2.3733,1.64306 3.7386,2.06375 3.0771,0.91016 5.8975,2.48443 8.6889,4.04018 -1.5399,0.55298 -3.0004,1.43669 -4.6726,1.51077 -1.6933,0.23548 -3.4105,0.35719 -5.0747,0.78582 -1.8759,0.47095 -3.8126,0.77523 -5.6012,1.53723 -3.2121,1.65893 -4.8789,5.02708 -7.1199,7.69408 -1.3071,1.69333 -2.8628,3.22262 -3.863,5.13556 -1.262,2.15371 -2.7331,4.191 -4.3074,6.12775 0.344,-2.09814 0.6244,-4.20687 1.0213,-6.29179 1.5849,-4.5429 3.3205,-9.04081 5.3552,-13.40379 0.9895,-2.24896 2.0611,-4.46617 3.0109,-6.73365 0.5054,-2.49502 0.8599,-5.01914 1.3124,-7.52475 0.5582,-2.9501 0.3492,-6.00339 1.1139,-8.91646 0.5185,-2.54529 1.2012,-5.06148 1.5319,-7.64116 0.8149,-5.50598 1.6828,-11.00402 2.3098,-16.53381 0.2223,-1.54782 0.336,-3.10886 0.6244,-4.64609 0.6509,-2.42887 1.3124,-4.85775 1.9712,-7.28662 0.5027,-1.43404 1.5557,-2.6035 2.0981,-4.01638 0.217,-1.38644 0.5001,-2.76754 0.6006,-4.16719 -0.4074,-1.76477 -0.9234,-3.51102 -1.4155,-5.25462 -1.3361,-2.70933 -2.9448,-5.27579 -4.6408,-7.7761 -0.5609,-0.93398 -1.3123,-1.77536 -1.6827,-2.81253 -1.5822,-4.77572 -3.3047,-9.56204 -3.9344,-14.57854 0.016,-1.66687 -0.056,-3.34168 0.034,-5.00591 0.5742,-1.78329 1.2356,-3.54013 1.8786,-5.29961 1.3705,-2.60347 2.9739,-5.07733 4.5667,-7.55118 z"
       id="path123"
       style="display:inline;opacity:0.272848;fill:#000000;stroke-width:0.264583" />
    <path
       d="m 1095.4489,302.99062 c 1.5214,1.65894 2.5242,3.69887 3.7518,5.57212 0.9049,1.70128 2.0321,3.32582 2.5004,5.22023 0.4895,1.8759 1.4552,3.68036 1.2091,5.67267 0.254,6.30502 -1.5055,12.47775 -3.6803,18.33033 -2.0929,3.302 -4.3974,6.48759 -6.0907,10.02239 -0.4948,1.74625 -1.0081,3.4925 -1.4156,5.2573 0.1006,1.40229 0.3811,2.78871 0.6033,4.17513 0.6218,1.61131 1.9156,2.92364 2.2754,4.64873 0.6033,2.37066 1.3229,4.71487 1.8839,7.09612 0.7884,6.45319 1.6166,12.89844 2.6326,19.31987 0.426,3.66448 1.397,7.22842 2.1166,10.83734 0.3228,3.06652 0.4419,6.1595 1.0875,9.18369 0.5318,2.37066 0.4815,4.92389 1.6695,7.10406 2.2754,5.02444 4.6275,10.02241 6.4796,15.22677 0.4816,1.45521 1.2092,2.85221 1.3917,4.39208 0.2514,1.72773 0.5504,3.45017 0.8123,5.18054 -1.8759,-2.28864 -3.5586,-4.74133 -5.0112,-7.31573 -1.4764,-2.032 -3.2173,-3.86291 -4.6673,-5.91343 -1.5636,-2.0955 -3.0771,-4.37886 -5.4451,-5.64357 -1.7647,-0.82285 -3.7174,-1.10595 -5.5906,-1.5822 -2.1114,-0.55298 -4.3048,-0.64559 -6.4479,-0.99748 -1.1933,-0.3519 -2.3204,-0.89959 -3.4766,-1.34144 3.0083,-1.69863 6.0854,-3.35492 9.4376,-4.27831 1.1536,-0.27782 2.3257,-0.78582 2.9845,-1.82563 0.2593,-0.80169 0.4604,-1.62719 0.6139,-2.45533 -0.4075,-1.64836 -1.8495,-2.64054 -3.1062,-3.62744 -1.7992,-1.04775 -3.7227,-1.85737 -5.6886,-2.52677 -2.4871,-1.26206 -4.6249,-3.10356 -6.6014,-5.04825 -1.2726,-1.44992 -2.4976,-3.06652 -4.2862,-3.89202 -1.987,-0.41275 -3.9847,-0.77258 -5.9611,-1.2409 -2.36,-0.13493 -4.5534,0.86519 -6.7363,1.61396 0.4604,-1.45785 1.3679,-2.69875 2.1326,-4.00579 0.5106,-0.96837 1.5213,-1.4896 2.3256,-2.18017 0.029,-1.44727 -0.1614,-2.93952 0.4498,-4.29948 0.3043,-2.37331 -0.1984,-4.75191 -0.4577,-7.1067 4.2968,2.11666 8.8715,3.55864 13.3165,5.32077 -1.2568,0.62971 -2.5083,1.27264 -3.7729,1.87854 -1.0901,0.44714 -2.2358,0.73819 -3.3523,1.10067 0.3863,0.96837 0.7038,1.97114 1.1562,2.9157 0.9764,0.72761 2.0426,1.34144 3.0851,1.98173 0.9498,-0.0635 1.9684,-0.0846 2.8733,-0.38364 0.9869,-0.9525 1.9262,-1.96586 2.8443,-2.98715 2.0241,-3.50837 3.5428,-7.33954 4.228,-11.34533 0.3916,-1.85209 0.7276,-3.7174 1.0504,-5.58536 0.1985,-0.93927 -0.2196,-1.84679 -0.3915,-2.75431 -0.262,-0.85989 -0.2329,-1.88119 -0.9367,-2.52941 -0.8493,-0.91282 -1.6218,-1.89707 -2.5188,-2.75961 -1.1509,-0.72231 -2.3548,-1.36525 -3.5613,-1.98702 -2.2542,-0.83344 -4.5508,-1.55046 -6.8183,-2.34421 1.5875,-1.94204 3.5137,-3.57449 5.0165,-5.58535 1.7912,-2.13784 3.2465,-4.52438 4.8154,-6.82096 2.7067,-4.80483 5.2943,-9.67317 7.9772,-14.48858 1.7357,-3.52955 2.9872,-7.26811 3.9926,-11.06488 0.254,-1.47373 0.5424,-2.94481 0.7488,-4.42648 -0.1536,-3.93435 -0.8124,-7.82637 -1.4474,-11.70781 z"
       id="path125"
       style="display:inline;opacity:0.272848;fill:#000000;stroke-width:0.264583" />
    <path
       fill="#ffffff"
       d="m 875.41088,321.92156 c 0.4259,-0.79375 0.8016,-1.61925 1.2938,-2.37861 0.6376,2.6379 1.1694,5.30754 1.9817,7.90046 0.6271,1.28588 1.4393,2.47915 2.1273,3.73856 0.4736,0.97632 1.3969,1.5928 2.1642,2.3204 0.3096,0.254 0.6112,0.62706 1.0663,0.54766 3.474,-0.0714 6.9427,-0.26987 10.4061,-0.53179 1.2673,-0.0873 2.5611,-0.0529 3.7862,-0.4392 0.9181,-0.29369 1.9314,-0.37836 2.741,-0.94192 0.889,-0.59267 1.7516,-1.22767 2.6644,-1.79123 -0.3069,1.28588 -0.048,2.74373 -0.8308,3.87879 -0.9049,1.48961 -1.7859,2.99509 -2.6829,4.48998 -1.008,0.11642 -2.0055,0.29898 -3.0109,0.42598 -2.3125,0.254 -4.6884,-0.16404 -6.9612,0.45244 -1.6881,0.30956 -3.3549,0.74877 -5.0536,0.97102 -3.1379,-0.003 -6.2785,0.0502 -9.4138,-0.0265 -1.0531,-0.7964 -2.1088,-1.60338 -3.0851,-2.48973 -0.3439,-1.32821 -0.6932,-2.67494 -0.8625,-4.03225 0.2355,-1.75948 0.254,-3.58775 1.0028,-5.22817 0.9498,-2.26748 1.4022,-4.73604 2.667,-6.86593 z"
       id="path127"
       style="display:inline;opacity:0.272848;fill:#000000;stroke-width:0.264583" />
    <path
       d="m 1068.1572,319.5456 c 0.7884,1.34144 1.5081,2.73314 2.1775,4.14073 0.7064,2.09021 1.4208,4.17777 2.2013,6.24152 0.3307,1.33879 0.4101,2.7305 0.5874,4.09575 -0.1349,1.22767 -0.5027,2.42094 -0.7408,3.63008 -0.04,0.48948 -0.5081,0.72761 -0.8308,1.02129 -0.8044,0.6059 -1.5531,1.28588 -2.3786,1.86267 -3.1433,0.0767 -6.2918,0.0238 -9.4351,0.0238 -3.0056,-0.37571 -5.924,-1.50283 -8.9905,-1.32556 -2.0267,0.0979 -4.0217,-0.23019 -6.014,-0.52123 -1.0054,-1.72241 -2.0743,-3.40783 -3.0427,-5.15144 -0.2884,-1.04246 -0.262,-2.15371 -0.471,-3.21733 1.0954,0.65352 2.0823,1.47637 3.1962,2.09814 1.1986,0.381 2.4209,0.75407 3.6724,0.93134 4.3207,0.26987 8.6387,0.63235 12.9672,0.66675 0.9129,-0.4154 1.5822,-1.28852 2.3522,-1.93411 0.8942,-1.16681 1.5055,-2.53206 2.3019,-3.76766 0.5873,-0.87313 0.7567,-1.92352 1.0397,-2.91571 0.5319,-1.94469 0.9261,-3.92377 1.4077,-5.87904 z"
       id="path129"
       style="display:inline;opacity:0.272848;fill:#000000;stroke-width:0.264583" />
    <path
       fill="#ffffff"
       d="m 929.26678,320.68066 c 3.9952,2.99773 7.9692,6.09071 12.4566,8.33173 1.2223,0.69321 2.6008,1.16681 3.6195,2.17223 1.6563,1.66687 3.9952,2.32569 5.9055,3.64067 1.2726,0.93133 2.7622,1.4552 4.2624,1.8997 0.5451,0.09 1.0795,-0.1852 1.6192,-0.26193 -0.7196,-4.20952 -1.7277,-8.39259 -1.8361,-12.67884 0.8757,0.86784 1.2117,2.07434 1.6906,3.17236 1.7278,4.20158 3.8788,8.20737 6.0987,12.16554 1.5504,2.35479 3.1538,4.68312 4.5535,7.13052 0.4445,1.69069 0.463,3.46869 0.8043,5.18583 0.9922,5.08 1.6007,10.22615 1.9976,15.38552 -0.085,2.40242 -0.2117,4.80219 -0.3545,7.20196 -0.4551,-1.30969 -0.7594,-2.66964 -1.1748,-3.99256 -0.6218,-1.90235 -0.5636,-3.93435 -1.0001,-5.8764 -0.7461,-4.24656 -2.0796,-8.3767 -3.7783,-12.33487 -0.9895,-1.70392 -1.9394,-3.46075 -3.2411,-4.95565 -0.9181,-1.1086 -1.7304,-2.31772 -2.8496,-3.24114 -0.9181,-0.75406 -1.6695,-1.76477 -2.8125,-2.19604 -0.9155,-0.40482 -1.823,-0.82815 -2.7331,-1.23825 -1.5743,-0.71438 -3.3576,-0.86519 -4.8684,-1.72509 -0.9207,-0.508 -1.8917,-0.92339 -2.7913,-1.46579 -1.1589,-1.15623 -1.6193,-2.92894 -3.0507,-3.82587 -0.9128,-0.60855 -1.7436,-1.33615 -2.7014,-1.87325 -0.9816,0.0635 -2.0055,0.0132 -2.9527,0.29898 -0.7964,0.51593 -1.7277,0.93662 -2.3627,1.63777 -0.034,1.31498 -0.045,2.63525 0.016,3.95023 0.1957,1.5531 0.4921,3.09297 0.7037,4.64608 0.7515,0.33073 1.4817,0.71702 2.2516,1.01071 1.5399,-0.25929 3.003,-0.83609 4.4794,-1.32557 -0.3042,1.25413 -0.3095,2.59821 -0.9101,3.76767 -0.6297,1.31498 -1.1404,2.68817 -1.8309,3.9714 -0.8996,1.33085 -1.8257,2.64848 -2.7676,3.95287 -1.942,-4.15396 -4.0851,-8.22854 -5.6224,-12.55712 -1.0795,-3.78354 -1.8944,-7.7179 -1.5849,-11.67077 0.016,-2.78607 0.4261,-5.54302 0.7647,-8.30263 z"
       id="path131"
       style="display:inline;opacity:0.272848;fill:#000000;stroke-width:0.264583" />
    <path
       d="m 1011.4331,323.79481 c 1.3865,-1.03717 2.7649,-2.08757 4.1619,-3.1115 0.5715,4.57729 1.2118,9.2366 0.5266,13.83771 -0.1509,1.95527 -0.7964,3.82322 -1.2224,5.72822 -1.5134,4.48734 -3.7545,8.67834 -5.7468,12.96194 -0.9445,-1.30439 -1.8679,-2.62202 -2.7675,-3.95552 -0.6906,-1.28058 -1.2012,-2.65112 -1.8283,-3.96346 -0.6032,-1.17213 -0.6085,-2.51618 -0.9128,-3.77296 1.3997,0.46832 2.7887,0.98955 4.2333,1.32028 0.8044,-0.20109 1.5082,-0.68528 2.2596,-1.02659 0.2963,-2.85221 0.6244,-5.70441 0.463,-8.57514 -0.6218,-0.71173 -1.4923,-1.23032 -2.3019,-1.71715 -0.9075,-0.13494 -1.8362,-0.23548 -2.7516,-0.1905 -1.0504,0.7329 -2.0797,1.50019 -3.101,2.27013 -0.9736,0.99747 -1.4843,2.36537 -2.4315,3.38666 -0.83872,0.51594 -1.74622,0.90488 -2.60612,1.37848 -1.7304,1.02397 -3.8074,1.143 -5.5801,2.06642 -1.2647,0.6694 -2.7569,0.99748 -3.7729,2.06375 -3.0322,2.58234 -5.424,5.84465 -7.3264,9.32657 -2.0796,4.84452 -3.5983,9.95362 -4.2042,15.20031 -0.2143,2.41035 -1.0927,4.69106 -1.7462,7.00352 -0.1429,-2.39977 -0.2699,-4.79954 -0.3546,-7.20196 0.3228,-4.21746 0.7911,-8.42698 1.4896,-12.6021 0.3572,-1.88913 0.6985,-3.7809 0.9234,-5.69119 0.1217,-0.75935 0.1164,-1.55046 0.389,-2.27806 1.7991,-3.26761 4.191,-6.17538 5.8631,-9.51707 2.0109,-3.57716 3.7968,-7.27868 5.3287,-11.08604 0.2514,-0.69056 0.6377,-1.32821 1.151,-1.86266 -0.1085,4.28625 -1.1166,8.46931 -1.8362,12.67618 0.6085,0.082 1.2329,0.44186 1.8494,0.19844 1.1536,-0.40746 2.368,-0.71702 3.384,-1.42875 1.5716,-1.03981 3.2623,-1.88119 4.9239,-2.77019 1.0636,-0.5662 1.7727,-1.60866 2.82842,-2.18545 1.7727,-0.96573 3.6089,-1.8124 5.334,-2.85486 1.7992,-1.20388 3.6751,-2.29396 5.3816,-3.62746 z"
       id="path133"
       style="display:inline;opacity:0.272848;fill:#000000;stroke-width:0.264583" />
    <path
       fill="#ffffff"
       d="m 880.99618,343.04324 c 2.8734,2.00555 5.6224,4.19365 8.5699,6.096 1.7197,1.05569 3.1935,2.43946 4.736,3.72534 1.7595,1.51077 3.593,2.92894 5.3975,4.38679 1.7939,1.36525 3.3073,3.05065 4.9318,4.60904 -1.8494,-0.0582 -3.7438,0.22754 -5.5483,-0.29104 -1.0504,-0.2831 -2.1484,-0.4101 -3.1644,-0.80169 -1.8971,-1.0451 -3.5904,-2.55587 -5.7864,-2.94481 -0.8732,0.30956 -1.7304,0.69321 -2.5295,1.16152 -1.0212,1.43669 -2.0611,2.86277 -3.1617,4.24392 -0.5398,1.34673 -0.6721,2.83104 -1.061,4.23068 -0.4313,1.42082 -0.1508,2.91571 -0.2778,4.37092 -0.4868,1.32027 -1.0636,2.61408 -1.6563,3.89202 -0.077,-1.38112 -0.056,-2.76754 -0.1032,-4.14867 -0.172,-3.44752 0.2593,-6.88445 0.3572,-10.32933 0.1138,-1.11125 -0.3783,-2.16958 -0.8096,-3.16177 -3.1909,-3.26496 -6.1701,-6.74158 -8.9853,-10.33727 -0.8414,-1.24354 -1.5822,-2.55323 -2.2992,-3.87085 3.2147,1.64306 6.35,3.43958 9.5382,5.13027 0.7911,0.26193 1.651,0.18785 2.4712,0.30162 0.3202,-0.52652 0.6641,-1.03716 0.9446,-1.58485 -0.3625,-1.59809 -1.1139,-3.09827 -1.5637,-4.67784 z"
       id="path135"
       style="display:inline;opacity:0.272848;fill:#000000;stroke-width:0.264583" />
    <path
       d="m 1057.6691,347.53058 c 2.0981,-1.44992 4.0904,-3.05065 6.1965,-4.48734 -0.426,1.35732 -0.9472,2.68288 -1.4182,4.02696 -0.4498,0.83609 0.4789,1.50548 0.7753,2.22515 0.8308,-0.10054 1.7039,-0.0238 2.5056,-0.29369 3.1856,-1.69862 6.3235,-3.48456 9.5329,-5.13556 -0.762,1.36525 -1.5108,2.74902 -2.4156,4.02696 -2.7729,3.47398 -5.6171,6.90827 -8.7789,10.03829 -0.4815,0.75935 -0.7303,1.66158 -0.9499,2.52942 0.045,2.20397 0.1429,4.40795 0.2673,6.60929 0.1798,2.8866 -0.1085,5.7732 -0.217,8.65716 -0.6721,-1.28058 -1.3362,-2.57175 -1.9024,-3.89996 -0.1349,-1.25941 0.082,-2.5347 -0.1323,-3.78618 -0.1878,-1.12713 -0.4074,-2.24896 -0.5926,-3.37609 -0.1111,-0.61118 -0.1667,-1.26735 -0.5609,-1.7727 -0.9102,-1.30175 -1.7595,-2.64848 -2.7226,-3.9079 -0.799,-0.46831 -1.6563,-0.85196 -2.5267,-1.16152 -2.2675,0.39423 -3.9794,2.00819 -5.9638,3.02683 -1.3573,0.37307 -2.7357,0.66146 -4.1089,0.96044 -1.4711,0.12965 -2.9528,0.0317 -4.4239,0.0503 1.6193,-1.55839 3.1327,-3.24379 4.9292,-4.60904 2.3998,-1.91294 4.7943,-3.83381 7.1147,-5.842 1.6483,-1.49225 3.5851,-2.6035 5.3922,-3.87879 z"
       id="path137"
       style="display:inline;opacity:0.272848;fill:#000000;stroke-width:0.264583" />
    <path
       fill="#ffffff"
       d="m 944.97768,348.63918 c 1.2409,2.26484 2.3998,4.572 3.5005,6.90563 0.9842,2.13783 2.2278,4.13808 3.3602,6.19654 0.4577,0.87312 1.1007,1.68275 1.27,2.68287 0.3466,1.68011 0.8176,3.3364 1.1033,5.02709 -0.05,2.0902 -0.3201,4.1698 -0.4392,6.25739 2.0585,-1.83091 4.4476,-3.48191 5.6436,-6.04308 0.254,-1.12448 0.5529,-2.24102 0.7408,-3.37873 -0.2355,-3.64067 -0.5609,-7.27604 -0.7911,-10.91935 1.606,4.63285 3.4369,9.19162 5.1567,13.78743 0.5609,1.19063 -0.013,2.50561 0.1799,3.74915 0.2567,1.77006 0.5795,3.52954 0.8335,5.30225 0.2328,2.28864 0.381,4.58523 0.5662,6.87917 0.6244,5.08529 1.6483,10.17322 1.3467,15.31937 -0.5847,1.99496 -1.442,3.90525 -2.032,5.90021 -0.3201,1.88912 -0.5953,3.78619 -0.8758,5.6806 0.1588,0.58473 0.7515,0.95782 1.0981,1.44992 1.3044,-1.34938 2.5108,-2.80723 3.4925,-4.40531 0.5847,-1.64836 1.0715,-3.33375 1.6218,-4.99269 0.3731,1.25148 1.0372,2.51619 0.7858,3.85498 -0.2037,1.6166 -0.1905,3.26496 -0.4868,4.86833 -0.7673,1.69334 -1.6404,3.3364 -2.4315,5.01915 -0.3784,0.74083 -0.6562,1.56633 -1.2753,2.15106 -1.9605,2.01613 -3.9396,4.01638 -5.7917,6.13304 -1.1033,1.28059 -2.3363,2.45534 -3.2729,3.87086 -0.7038,1.05568 -1.5849,2.01348 -2.0743,3.20145 -0.3175,0.72232 -0.6403,1.44728 -0.9658,2.16959 0.5742,1.24354 1.1086,2.5056 1.6484,3.76502 1.1959,-0.62442 2.4765,-1.11919 3.5295,-1.97909 1.2833,-1.016 2.6459,-1.93675 3.8762,-3.0136 0.5212,-1.01864 0.8149,-2.13516 1.3202,-3.1591 0.4737,-0.62441 1.1298,-1.08214 1.7013,-1.60866 0.5874,0.84666 1.5584,1.524 1.6616,2.62731 0.1984,1.21179 0.6297,2.42094 0.4207,3.66448 -0.1588,1.28323 -0.074,2.59027 -0.3043,3.86291 -1.0663,2.27542 -2.3415,4.44236 -3.683,6.56696 -0.4921,0.66675 -0.5265,1.51342 -0.6429,2.30452 -0.2487,2.02936 -0.6456,4.03754 -0.8837,6.06955 0.7329,2.32569 1.815,4.54025 2.5744,6.86329 -0.426,2.71198 -0.8705,5.42925 -0.9208,8.18359 1.4129,1.45521 2.9977,2.76754 4.4397,4.20949 -1.1006,1.18536 -2.0611,2.51355 -3.339,3.52693 -1.1748,0.92868 -2.2013,2.02141 -3.1803,3.14854 -1.6404,1.89174 -3.511,3.56129 -5.3181,5.28902 0.9075,-3.35227 1.6563,-6.74423 2.6114,-10.0833 0.68,-2.26481 1.0478,-4.60372 1.5055,-6.91618 0.2646,-2.52677 0.2831,-5.08003 0.1852,-7.61206 -0.3704,-1.38907 -0.7805,-2.76754 -1.2435,-4.12486 -2.3495,-5.14615 -5.2044,-10.07269 -7.0459,-15.43579 -1.0742,-2.7146 -1.3679,-5.64621 -1.8759,-8.49577 0.2514,-1.83886 0.6085,-3.66713 0.9499,-5.49275 0.545,-1.32557 1.2303,-2.59557 1.9076,-3.85763 1.4896,-2.11405 3.0321,-4.191 4.6196,-6.23094 0.889,-1.0795 1.2647,-2.45001 1.8733,-3.68564 0.7831,-1.49754 0.8281,-3.21998 1.18,-4.84188 0.3175,-2.11137 1.1007,-4.14866 1.1298,-6.29973 0.018,-1.06627 0.2064,-2.12725 0.1693,-3.19087 -0.6879,-3.05594 -1.7092,-6.04044 -2.0611,-9.16517 -0.7699,-2.80723 -1.3308,-5.69648 -2.5082,-8.37141 -0.3996,-0.1958 -0.8705,-0.082 -1.2965,-0.12436 -1.1483,3.46869 -1.651,7.11994 -3.0083,10.51984 -0.934,0.84402 -1.987,1.55839 -3.003,2.30187 -0.8943,0.16404 -1.8389,0.11642 -2.7411,0.0265 -0.7329,-0.40746 -1.4711,-0.8255 -2.1405,-1.32821 -0.9578,-1.59012 -1.315,-3.43694 -1.5213,-5.25727 0.4656,-1.92087 1.4208,-3.68829 2.4024,-5.39485 0.5741,-1.30443 1.0874,-2.63261 1.606,-3.95817 0.9789,-4.90273 -0.1588,-9.90071 -1.5955,-14.59706 -0.8519,-2.07169 -1.7833,-4.12486 -3.2252,-5.86317 -0.307,0.87577 -0.4578,1.80181 -0.8123,2.66436 -1.2356,2.58762 -2.5982,5.11439 -4.0428,7.59354 -0.5557,0.91546 -0.9737,1.97114 -1.8918,2.59821 -1.5955,1.43404 -3.3179,2.70404 -5.1462,3.82322 1.7463,1.61396 3.6275,3.06388 5.5801,4.41855 -2.667,0.26193 -5.1012,-1.13242 -7.7126,-1.39171 -0.8043,-0.0661 -1.6193,-0.28046 -2.4236,-0.16666 -0.8361,0.65616 -1.6775,1.33614 -2.3998,2.11402 -0.4471,0.93133 -0.8202,1.905 -1.1244,2.89189 0.3519,1.75419 1.4657,3.23321 2.786,4.38415 1.27,0.61648 2.4818,1.46579 3.9238,1.60867 1.8944,0.26987 3.7703,0.68262 5.588,1.29645 0.7197,0.50007 1.4155,1.06363 2.0241,1.69863 0.8308,1.63777 1.4552,3.38402 2.4765,4.9239 0.6032,1.3626 1.9155,2.13516 2.9712,3.10885 0.5345,0.4101 0.9949,1.08479 1.7516,1.02656 2.8469,0.16139 5.6885,0.39952 8.5301,0.64296 -1.0265,0.73022 -1.9976,1.55575 -3.0929,2.17752 -1.4764,0.48154 -2.9792,0.88636 -4.4768,1.28852 -4.5508,-0.45244 -9.0752,-1.15623 -13.5519,-2.0955 1.2541,2.05052 2.8734,3.88938 3.8311,6.11452 0.4366,0.95779 0.9393,1.88648 1.3521,2.85486 0.3836,1.06627 0.6138,2.18281 0.9551,3.26495 0.4895,1.44463 0.2355,2.99244 0.3757,4.48734 0.1693,1.74625 -0.463,3.42368 -0.7249,5.13027 -0.2911,2.14312 -1.2568,4.10104 -2.077,6.07748 -0.508,-2.47121 -0.844,-4.98211 -0.9208,-7.50359 -0.045,-0.73554 0.01,-1.49489 -0.2513,-2.19339 -0.5821,-1.67481 -0.9234,-3.46075 -1.9474,-4.94242 -0.8466,-1.78064 -2.2939,-3.14589 -3.6724,-4.51114 -1.7515,-0.85196 -3.6327,-1.42875 -5.3922,-2.26748 -1.7462,-0.99748 -3.421,-2.11667 -5.1752,-3.09563 2.6617,3.09298 5.4927,6.07219 7.8052,9.44034 0.8572,2.4712 1.9447,4.89214 2.3495,7.49564 0.1905,1.32292 0.8334,2.65642 0.3968,3.99786 -1.225,5.27579 -1.8838,10.71033 -1.5425,16.12635 0.7832,1.2409 1.6537,2.42623 2.5003,3.62479 1.7436,1.86002 3.7889,3.429 5.4981,5.32342 2.5717,3.61685 5.5615,6.90827 8.1412,10.52248 0.8626,-0.6641 1.7912,-1.24883 2.5929,-1.98702 0.5583,-0.88106 0.8837,-1.88383 1.3732,-2.80194 0.8626,2.25161 0.8149,4.68048 0.7938,7.05115 -0.3255,1.05039 -0.7012,2.0955 -1.1536,3.10091 -0.5556,0.6985 -1.2039,1.32027 -1.7859,1.99758 -1.5558,-1.5531 -3.4026,-2.82837 -4.6779,-4.64344 -1.4711,-1.78858 -2.7675,-3.72798 -4.4318,-5.34723 -1.1297,-1.16416 -2.2622,-2.32568 -3.3946,-3.48456 -0.6667,-0.66146 -1.2462,-1.4605 -2.1404,-1.82562 -1.9553,-0.94457 -3.8365,-2.04788 -5.8182,-2.92101 -2.3469,-0.33334 -4.7017,-0.62706 -7.0538,-0.92866 -4.1302,-0.14552 -8.2841,0.33867 -12.4037,-0.1561 -0.9869,-0.0794 -1.9738,-0.13494 -2.958,-0.23548 1.3017,-2.16694 2.6775,-4.318 3.4634,-6.73894 -0.4234,-1.18004 -1.0187,-2.29923 -1.5875,-3.41577 -1.0742,-1.12712 -2.3733,-2.02935 -3.5137,-3.09298 2.1458,-0.1561 4.281,-0.46564 6.4267,-0.6006 1.6801,0.24606 3.3206,0.73025 4.9874,1.06362 3.3576,0.53446 6.141,2.74902 9.4324,3.49515 0,-2.30981 -0.3254,-4.63021 0.011,-6.93208 0.2805,-2.46857 0.4525,-4.94771 0.6324,-7.42686 0.053,-0.77523 -0.2329,-1.51341 -0.3916,-2.25954 -0.2805,-1.01865 -0.3942,-2.0955 -0.8943,-3.03742 -0.7832,-1.52135 -1.5161,-3.06652 -2.3125,-4.57993 -2.1007,-3.52161 -4.2941,-6.985 -6.5087,-10.43517 -1.8812,-2.667 -3.6724,-5.44248 -6.1304,-7.62529 -0.8334,-0.43921 -1.688,-0.85725 -2.5744,-1.16946 -2.3865,-0.55562 -4.8128,-0.92866 -7.1914,-1.51342 -1.3017,-0.52916 -2.6035,-1.06891 -3.8602,-1.69068 -1.7463,-1.08744 -3.4555,-2.23838 -5.1806,-3.36021 0.8149,-0.23281 1.6404,-0.47625 2.495,-0.51859 2.5586,-0.15081 5.1118,-0.42862 7.6729,-0.55033 2.1776,0.037 4.3604,-0.0688 6.5326,0.0556 2.3257,0.42069 4.6858,0.69321 6.985,1.22767 1.7754,0.75671 3.7836,1.09537 5.2917,2.36802 1.0557,0.80169 2.159,1.53458 3.1935,2.36537 1.5372,1.37584 2.9871,2.84692 4.4714,4.27832 0.8837,0.44712 1.9368,0.48948 2.884,0.78845 0.04,-0.97366 0.1508,-1.94468 0.1455,-2.91835 -0.6958,-2.32569 -1.8521,-4.47146 -3.1115,-6.53521 -1.5081,-2.12989 -3.0797,-4.23333 -4.3233,-6.52994 -0.4471,-1.45521 -0.9313,-2.90513 -1.27,-4.38944 0.1879,-1.13771 0.3652,-2.28335 0.6668,-3.39725 0.4048,-0.79375 0.8308,-1.62719 1.4578,-2.26748 2.3681,-1.38112 4.8366,-2.57175 7.2734,-3.82058 1.9183,-1.14829 3.8021,-2.36008 5.6198,-3.66183 0.4498,-0.33338 0.9789,-0.62177 1.2382,-1.143 2.0373,-3.83911 4.4424,-7.48242 6.2971,-11.41942 0.7647,-2.15641 1.4526,-4.34187 2.2358,-6.49293 z"
       id="path139"
       style="display:inline;opacity:0.272848;fill:#000000;stroke-width:0.264583" />
    <path
       d="m 996.29628,355.72208 c 1.1324,-2.39448 2.3151,-4.7625 3.5878,-7.08554 0.80962,2.21456 1.50022,4.47145 2.31242,6.68602 1.4129,2.84427 2.9951,5.60123 4.6223,8.32643 0.6774,1.10067 1.1615,2.32305 1.9315,3.36286 2.0134,1.56104 4.1857,2.90777 6.35,4.24921 2.532,1.33614 5.1567,2.52148 7.5909,4.0296 0.5,0.67204 0.9578,1.39168 1.3149,2.15371 0.299,1.11389 0.4789,2.26219 0.6668,3.40254 -0.2672,1.27527 -0.7276,2.50296 -1.061,3.76502 -0.2381,0.98161 -0.9022,1.76742 -1.4076,2.61938 -0.9498,1.57427 -2.0849,3.02154 -3.1273,4.52969 -1.2595,2.06375 -2.413,4.21217 -3.1115,6.53521 0,0.97366 0.1058,1.94469 0.1481,2.91835 0.9102,-0.24871 1.8468,-0.39687 2.7464,-0.68262 1.6563,-1.51077 3.1776,-3.175 4.8974,-4.61963 1.3282,-0.96308 2.63,-1.96585 3.9873,-2.8866 1.1086,-0.53711 2.3045,-0.87313 3.4475,-1.33615 1.2832,-0.55827 2.6961,-0.63235 4.0587,-0.889 1.3759,-0.20902 2.7438,-0.51329 4.1302,-0.65616 3.2649,-0.0159 6.5325,-0.10055 9.7869,0.23547 2.1564,0.26459 4.3868,0.10848 6.4718,0.82021 -1.8468,1.1774 -3.6354,2.45534 -5.5351,3.54542 -1.5928,0.65087 -3.1168,1.55575 -4.8419,1.81504 -1.9526,0.40481 -3.9132,0.76465 -5.8579,1.20386 -1.2621,0.51593 -2.659,0.95514 -3.5137,2.09285 -2.0425,1.97908 -3.5348,4.4106 -5.1911,6.7019 -3.2358,5.14085 -6.7045,10.17852 -9.1413,15.76652 -0.3493,1.33614 -0.6985,2.67493 -0.9578,4.03225 0.1138,3.08504 0.4445,6.1595 0.7593,9.23131 0.077,1.88119 -0.1137,3.75973 -0.1217,5.64091 2.7702,-0.64558 5.1885,-2.26483 7.8767,-3.14325 2.1828,-0.46037 4.3444,-1.04775 6.5431,-1.41552 2.1458,0.1323 4.281,0.4445 6.4267,0.59796 -1.0239,0.91546 -2.0928,1.78329 -3.13,2.68288 -0.5212,0.41275 -0.7117,1.07685 -1.0054,1.64835 -0.3149,0.72761 -0.7514,1.41288 -0.9631,2.18281 0.7832,2.4183 2.159,4.56936 3.4608,6.7363 -1.9474,0.15081 -3.8894,0.34395 -5.8394,0.46302 -3.085,0.005 -6.1701,-0.11113 -9.2525,-0.0926 -2.5082,0.31485 -5.0376,0.57943 -7.5221,1.01335 -2.1087,1.05304 -4.2148,2.11929 -6.2891,3.23585 -1.5955,1.48432 -3.0586,3.1168 -4.6038,4.66196 -2.2172,2.13519 -3.8603,4.76779 -5.8896,7.06702 -1.14302,1.08215 -2.34692,2.10344 -3.48192,3.1935 -0.5821,-0.67731 -1.2303,-1.29646 -1.7833,-1.99758 -0.4551,-1.00277 -0.8308,-2.05055 -1.1563,-3.10092 -0.024,-2.37066 -0.069,-4.79689 0.7938,-7.0485 0.4895,0.91546 0.8149,1.92088 1.3732,2.7993 0.799,0.73818 1.7304,1.32291 2.5929,1.98702 1.57162,-2.16165 3.22002,-4.26773 4.94242,-6.31032 1.6193,-1.91558 2.8681,-4.14337 4.744,-5.83406 1.1509,-1.14035 2.3363,-2.24896 3.4608,-3.41577 0.8202,-1.06098 1.4525,-2.2516 2.1933,-3.3655 0.5795,-0.74877 0.2699,-1.74625 0.344,-2.61408 0.077,-3.14854 -0.1191,-6.29444 -0.3889,-9.42975 -0.2831,-1.62984 -0.5874,-3.25438 -0.8943,-4.87627 -0.3122,-1.23561 0.3069,-2.43682 0.4789,-3.64332 0.4524,-2.64583 1.5425,-5.1091 2.4368,-7.62 2.3336,-3.35227 5.1567,-6.33677 7.8237,-9.42445 -2.3548,1.25941 -4.4688,2.98714 -7.0088,3.88143 -1.1801,0.508 -2.4077,0.90488 -3.5507,1.48432 -0.6668,0.56356 -1.2065,1.25677 -1.8204,1.87325 -1.1324,1.06891 -1.7489,2.52677 -2.5373,3.84175 -0.5795,1.41552 -1.0001,2.89983 -1.4261,4.37091 -0.1217,3.04006 -0.3546,6.08542 -1.0054,9.06463 -0.5848,-1.28059 -1.0769,-2.6035 -1.5875,-3.91319 -0.471,-1.64571 -0.6774,-3.35227 -1.069,-5.0165 -0.3042,-1.18269 -0.1111,-2.40242 -0.098,-3.60098 0.037,-0.9869 -0.056,-2.00028 0.2673,-2.9501 0.4709,-1.4605 0.7011,-3.01096 1.4234,-4.3815 0.5953,-1.17211 1.1033,-2.38655 1.7357,-3.53748 0.979,-1.53194 2.0611,-2.99773 3.0374,-4.52967 -2.6591,0.46831 -5.289,1.12183 -7.9772,1.41023 -1.815,0.2196 -3.62742,0.49742 -5.44242,0.69585 -1.2198,-0.23283 -2.3892,-0.67468 -3.5904,-0.97102 -1.6219,-0.34395 -2.7755,-1.62454 -4.1117,-2.5056 3.0216,-0.2831 6.0511,-0.46567 9.0752,-0.70911 1.0399,-0.71438 1.92622,-1.63513 2.91572,-2.41829 0.8255,-0.635 1.2039,-1.63513 1.7516,-2.48709 0.807,-1.28852 1.2647,-2.75431 1.987,-4.08781 0.8784,-0.82021 1.7648,-1.8071 3.0136,-2.00819 1.5134,-0.46831 3.0718,-0.75935 4.6382,-0.99218 1.4261,-0.14817 2.6246,-0.99748 3.884,-1.60338 1.3203,-1.15094 2.4342,-2.62996 2.7861,-4.38414 -0.3043,-0.9869 -0.6773,-1.96057 -1.1245,-2.88925 -0.7249,-0.78052 -1.5663,-1.4605 -2.4024,-2.11667 -2.6538,-0.10319 -5.2043,0.80169 -7.7523,1.42875 -0.7752,0.21167 -1.5901,0.13229 -2.3812,0.12965 1.9499,-1.35467 3.8311,-2.80459 5.58,-4.41855 -2.1405,-1.31233 -4.1566,-2.83368 -5.9505,-4.58787 -1.6827,-2.77813 -3.2676,-5.61975 -4.6963,-8.53811 -0.6535,-1.09272 -0.8546,-2.36008 -1.24622,-3.55335 -1.4817,1.79388 -2.4421,3.91054 -3.2914,6.05631 -1.2171,4.15661 -2.3072,8.50371 -1.7436,12.86404 0.05,1.905 1.1059,3.56394 1.733,5.31548 0.9763,1.7833 2.0214,3.58511 2.4897,5.57742 -0.2063,1.82033 -0.5635,3.66713 -1.5213,5.25727 -0.6721,0.50271 -1.4076,0.92075 -2.1405,1.32821 -0.9049,0.09 -1.8468,0.13494 -2.7411,-0.0265 -1.016,-0.74348 -2.069,-1.45785 -3.003,-2.29923 -1.3573,-3.40254 -1.86,-7.05379 -3.0083,-10.52248 -0.4313,0.037 -0.8943,-0.0609 -1.2938,0.11906 -1.1589,2.6035 -1.6881,5.42661 -2.4659,8.15446 -0.3652,2.93423 -1.2012,5.77056 -1.9394,8.62542 -0.3757,1.1086 -0.04,2.27012 -0.027,3.40519 0.019,2.86543 1.0821,5.57477 1.434,8.40052 0.2064,2.22514 1.315,4.20158 2.2331,6.19654 2.5347,3.5851 5.6647,6.87916 7.1279,11.094 0.2857,1.57163 0.5529,3.1459 0.836,4.72017 0.1641,0.81492 -0.1243,1.6219 -0.2434,2.42623 -0.2989,1.47637 -0.508,2.96862 -0.844,4.43971 -1.7145,5.56948 -4.3709,10.78177 -7.1305,15.89617 -1.0822,1.82033 -1.7066,3.85762 -2.3839,5.84993 -0.1931,2.89719 -0.042,5.82348 0.6562,8.65188 0.5238,2.56646 1.1694,5.10381 1.9288,7.61206 0.7831,2.7649 1.4181,5.56681 2.1907,8.33438 -2.0849,-1.96321 -4.183,-3.9238 -6.0431,-6.10926 -1.2329,-1.51342 -2.9395,-2.53735 -4.183,-4.03754 -0.5292,-0.60852 -1.0531,-1.21973 -1.5902,-1.81504 1.4394,-1.44463 3.0269,-2.75429 4.4397,-4.2095 -0.087,-2.48708 -0.3519,-4.96623 -0.8281,-7.40836 -0.3043,-0.99218 0.3519,-1.87854 0.6456,-2.78077 0.5953,-1.62718 1.3335,-3.20675 1.8362,-4.86039 -0.3598,-2.54265 -0.7276,-5.09323 -1.1483,-7.62794 -1.1351,-2.11932 -2.5321,-4.10369 -3.5639,-6.28915 -0.9367,-1.36789 -0.5424,-3.09298 -0.7806,-4.63814 -0.2513,-1.32292 0.1641,-2.61406 0.3969,-3.89996 0.095,-1.10596 1.0716,-1.78594 1.6642,-2.64054 0.5345,0.48154 1.106,0.92604 1.5928,1.4605 0.6721,1.06627 0.8335,2.41564 1.5637,3.44752 2.3098,1.78064 4.5376,3.73856 7.2708,4.8551 0.5371,-1.26206 1.0715,-2.52148 1.6483,-3.76502 -0.6826,-1.47373 -1.2144,-3.04006 -2.2754,-4.29948 -1.5055,-2.32833 -3.4819,-4.27567 -5.3022,-6.34735 -1.614,-1.82034 -3.4158,-3.47134 -5.0086,-5.3049 -1.106,-2.18017 -2.1749,-4.38415 -3.2227,-6.59342 -0.3016,-1.60337 -0.2884,-3.24908 -0.4894,-4.86833 -0.2514,-1.33879 0.4101,-2.6035 0.7858,-3.85498 0.5476,1.65894 1.0345,3.3364 1.6192,4.98475 0.979,1.60338 2.1908,3.06123 3.4952,4.41325 0.3677,-0.45508 0.8202,-0.8546 1.1086,-1.36789 -0.2408,-1.38907 -0.5504,-2.7649 -0.8017,-4.1487 -0.3757,-2.65377 -1.8203,-4.97943 -2.6035,-7.50887 -0.037,-1.59012 -0.069,-3.18823 0.026,-4.77573 0.4895,-3.19088 0.979,-6.38175 1.5478,-9.55675 0.3598,-2.61144 0.4419,-5.25198 0.7647,-7.86606 0.2566,-1.77007 0.5926,-3.5269 0.8572,-5.29432 0.2011,-1.25148 -0.3519,-2.57175 0.2037,-3.76502 1.7251,-4.65931 3.6539,-9.24454 5.1938,-13.97 -0.262,3.70417 -0.5689,7.40569 -0.8149,11.10721 0.2116,1.20386 0.4974,2.39977 0.8043,3.58246 0.5477,0.9234 1.2091,1.78329 1.8971,2.60879 1.1932,1.10861 2.4553,2.14844 3.683,3.22792 -0.1191,-2.09021 -0.3916,-4.16719 -0.4392,-6.2574 0.2857,-1.69069 0.754,-3.34962 1.1033,-5.02708 0.1666,-1.00013 0.8096,-1.80975 1.27,-2.68552 1.0981,-2.00023 2.3125,-3.94227 3.2729,-6.0166 z"
       id="path141"
       style="display:inline;opacity:0.272848;fill:#000000;stroke-width:0.264583" />
    <path
       fill="#ffffff"
       d="m 883.99388,400.27791 c 1.1695,-0.16666 2.3257,-0.42333 3.5031,-0.51858 2.2701,0.11112 4.5403,0.29898 6.8077,0.47096 0.9896,0.46831 1.9315,1.05304 2.8496,1.65102 0.6959,0.76994 1.2436,1.66159 1.8706,2.48973 -2.151,0.44715 -4.3206,0.82815 -6.5193,0.91546 -1.27,-0.082 -1.8997,1.20121 -2.7305,1.9341 0.426,0.69586 0.7249,1.47638 1.2356,2.12196 1.135,0.90752 2.4474,1.58486 3.5586,2.52413 0.5583,1.37054 1.1801,2.7305 1.6166,4.14337 -0.336,2.09286 -0.881,4.16719 -1.8494,6.05896 -1.2832,1.35996 -2.7358,2.55852 -4.0217,3.91848 -0.5662,0.49742 -0.889,1.18269 -1.2276,1.8415 1.397,0.18785 2.7807,0.54239 4.1883,0.61383 2.4395,-0.91016 4.8551,-1.905 7.1067,-3.22262 2.4448,-1.14036 4.3074,-3.16971 6.6384,-4.49263 1.1986,-0.70908 2.368,-1.46579 3.5798,-2.14841 -0.3836,1.44727 -0.7964,2.8866 -1.1827,4.33387 -0.085,0.37306 -0.3016,0.69585 -0.5503,0.98425 -1.5425,1.81504 -3.0586,3.65125 -4.6196,5.45306 -0.6535,0.74877 -1.2462,1.57427 -2.0691,2.15636 -1.3387,0.96308 -2.5585,2.11931 -4.0825,2.79929 -3.3284,1.75948 -6.7283,3.37873 -10.1467,4.95829 1.3943,0.93398 2.7992,1.86002 4.1645,2.83633 1.3891,1.13242 2.749,2.29659 4.1196,3.45282 -1.9156,1.29114 -3.818,2.59818 -5.7177,3.91054 -0.8096,0.60589 -1.86,0.65087 -2.8019,0.92339 -3.2015,0.6985 -6.358,1.57692 -9.5303,2.39184 -1.7489,-0.045 -3.4555,-0.62442 -5.2017,-0.73554 -1.4129,0.32014 -2.7967,0.77522 -4.2095,1.10595 -0.5954,1.15359 -1.2356,2.28601 -1.7913,3.4634 -0.1878,1.10596 -0.098,2.24367 -0.2222,3.36286 -0.026,1.07156 -0.3069,2.18019 0.042,3.23056 0.2143,0.76994 0.4313,1.54252 0.6297,2.3204 0.9313,-0.0212 1.8679,0.0688 2.794,-0.0503 3.2253,-3.05594 6.1568,-6.40821 9.2366,-9.60703 1.5293,-0.63764 3.138,-1.09272 4.7096,-1.62718 1.696,-0.40217 3.4396,-0.56622 5.1541,-0.88107 1.77,-0.35719 3.5824,-0.28046 5.3736,-0.37306 -2.3362,1.08479 -4.7916,1.92617 -7.1093,3.05329 -1.6748,1.87325 -3.2015,3.87086 -4.7572,5.84465 -0.5451,0.58208 -0.3704,1.44198 -0.516,2.16958 1.1007,-0.037 2.2146,0.0767 3.3126,-0.0556 3.0666,-1.55046 5.9452,-3.43694 8.8609,-5.25198 0.9843,-0.66939 2.1961,-0.80962 3.3047,-1.1721 1.1509,-0.2884 2.2621,-0.79375 3.4634,-0.82286 2.0029,-0.0688 4.0031,-0.38364 6.0087,-0.20902 2.0954,0.21167 4.1962,0.37306 6.2944,0.56356 -4.482,2.04523 -9.1387,3.7465 -13.4038,6.23888 -1.27,0.93398 -2.5612,1.8415 -3.8127,2.80194 -0.844,0.83079 -1.6086,1.74625 -2.3627,2.66171 -0.6032,1.02129 -1.0424,2.12989 -1.5557,3.19881 1.4367,0.0847 2.8575,0.38896 4.2995,0.41807 1.2038,-0.45247 2.2965,-1.16946 3.5136,-1.58221 1.0848,-0.0212 2.1669,0.11639 3.2544,0.15875 0,0.86519 0.2725,1.76739 0.061,2.61144 -0.6006,0.89958 -1.2065,1.79649 -1.8786,2.64583 -0.8942,0.53972 -1.8388,1.05039 -2.8257,1.38642 -2.0823,0.0582 -4.1619,0.39952 -6.2468,0.24868 -3.6301,-0.36513 -7.2655,-0.68792 -10.9167,-0.72761 -2.1934,0.0556 -4.3418,-0.45243 -6.5141,-0.6773 2.7623,-1.5928 5.6701,-2.90513 8.5937,-4.16984 0.1191,-0.6006 0.2408,-1.20121 0.344,-1.80184 -3.1988,0.49477 -6.4082,0.91549 -9.6203,1.31236 -1.4922,0.35984 -2.9739,0.83344 -4.3974,1.40227 -0.5027,0.67204 -0.9498,1.39435 -1.3229,2.14842 -0.3201,2.07436 -0.68,4.15398 -0.7699,6.25475 0.082,1.60869 -1.1113,2.84162 -1.7066,4.24656 -2.7437,-0.045 -5.498,0.10848 -8.2365,-0.09 -3.4131,-0.5424 -6.8474,0.11639 -10.2737,0.14285 2.4976,-1.68804 4.8709,-3.61418 7.6332,-4.86834 1.053,-0.54766 2.1458,-1.02658 3.1697,-1.62716 0.6324,-1.27796 1.0187,-2.66173 1.5716,-3.97404 0.4816,-1.04248 0.3678,-2.20927 0.5239,-3.31523 0.2143,-2.83898 0.5212,-5.67002 0.7514,-8.509 0.013,-1.33879 -0.1402,-2.67493 -0.1349,-4.01373 -4.3947,0.39426 -8.7762,0.90752 -13.1604,1.38377 3.1459,-1.8997 6.4479,-3.54277 9.6308,-5.38427 0.8176,-1.10331 1.4209,-2.38919 2.0373,-3.61685 -0.3254,-2.32834 -0.7646,-4.64344 -1.1588,-6.96119 1.2805,0.40481 2.5611,0.82021 3.8391,1.23296 2.3362,0.8837 4.8551,0.99483 7.2866,1.47108 3.2173,0.69056 6.5246,0.44185 9.7896,0.56356 1.5822,0.11642 3.1273,-0.29898 4.6513,-0.65352 0.9869,-0.46037 1.8945,-1.07685 2.8284,-1.63512 -1.016,-0.42069 -1.9923,-0.9525 -3.0374,-1.30175 -1.9632,-0.39159 -3.9555,-0.64556 -5.916,-1.05569 -6.9718,-1.85738 -13.9145,-3.8444 -20.7222,-6.24152 -1.7383,-0.40746 -2.9686,-1.78329 -4.3471,-2.82046 5.0588,0.68527 10.1018,1.4949 15.1447,2.29394 2.4633,-0.0185 4.9266,-0.22754 7.3898,-0.30692 1.8733,-0.53181 3.7148,-1.19592 5.5589,-1.82827 1.7436,-0.82285 3.4608,-1.70392 5.1806,-2.57969 -5.9161,-0.14023 -11.8243,-0.47625 -17.7139,-1.03716 -4.8657,-0.99481 -9.6837,-2.21986 -14.4991,-3.4343 4.3338,-0.45773 8.6836,-0.79639 13.036,-1.02923 2.4685,-0.11112 4.9424,-0.18785 7.403,-0.39687 2.6432,-0.6694 5.2917,-1.34408 7.9243,-2.06375 0.8043,-0.48683 1.3467,-1.32821 2.032,-1.97115 1.6245,-1.59279 3.0004,-3.40783 4.4265,-5.1726 -0.3175,-1.57956 -0.6747,-3.14854 -0.9631,-4.73075 -2.0267,-0.73554 -4.0032,-1.68804 -6.1489,-2.02406 -0.9208,-0.16404 -1.823,-0.42069 -2.7517,-0.53446 -1.8627,0.1614 -3.6751,0.80433 -5.5615,0.70115 -1.6669,-0.0767 -3.3788,0.20105 -5.0033,-0.29369 -1.4552,-0.36777 -2.921,-0.68527 -4.3683,-1.08215 3.384,-1.72773 6.7601,-3.47662 10.0542,-5.37633 1.897,-1.16152 4.0455,-1.78594 6.0775,-2.65906 1.1827,-0.53184 2.5003,-0.56624 3.757,-0.80701 z"
       id="path143"
       style="display:inline;opacity:0.272848;fill:#000000;stroke-width:0.264583" />
    <path
       d="m 1051.2609,400.15885 c 2.704,-0.0423 5.4345,-0.72496 8.1174,-0.11906 1.5557,0.29633 3.1538,0.40481 4.6831,0.83079 1.9341,0.80698 3.9449,1.44727 5.8103,2.41035 3.5745,2.04523 7.2099,3.97933 10.8849,5.83936 -1.4473,0.39687 -2.913,0.71437 -4.3656,1.08214 -1.8045,0.52123 -3.7015,0.20108 -5.5483,0.29369 -2.1828,0.0767 -4.3313,-1.15358 -6.4902,-0.42865 -2.5903,0.3625 -5.0139,1.33085 -7.4295,2.286 -0.2885,1.58221 -0.6456,3.15118 -0.9631,4.73075 1.9261,2.49766 4.0058,4.87362 6.2733,7.06702 2.6749,0.79639 5.4027,1.43669 8.1068,2.14048 2.4606,0.20902 4.9345,0.28575 7.4057,0.39687 4.3524,0.23548 8.7021,0.56886 13.036,1.02923 -4.8154,1.21444 -9.6335,2.43946 -14.5018,3.43429 -5.887,0.56095 -11.7978,0.89959 -17.7112,1.03717 2.4182,1.1774 4.7439,2.60085 7.3554,3.32317 1.4578,0.39952 2.8416,1.19327 4.3921,1.14564 2.1299,0.0132 4.2518,0.26723 6.3844,0.24342 5.0403,-0.7964 10.0832,-1.60602 15.1421,-2.29129 -0.9763,0.80433 -1.9606,1.60337 -3.0004,2.31775 -5.2679,1.95791 -10.6653,3.55864 -16.0629,5.11175 -2.7675,0.69321 -5.4716,1.651 -8.3026,2.05316 -1.2065,0.22225 -2.4236,0.38365 -3.6222,0.635 -1.0451,0.34925 -2.0187,0.88107 -3.0347,1.30175 0.9313,0.55563 1.8362,1.17211 2.8231,1.63248 1.4366,0.33073 2.8945,0.74084 4.3868,0.65882 2.5214,-0.0608 5.0456,-0.0291 7.5644,-0.17463 2.6379,-0.40217 5.2705,-0.83873 7.9031,-1.28323 1.9209,-0.55827 3.81,-1.22237 5.7203,-1.81769 -0.3969,2.3204 -0.8361,4.6355 -1.1615,6.96648 0.4471,1.03717 1.0662,1.99497 1.5901,3.00038 0.3043,0.75671 1.1457,0.98161 1.7886,1.37584 2.794,1.55045 5.6171,3.05064 8.39,4.64343 -4.4186,-0.49479 -8.8345,-1.00012 -13.261,-1.40493 0.01,1.78064 -0.2831,3.56658 -0.024,5.34191 0.3334,3.23059 0.5372,6.47964 0.8943,9.70759 0.5874,1.59279 1.1272,3.22259 1.8416,4.76514 2.196,1.27794 4.6434,2.11931 6.6886,3.65387 1.3653,0.9525 2.7729,1.84679 4.1116,2.84163 -3.4396,-0.0265 -6.8871,-0.68528 -10.3161,-0.13759 -2.7252,0.18788 -5.4636,0.0423 -8.1915,0.0847 -0.5159,-1.08214 -1.2065,-2.0902 -1.6219,-3.21204 -0.127,-2.44739 -0.4498,-4.87894 -0.8546,-7.29453 -0.3784,-0.75145 -0.8228,-1.47111 -1.3229,-2.14315 -1.8547,-0.68792 -3.7491,-1.41817 -5.7415,-1.58221 -2.7675,-0.30692 -5.5218,-0.72496 -8.2761,-1.13242 0.1005,0.60061 0.2222,1.20121 0.3413,1.80184 2.9236,1.26471 5.834,2.5744 8.5963,4.17248 -1.5558,0.18785 -3.1062,0.42069 -4.6593,0.62177 -3.22,0.11639 -6.4506,0.1138 -9.652,0.49742 -1.7119,0.09 -3.4158,0.42333 -5.1329,0.30691 -1.1589,-0.0741 -2.3152,-0.18259 -3.4767,-0.22227 -1.2779,0.045 -2.3336,-0.80166 -3.4316,-1.32819 -0.6985,-0.64296 -1.1298,-1.52929 -1.7145,-2.2675 -0.7673,-0.86519 -0.217,-2.07433 -0.254,-3.09827 1.0848,-0.0423 2.1669,-0.17994 3.2543,-0.15875 1.6299,0.44183 3.0269,1.96847 4.8234,1.49487 0.9922,-0.13494 1.987,-0.24604 2.9898,-0.33073 -0.59,-1.16414 -1.0001,-2.43946 -1.7806,-3.4925 -0.8943,-0.95779 -1.6431,-2.07963 -2.7358,-2.8284 -1.778,-1.24354 -3.429,-2.70668 -5.4558,-3.54277 -3.6062,-1.9341 -7.4665,-3.31523 -11.168,-5.03766 3.3311,-0.1958 6.6569,-0.85461 9.9986,-0.50007 1.3732,0.1614 2.7966,0.0132 4.1196,0.48684 1.471,0.48683 3.0189,0.762 4.4502,1.35995 3.1063,1.87325 6.1199,3.91584 9.3716,5.54567 1.0927,0.13229 2.2066,0.0185 3.3099,0.0556 -0.1508,-0.7276 0.029,-1.5875 -0.5186,-2.16958 -1.5531,-1.97379 -3.0797,-3.97404 -4.7545,-5.842 -2.3178,-1.12712 -4.7731,-1.97115 -7.112,-3.05594 1.6959,0.0979 3.4078,0.005 5.0852,0.32544 1.3124,0.21431 2.6274,0.42862 3.9423,0.62706 1.6934,0.20902 3.2623,0.92604 4.8816,1.42346 0.5451,0.21696 1.2039,0.28311 1.606,0.76465 2.9501,3.15118 5.8394,6.36852 8.9615,9.35037 0.9234,0.11642 1.8626,0.0291 2.794,0.045 0.2381,-1.07421 0.6509,-2.11137 0.8016,-3.20146 -0.045,-1.68275 -0.2381,-3.35491 -0.2619,-5.03502 0.034,-0.64558 -0.336,-1.18798 -0.6165,-1.73302 -0.4286,-0.79904 -0.8361,-1.60867 -1.2647,-2.40507 -1.4155,-0.33337 -2.7967,-0.78316 -4.2121,-1.10595 -1.0478,0.0529 -2.0717,0.32808 -3.1089,0.47625 -0.8413,0.0926 -1.7012,0.44185 -2.54,0.15875 -3.0956,-0.84932 -6.2045,-1.651 -9.3345,-2.35215 -0.8652,-0.23812 -1.8203,-0.30162 -2.5532,-0.86519 -1.8971,-1.31233 -3.7994,-2.61673 -5.7097,-3.90525 1.8706,-1.53458 3.6221,-3.22791 5.67,-4.53231 0.8652,-0.59267 1.733,-1.18269 2.6115,-1.75948 -3.7757,-1.74096 -7.5248,-3.54542 -11.1893,-5.50862 -1.0213,-0.64294 -1.9288,-1.44198 -2.9025,-2.14313 -1.0424,-0.71702 -1.7515,-1.77535 -2.5823,-2.69875 -1.5346,-1.81239 -3.0956,-3.60627 -4.5746,-5.45835 -0.5847,-1.58221 -0.9287,-3.25702 -1.4023,-4.87627 2.1669,1.30968 4.4106,2.51618 6.3897,4.10898 2.8998,2.33891 6.3103,3.94493 9.7578,5.30754 0.5186,0.17991 1.0319,0.5371 1.6087,0.43921 1.2514,-0.19315 2.5029,-0.40217 3.7544,-0.6059 -0.979,-2.12196 -3.0163,-3.45017 -4.6038,-5.08529 -0.8281,-0.6059 -1.0662,-1.62719 -1.4314,-2.52413 -0.5635,-1.34143 -0.7884,-2.79135 -1.0609,-4.20952 0.2672,-1.03981 0.7831,-2.00025 1.1403,-3.01096 0.2302,-0.47095 0.2858,-1.08743 0.7647,-1.38641 1.0689,-0.78582 2.2225,-1.45257 3.2702,-2.27013 0.508,-0.64558 0.807,-1.4261 1.2356,-2.1246 -0.8334,-0.73025 -1.4631,-2.01348 -2.7305,-1.93146 -2.1987,-0.0873 -4.363,-0.46831 -6.5087,-0.91546 0.8387,-1.03717 1.3996,-2.40771 2.667,-3.00831 0.897,-0.43386 1.6854,-1.25143 2.7464,-1.2038 z"
       id="path145"
       style="display:inline;opacity:0.272848;fill:#000000;stroke-width:0.264583" />
    <path
       fill="#ffffff"
       d="m 920.33708,460.4521 c 1.3123,-0.18785 2.6141,-0.46566 3.937,-0.59796 1.3626,-0.0185 2.7252,0.0397 4.0905,0.0926 -1.1907,0.97102 -2.4131,1.90235 -3.609,2.86279 -0.4339,0.30692 -0.6138,0.82021 -0.8413,1.27794 -0.4022,0.88635 -0.9578,1.73566 -1.0398,2.7305 0.1455,0.63235 0.6191,1.16416 0.6138,1.8415 0.1614,2.28862 1.0028,4.699 2.9422,6.06422 1.4949,0.58211 3.0215,1.07953 4.4767,1.76744 0.9975,-0.13758 1.9897,-0.35983 2.958,-0.63235 0.6906,-0.41804 1.2065,-1.06892 1.8204,-1.58486 0.3386,-0.35718 0.8281,-0.6456 0.9313,-1.16152 0.3413,-1.44198 0.6482,-2.89192 0.9975,-4.32858 1.188,0.76994 2.4289,1.4605 3.5983,2.26481 0.9631,0.7911 1.8309,1.69862 2.7729,2.52148 0.2328,0.23283 0.6746,0.48683 0.455,0.89164 -0.6032,2.56649 -1.8176,4.91334 -2.8284,7.33163 -0.5847,1.30173 -1.09,2.64054 -1.7224,3.9211 -2.8972,-1.60867 -5.7018,-3.38934 -8.5963,-5.00062 -2.3707,-0.69321 -4.8313,-1.06892 -7.202,-1.75684 -1.6959,-1.02393 -3.3575,-2.11931 -4.9847,-3.24905 -0.6959,-1.18801 -1.2515,-2.45269 -1.905,-3.66451 -0.7699,-1.38906 -1.0927,-2.96066 -1.6351,-4.43971 -0.8017,-1.81768 -0.2249,-3.82058 -0.2673,-5.72823 1.6828,-0.46035 3.2915,-1.20912 5.0377,-1.42343 z"
       id="path147"
       style="display:inline;opacity:0.272848;fill:#000000;stroke-width:0.264583" />
    <path
       d="m 1016.4973,459.94675 c 1.3599,-0.0556 2.7199,-0.10848 4.0825,-0.0926 1.3229,0.13494 2.6299,0.41011 3.9476,0.59796 1.7436,0.21431 3.3522,0.96308 5.035,1.42346 0.029,1.47108 0.2011,2.94746 0.1323,4.41854 -0.7144,2.17752 -1.2515,4.445 -2.3945,6.45054 -0.5292,0.97899 -0.971,2.00819 -1.5452,2.96336 -1.0636,0.80166 -2.2304,1.46048 -3.3284,2.21457 -0.717,0.43653 -1.3732,1.03184 -2.2172,1.21179 -1.7198,0.39158 -3.4396,0.79375 -5.1594,1.18798 -0.6191,0.14819 -1.2753,0.22754 -1.8283,0.5662 -2.7569,1.59809 -5.4716,3.26761 -8.247,4.826 -1.196,-2.57704 -2.2569,-5.21493 -3.4105,-7.80785 -0.5133,-1.10331 -0.8044,-2.286 -1.143,-3.44487 -0.2249,-0.40482 0.2143,-0.65882 0.4551,-0.89165 0.9392,-0.82285 1.8071,-1.73038 2.7754,-2.52413 1.1668,-0.80166 2.4078,-1.49222 3.5957,-2.26216 0.344,1.42611 0.6509,2.86544 0.9896,4.29684 0.087,0.53446 0.59,0.82814 0.9419,1.19591 0.6112,0.51594 1.1271,1.16417 1.8177,1.58221 0.9684,0.27517 1.9605,0.49213 2.9607,0.63236 1.4499,-0.69057 2.9792,-1.18534 4.4741,-1.76745 1.9288,-1.35996 2.7754,-3.75708 2.9368,-6.03512 -0.063,-0.8546 0.8494,-1.51077 0.5345,-2.36275 -0.3466,-1.14565 -0.9181,-2.23309 -1.5187,-3.25964 -1.2515,-1.09278 -2.6114,-2.05587 -3.8867,-3.11949 z"
       id="path149"
       style="display:inline;opacity:0.272848;fill:#000000;stroke-width:0.264583" />
    <path
       fill="#ffffff"
       d="m 929.65308,464.1986 c 1.2858,-0.32544 2.7358,-0.20373 3.8735,0.51329 1.3388,1.21179 1.3414,3.20146 1.1377,4.8604 -0.1984,2.19871 -2.5559,4.08519 -4.7413,3.30729 -1.696,-0.77525 -3.3021,-1.96588 -4.0931,-3.70417 -0.071,-0.59266 -0.071,-1.19327 0,-1.78064 0.7858,-1.50813 2.114,-2.83634 3.8258,-3.19617 z"
       id="path151"
       style="display:inline;opacity:0.272848;fill:#000000;stroke-width:0.264583" />
    <path
       d="m 1012.2269,464.29914 c 2.5426,-0.97102 5.7706,0.60061 6.3288,3.31788 0.3519,2.07698 -1.1297,3.96081 -2.876,4.89744 -1.0874,0.70114 -2.6009,0.71175 -3.6804,-0.005 -2.2939,-1.26997 -3.0903,-4.51112 -1.7118,-6.7257 0.5001,-0.65882 1.1086,-1.28059 1.9394,-1.48432 z"
       id="path153"
       style="display:inline;opacity:0.272848;fill:#000000;stroke-width:0.264583" />
    <path
       fill="#ffffff"
       d="m 948.11568,478.21887 c 1.3097,-1.93413 2.585,-3.8894 3.8894,-5.82083 -0.553,2.667 -0.9022,5.38692 -1.7172,7.99306 -0.246,0.94189 -0.5847,1.86002 -0.754,2.82046 0.1217,1.21179 0.2831,2.42356 0.5106,3.62212 0.4022,1.3335 0.8335,2.66438 1.2806,3.9873 0.6271,0.69847 1.4473,1.23557 2.2331,1.7568 1.0848,0.43392 2.1907,0.82815 3.3046,1.18536 3.273,0.21164 6.6913,0 9.787,1.29908 -2.2357,1.66688 -4.4265,3.39992 -6.432,5.34196 -2.7676,3.43959 -5.5325,6.88182 -8.1439,10.44311 0.029,-3.21733 -0.299,-6.4479 0.1005,-9.652 0.093,-1.0504 0.2435,-2.10347 0.2249,-3.15651 -0.1428,-1.21179 -0.3783,-2.41035 -0.5979,-3.60891 -2.5135,-1.42346 -4.8683,-3.09563 -7.2919,-4.66196 0.8599,-2.87602 1.7912,-5.73085 2.5664,-8.63071 0.3254,-0.98158 0.4233,-2.06372 1.0398,-2.91833 z"
       id="path155"
       style="display:inline;opacity:0.272848;fill:#000000;stroke-width:0.264583" />
    <path
       d="m 992.89638,472.51446 c 1.4499,2.08756 2.8893,4.20158 4.2281,6.36322 1.0504,3.63538 2.0928,7.27605 3.22792,10.88758 -2.42362,1.56901 -4.77842,3.24115 -7.29202,4.66461 -0.2222,1.19856 -0.4577,2.39715 -0.5979,3.60891 -0.021,1.05834 0.1323,2.11667 0.2249,3.17236 0.3969,3.19884 0.069,6.42408 0.1006,9.63612 -1.7516,-2.32833 -3.474,-4.67786 -5.334,-6.9215 -1.3706,-1.62189 -2.4951,-3.47662 -4.1937,-4.78896 -1.5848,-1.47637 -3.3284,-2.76222 -5.0482,-4.07458 2.6881,-1.11654 5.6462,-1.13504 8.509,-1.22767 1.5636,0.11113 2.9527,-0.72231 4.4026,-1.17472 0.8758,-0.48948 1.7251,-1.11125 2.413,-1.83885 0.8784,-2.54003 1.7674,-5.14618 1.7516,-7.85816 -1.0398,-3.42632 -1.8177,-6.91618 -2.3919,-10.44836 z"
       id="path157"
       style="display:inline;opacity:0.272848;fill:#000000;stroke-width:0.264583" />
    <path
       fill="#ffffff"
       d="m 904.79808,481.27746 c 2.5638,-0.44712 5.1409,-0.7964 7.7497,-0.72232 -0.8149,1.07418 -1.5584,2.20663 -2.0214,3.48192 -0.3837,0.58737 0.055,1.23029 0.3016,1.78065 0.8757,0.65616 1.8653,1.15093 2.8178,1.69333 5.8949,2.18546 12.2052,2.73047 18.3647,3.75973 2.6167,0.28043 5.2414,0.48419 7.8555,0.80433 -0.889,1.80443 -2.1855,3.76502 -1.6748,5.8605 0.3678,0.12967 0.7355,0.38631 1.1483,0.27516 2.3733,-0.37571 4.7651,-0.64291 7.0829,-1.2991 0.2196,0.98427 0.7091,1.94471 0.5715,2.98185 -0.299,4.58526 -0.4816,9.19163 -0.01,13.77156 0.011,2.92362 -0.1641,5.86317 -0.6562,8.74975 -0.4392,3.75446 -1.5293,7.38717 -2.5479,11.0146 -0.6932,2.2569 -1.143,4.60904 -2.2966,6.69396 -1.6378,2.98186 -2.204,6.37646 -3.4396,9.51971 -0.7408,1.86267 -1.0425,3.85762 -1.6431,5.76527 -0.844,2.32566 -1.7859,4.61698 -2.6088,6.9506 -0.1984,2.10609 -0.1746,4.22275 -0.045,6.3341 -0.1746,3.34963 -0.5132,6.69663 -0.4815,10.05681 -0.1217,2.16959 0.7752,4.21479 1.0927,6.33678 0.4154,2.64318 1.0875,5.23081 1.7145,7.83169 0.6403,3.04271 1.7278,5.97429 2.1246,9.06989 -1.4552,-0.7964 -2.9659,-1.4949 -4.3762,-2.36535 -1.9923,-1.54255 -3.9528,-3.12476 -6.0298,-4.55086 -1.2383,-0.77785 -1.9844,-2.06901 -2.9395,-3.13002 -1.6352,-1.8071 -3.4793,-3.41842 -5.1092,-5.22288 -0.8149,-1.53458 -1.6853,-3.06652 -2.1404,-4.75456 -0.3863,-1.35731 -0.9314,-2.66967 -1.2383,-4.04283 -0.172,-2.07433 -0.5053,-4.15925 -0.2355,-6.2362 0.1667,-1.28061 0.18,-2.57443 0.3413,-3.84969 0.6562,2.10076 1.0081,4.29419 1.6987,6.38704 0.6985,1.33612 1.389,2.68288 2.1484,3.98724 0.7779,0.97103 1.7304,1.79123 2.5691,2.71728 1.0557,1.19062 2.4977,1.91822 3.7597,2.86017 0.5742,0.45773 1.2991,0.62177 1.9976,0.8096 0.3466,-0.82815 0.807,-1.60867 1.1007,-2.45534 0.1244,-1.21973 0.164,-2.45004 0.2249,-3.66977 -0.9287,-3.68562 -2.8125,-7.00616 -4.5932,-10.33195 -0.8942,-2.21985 -1.5478,-4.53496 -2.577,-6.70457 -0.852,-1.70124 -1.1827,-3.58508 -1.5716,-5.42922 0.1322,-1.03984 0.082,-2.21986 0.7911,-3.06655 1.3758,-1.88119 2.6405,-3.84701 4.2545,-5.5377 3.0215,-3.47133 5.9081,-7.0988 8.2497,-11.06755 0.8149,-1.55837 1.9235,-2.93158 3.04,-4.28093 -0.3783,2.51619 -0.8069,5.02708 -1.0689,7.56179 0.934,-1.26997 1.4764,-2.76489 2.1537,-4.17248 0.7012,-1.60866 1.5743,-3.14851 2.0664,-4.8392 0.5477,-1.84679 1.3415,-3.63538 1.5637,-5.56419 0.1799,-1.32821 0.4921,-2.63789 0.598,-3.97139 -0.048,-4.15129 -0.1403,-8.34761 -1.1113,-12.40102 -0.9022,-1.04511 -2.1484,-1.72509 -3.5401,-1.80184 -2.0796,3.32052 -4.7096,6.42673 -5.7441,10.27644 -0.1984,1.33083 -0.9234,2.4765 -1.5981,3.61156 -0.3783,-1.47375 -0.7911,-2.94219 -1.0901,-4.42915 0.032,-1.35731 0.056,-2.72518 0.2514,-4.06665 0.8466,-2.08227 1.7568,-4.14334 2.8257,-6.12243 0.6721,-1.24092 1.1774,-2.56384 1.6563,-3.88675 -0.058,-0.68792 -0.5662,-1.28323 -0.7858,-1.93408 -1.3441,0.13756 -2.6829,0.37568 -3.9343,0.89956 -1.3124,0.56885 -2.7517,0.63235 -4.1461,0.84404 -1.8547,0.22225 -3.6459,0.75671 -5.4636,1.15094 -3.3787,0.65088 -6.2759,2.61408 -9.2472,4.23069 0.8678,-1.22767 1.8468,-2.37067 2.7517,-3.56923 0.9604,-1.47111 2.6828,-2.09285 4.0587,-3.08769 2.9263,-1.7277 5.5165,-3.96346 8.5037,-5.59329 -1.106,-0.7276 -2.1987,-1.4737 -3.3047,-2.19866 -0.4154,-0.30163 -0.9339,-0.34922 -1.4234,-0.42598 -3.4793,-0.31488 -6.7072,-1.92352 -10.2076,-2.10082 -2.8258,-0.082 -5.6516,-0.1058 -8.472,-0.28839 -2.0585,-0.1614 -4.1143,0.0979 -6.1701,0.15084 -1.3996,0.0159 -2.757,0.38097 -4.1328,0.58737 -1.5663,0.17198 -2.8707,1.12977 -4.318,1.66158 1.9209,-1.91561 3.7148,-3.98994 5.9161,-5.59329 2.323,-1.83888 4.8445,-3.47133 7.5962,-4.59055 0.9975,-0.41536 1.9526,-1.00803 3.0506,-1.11386 z"
       id="path159"
       style="display:inline;opacity:0.272848;fill:#000000;stroke-width:0.264583" />
    <path
       d="m 1032.3141,480.55514 c 2.8919,-0.0741 5.7546,0.34132 8.5857,0.889 1.4896,0.57947 2.9395,1.27 4.3974,1.92882 1.8044,1.08214 3.6433,2.13516 5.2625,3.48982 2.2622,1.62984 4.1064,3.74915 6.0696,5.71238 -1.1113,-0.42071 -2.1352,-1.04248 -3.2544,-1.43671 -4.6408,-1.0795 -9.4535,-1.13242 -14.187,-0.82285 -2.7807,0.18785 -5.6171,-0.12965 -8.3449,0.55562 -1.7092,0.29633 -3.347,0.87839 -5.0218,1.30175 -1.1721,0.28043 -2.3971,0.28043 -3.556,0.61648 -1.2568,0.74351 -2.4527,1.59015 -3.6513,2.42358 1.868,1.00013 3.5851,2.24102 5.297,3.48718 1.569,1.09273 3.212,2.07701 4.8181,3.1168 0.7302,0.48683 1.5689,0.87312 2.0875,1.61395 1.0187,1.34411 2.1114,2.63528 3.0956,4.00844 -2.5955,-1.42346 -5.117,-3.05855 -7.9692,-3.92906 -2.3918,-0.52388 -4.7519,-1.23031 -7.1914,-1.51077 -1.2488,-0.17994 -2.5294,-0.27517 -3.6989,-0.78584 -1.2514,-0.52387 -2.5902,-0.762 -3.9317,-0.9022 -0.2249,0.65352 -0.7249,1.24883 -0.7884,1.93408 0.5688,1.62983 1.2567,3.21733 2.0955,4.72545 0.799,1.47376 1.4049,3.04007 2.1087,4.55877 0.5106,0.97899 0.3784,2.11667 0.4789,3.18294 0.2937,2.08227 -0.6244,4.0508 -1.0372,6.05367 -0.4921,-0.91014 -1.1244,-1.77271 -1.3917,-2.78342 -0.8546,-4.21478 -3.7174,-7.56444 -5.9478,-11.11779 -1.3811,0.0688 -2.5771,0.74615 -3.5084,1.73569 -0.7037,2.59292 -0.8572,5.29432 -1.0636,7.96396 0.058,2.08227 -0.3043,4.18838 0.1535,6.24417 0.3122,1.61134 0.4048,3.27554 0.9604,4.83394 0.6958,2.00556 1.2038,4.08519 2.1881,5.97958 1.0054,1.98967 1.7145,4.14869 2.9951,5.99017 -0.2593,-2.53204 -0.6906,-5.04294 -1.0663,-7.55912 1.1642,1.39435 2.2939,2.83368 3.138,4.45026 2.6537,4.445 5.969,8.45346 9.3953,12.32167 1.0742,1.31763 1.9923,2.75167 3.011,4.11425 0.7091,0.84669 0.6535,2.02671 0.7911,3.06654 -0.3863,1.77271 -0.68,3.59569 -1.4923,5.24137 -0.9842,2.11932 -1.7012,4.34446 -2.5003,6.53786 -1.3732,2.8575 -3.1565,5.54569 -4.0825,8.60425 -0.2805,0.93662 -0.8255,1.85737 -0.6377,2.87337 0.095,0.95518 0.061,1.92352 0.1958,2.87867 0.2911,0.84669 0.7514,1.62719 1.1007,2.45533 0.6932,-0.18785 1.4208,-0.34922 1.9976,-0.8096 1.0187,-0.74615 2.1167,-1.38379 3.0903,-2.19075 0.8943,-0.87844 1.7383,-1.80183 2.6274,-2.68287 0.807,-0.74877 1.1959,-1.80184 1.7277,-2.74108 0.4789,-0.94986 1.1192,-1.8415 1.3309,-2.90248 0.4894,-1.80713 0.8519,-3.64861 1.3996,-5.43719 0.1614,1.3335 0.1826,2.68287 0.3572,4.01899 0.2355,1.85738 -0.061,3.72007 -0.1958,5.5748 -0.064,1.02129 -0.5053,1.96847 -0.7885,2.94217 -0.4762,1.37057 -0.7752,2.81252 -1.4816,4.09575 -0.5636,1.00012 -0.8917,2.17487 -1.7912,2.94746 -1.9209,1.96588 -4.0005,3.7888 -5.6754,5.97958 -1.0371,1.45521 -2.6855,2.24896 -4.0507,3.34169 -1.7595,1.23296 -3.2782,2.82842 -5.2441,3.74914 -0.9604,0.49477 -1.9103,1.00804 -2.8681,1.51077 0.3784,-3.04006 1.442,-5.92137 2.04,-8.91378 0.4815,-2.29661 1.1456,-4.56142 1.4155,-6.89772 0.2619,-2.13251 0.7832,-4.22804 0.9975,-6.3632 -0.027,-2.91306 0.098,-5.82612 0.024,-8.73919 -0.1297,-2.9792 0.3439,-5.98752 -0.127,-8.94559 -0.8176,-2.17752 -1.659,-4.34707 -2.4739,-6.52459 -0.6376,-1.89974 -0.9154,-3.90525 -1.6404,-5.77588 -0.9102,-2.3495 -1.5319,-4.79425 -2.3416,-7.17815 -0.455,-1.10329 -1.0107,-2.16427 -1.5081,-3.24644 -0.9419,-1.81504 -1.2806,-3.85495 -1.9023,-5.78643 -1.67482,-5.55361 -2.99252,-11.25535 -3.19352,-17.07089 -0.3176,-3.16974 0.4127,-6.32884 0.2196,-9.49855 -0.05,-2.38918 -0.1085,-4.77573 -0.2937,-7.15698 -0.1403,-1.03978 0.3466,-1.99757 0.5741,-2.98185 2.31512,0.64826 4.70692,0.9234 7.07762,1.29646 0.4101,0.11112 0.7779,-0.14288 1.151,-0.27517 0.5106,-2.09547 -0.7885,-4.05339 -1.6749,-5.86049 3.2703,-0.43656 6.5776,-0.53711 9.8267,-1.11128 5.5139,-0.87045 11.131,-1.49225 16.3935,-3.45278 0.9499,-0.5424 1.9421,-1.03717 2.8179,-1.69334 0.2407,-0.55036 0.6826,-1.19327 0.3016,-1.78064 -0.4631,-1.27532 -1.2065,-2.40777 -2.0215,-3.48195 z"
       id="path161"
       style="display:inline;opacity:0.272848;fill:#000000;stroke-width:0.264583" />
    <path
       fill="#ffffff"
       d="m 964.89818,501.35404 c 0.9049,-0.57415 1.8045,-1.15623 2.7067,-1.73038 0.5742,0.59796 1.2938,1.07424 1.7648,1.76213 0.4577,1.442 0.8943,2.89721 1.2938,4.36033 -0.5874,4.15928 -2.63,7.91104 -3.7491,11.93271 0.254,2.60617 1.7515,4.82865 2.786,7.17288 0.553,0.96044 0.4525,2.10077 0.5768,3.16971 0.053,1.83089 0.4471,3.65651 0.2223,5.4901 -0.762,-1.02923 -1.1087,-2.30454 -1.9209,-3.29935 -1.0901,-1.32821 -2.1061,-2.72521 -2.9792,-4.20158 -0.8282,-2.70936 -1.6272,-5.43719 -2.3284,-8.18092 0.389,-2.89457 1.1192,-5.73884 1.6537,-8.6069 -0.2276,-0.54237 -0.9975,-0.73818 -1.4473,-1.12183 -1.7065,0.8255 -3.6142,0.97634 -5.4451,1.35996 1.2621,-1.85473 2.241,-3.9529 3.9529,-5.45571 0.9604,-0.89432 1.7753,-1.96855 2.913,-2.65115 z"
       id="path163"
       style="display:inline;opacity:0.272848;fill:#000000;stroke-width:0.264583" />
    <path
       d="m 977.25688,499.62366 c 1.4923,1.03717 3.2041,1.81243 4.4318,3.19091 1.0133,1.10066 2.2489,2.02406 3.0189,3.3311 0.7011,1.10863 1.4367,2.19604 2.1219,3.31523 -1.8309,-0.38365 -3.7412,-0.53446 -5.4451,-1.35996 -0.4815,0.31223 -0.9763,0.60854 -1.434,0.95515 0.2778,2.1537 0.9101,4.26508 1.2462,6.41879 0.1111,0.98689 0.6059,2.00027 0.2487,2.98714 -0.7118,2.51884 -1.397,5.0509 -2.1828,7.54592 -0.8732,1.47637 -1.8892,2.87602 -2.9793,4.20423 -0.8122,0.99481 -1.1615,2.27012 -1.9208,3.302 -0.217,-1.68275 0.127,-3.35759 0.1905,-5.03502 0.079,-0.95779 0.098,-1.92352 0.2857,-2.86544 1.0319,-2.64583 2.8417,-5.05883 3.1009,-7.95073 -0.6879,-2.24896 -1.479,-4.46352 -2.3468,-6.64633 -0.6112,-1.45521 -0.8864,-3.01625 -1.2938,-4.52967 -0.2725,-0.7144 0.093,-1.41552 0.2778,-2.09285 0.3228,-0.99748 0.5635,-2.02142 0.9154,-3.00831 0.471,-0.68795 1.188,-1.1642 1.7648,-1.76216 z"
       id="path165"
       style="display:inline;opacity:0.272848;fill:#000000;stroke-width:0.264583" />
    <path
       fill="#ffffff"
       d="m 890.83868,519.10226 c 2.3151,-2.57175 4.2783,-5.42131 6.2309,-8.26823 -0.042,1.64838 -0.1243,3.29674 -0.2725,4.94245 -0.4815,2.8522 -0.9684,5.75204 -2.2516,8.3767 -0.6006,1.09009 -1.2382,2.15898 -1.8309,3.25435 4.0031,-0.78052 7.7735,-2.36005 11.6814,-3.48718 -1.3706,1.78329 -2.6274,3.64858 -3.5851,5.69119 0.026,0.51594 0.2037,1.01068 0.3016,1.52135 2.159,-0.36512 4.0587,-1.46579 6.0854,-2.21985 -0.6747,1.23296 -1.5319,2.35744 -2.1802,3.60627 -0.373,0.94985 -0.7223,1.91029 -1.0186,2.88922 -0.074,1.41026 -0.2143,2.89192 0.3678,4.22542 0.4683,1.7965 1.6536,3.26496 2.5108,4.88157 1.4738,-0.67469 2.8972,-1.4605 4.3868,-2.10077 1.2304,-0.40481 2.4765,-0.75409 3.7227,-1.10066 -1.0266,3.10091 -2.3283,6.10658 -3.2491,9.24451 -0.6111,2.11667 -1.4472,4.25188 -1.3044,6.49288 0.048,1.5187 -0.1746,3.07975 0.3228,4.55083 0.9658,3.52692 1.1748,7.17814 1.5029,10.80032 -1.405,-2.3654 -2.8469,-4.7149 -4.1381,-7.14111 -1.1033,-3.093 -2.6617,-6.03782 -3.3205,-9.27632 -0.2143,-1.81768 -0.4154,-3.63537 -0.4604,-5.46364 -1.4817,-0.35719 -2.9475,-0.77785 -4.4371,-1.09273 -2.4077,-0.3175 -4.8471,-0.38629 -7.2284,-0.9022 -2.286,-0.51068 -4.6328,-0.64826 -6.9347,-1.05569 -2.9237,-1.20917 -5.7362,-2.66703 -8.5275,-4.14602 3.974,-0.56886 7.9798,-0.0846 11.9406,0.32544 2.4077,0.38102 4.8578,0.20637 7.2734,0.0132 1.3176,-0.0688 2.5956,-0.43128 3.8338,-0.86784 0.5107,-0.54239 0.7064,-1.32027 1.0822,-1.95527 -3.1036,-1.87058 -6.4215,-3.40519 -9.9272,-4.33123 -3.5878,-0.12171 -7.194,0.18524 -10.7659,-0.28839 -3.4898,-0.23548 -6.985,0.0846 -10.4722,0.17462 1.7912,-0.85198 3.6301,-1.61663 5.4742,-2.34159 3.7254,-0.70112 7.4957,-1.14297 11.2766,-1.39962 -0.7964,-0.67468 -1.5426,-1.42875 -2.4236,-1.98702 -3.2994,-0.57682 -6.6172,-1.03984 -9.9642,-1.21973 -1.9394,-0.55036 -3.8285,-1.29381 -5.715,-2.00821 1.8071,-0.25135 3.6274,-0.38365 5.4425,-0.57147 4.3603,-0.60061 8.6677,-1.77538 12.6047,-3.77296 1.4764,-1.16684 2.7331,-2.57972 3.9661,-3.99262 z"
       id="path167"
       style="display:inline;opacity:0.272848;fill:#000000;stroke-width:0.264583" />
    <path
       d="m 1047.7922,510.83403 c 2.9527,4.34713 6.0827,8.6572 10.0409,12.15234 2.0056,1.16417 4.2518,1.81769 6.4294,2.58234 3.8312,1.13241 7.8237,1.44197 11.7792,1.87057 -1.3758,0.57415 -2.8019,1.01074 -4.1936,1.53726 -1.6696,0.74877 -3.5375,0.52916 -5.3076,0.77785 -2.0743,0.20902 -4.1275,0.59531 -6.1859,0.91284 -0.8785,0.56356 -1.6272,1.30701 -2.4157,1.98702 2.7094,0.21428 5.4213,0.41804 8.1016,0.88106 1.3864,0.25664 2.8521,0.254 4.1433,0.889 1.4896,0.67736 3.0374,1.22767 4.4979,1.97117 -3.4871,-0.0926 -6.9823,-0.4101 -10.4722,-0.17198 -3.5718,0.47096 -7.1781,0.16404 -10.7659,0.28575 -3.5057,0.92604 -6.8236,2.4633 -9.9272,4.33123 0.3175,0.61913 0.6006,1.26206 0.9552,1.87063 2.794,1.21973 5.9266,1.07154 8.9138,1.17208 4.7307,-0.41008 9.4959,-1.24354 14.2452,-0.55563 -2.4183,1.29117 -4.8525,2.55853 -7.3661,3.65125 -1.6933,0.9366 -3.6935,0.72232 -5.535,1.098 -2.7173,0.4895 -5.4319,1.00542 -8.1915,1.16946 -2.0611,0.11906 -4.019,0.82285 -6.0167,1.27526 -0.1534,2.50563 -0.1852,5.07206 -0.9975,7.47448 -0.4841,1.78858 -1.3335,3.44223 -1.9817,5.17261 -0.3784,0.93397 -0.6562,1.91822 -1.1694,2.79402 -1.2436,2.16427 -2.5083,4.32065 -3.81,6.4479 0.3069,-2.64584 0.2725,-5.32606 0.7408,-7.9534 0.336,-2.19075 0.762,-4.38412 0.6218,-6.61194 0.1984,-3.23586 -0.68,-6.38704 -1.5082,-9.48002 -0.8599,-2.35479 -1.7356,-4.70165 -2.5929,-7.05644 1.27,0.35983 2.548,0.70379 3.7941,1.14565 1.4367,0.62971 2.8179,1.38641 4.2254,2.07962 0.5636,-1.05569 1.1642,-2.09283 1.7357,-3.14587 1.2356,-3.00304 1.0822,-6.47964 -0.2461,-9.4271 -0.545,-1.02129 -1.1615,-2.00028 -1.6642,-3.04006 2.0267,0.74609 3.9211,1.84679 6.0775,2.21456 0.1005,-0.47096 0.2328,-0.92869 0.3122,-1.39436 -0.8652,-2.12195 -2.2225,-3.9952 -3.593,-5.82083 2.1537,0.635 4.2836,1.34408 6.4029,2.08492 1.7118,0.62441 3.5163,0.93924 5.2784,1.40226 -0.6509,-1.21708 -1.3838,-2.38389 -2.0108,-3.60891 -1.7223,-4.08514 -2.2991,-8.55925 -2.3441,-12.96459 z"
       id="path169"
       style="display:inline;opacity:0.272848;fill:#000000;stroke-width:0.264583" />
    <path
       fill="#ffffff"
       d="m 941.09368,607.31437 c 0.021,-0.7911 0.3783,-1.53456 0.5741,-2.29126 1.6828,1.91822 3.3179,3.93697 5.461,5.36572 1.7939,0.37571 3.6222,0.59531 5.4584,0.635 5.2414,0.16404 10.4907,0.83344 15.486,2.48444 1.442,1.09008 2.1299,2.79135 2.7252,4.4397 0.3625,3.56659 0.2911,7.15696 0.1376,10.7368 -0.1587,1.02129 -0.2381,2.07168 -0.5344,3.06387 -1.0107,0.25932 -2.0426,0.43392 -3.056,0.6853 -1.106,0.30427 -2.2489,0.0582 -3.3734,0.0502 -1.1166,-0.0873 -2.3045,0.09 -3.3443,-0.42068 -1.4076,-0.62707 -2.8628,-1.1483 -4.2572,-1.80184 -0.9737,-0.68527 -1.8891,-1.46048 -2.7728,-2.25423 -0.9552,-1.16152 -1.7674,-2.43419 -2.6855,-3.62217 1.2911,0.35983 2.6087,0.65352 3.8735,1.10863 1.5689,0.71702 3.1115,1.48696 4.6698,2.22512 0.7382,0.37571 1.5823,0.42333 2.3866,0.56621 1.9526,0.32279 3.9105,0.60854 5.8579,0.96044 0.3704,-1.26736 0.7831,-2.51884 1.143,-3.78616 0.1508,-0.38897 -0.085,-0.76465 -0.1879,-1.12184 -0.426,-1.10331 -0.7461,-2.24105 -1.2012,-3.32848 -3.519,-1.14829 -7.2522,-1.36261 -10.8611,-2.11138 -2.0929,-0.47625 -4.2466,-0.42069 -6.3686,-0.62971 -1.0292,-0.0635 -1.942,-0.59002 -2.8919,-0.92604 -0.9313,-0.39423 -1.9155,-0.6773 -2.8098,-1.14564 -1.5478,-2.79398 -2.5533,-5.82346 -3.429,-8.88204 z"
       id="path171"
       style="display:inline;opacity:0.272848;fill:#000000;stroke-width:0.264583" />
    <path
       d="m 997.73298,610.38883 c 2.1431,-1.43137 3.77832,-3.4475 5.46102,-5.36572 0.1852,0.90484 0.8176,1.83618 0.4419,2.77018 -0.4948,1.47371 -0.9155,2.97127 -1.4288,4.44233 -0.5265,1.21976 -1.1086,2.42094 -1.6801,3.62482 -0.1376,0.47887 -0.68532,0.54501 -1.07152,0.73819 -1.4129,0.50003 -2.7729,1.14829 -4.2043,1.58485 -2.2675,0.32808 -4.5879,0.17989 -6.8315,0.68527 -3.6619,0.76729 -7.4454,0.97896 -11.012,2.14048 -0.4947,1.22502 -0.881,2.49238 -1.3414,3.73327 -0.2196,0.41278 0,0.85725 0.1085,1.27267 0.336,1.07154 0.6614,2.15107 0.9869,3.23057 2.5003,-0.45773 5.0244,-0.78582 7.5247,-1.25413 1.4843,-0.55033 2.8654,-1.34937 4.3127,-1.99496 1.5399,-0.8387 3.2861,-1.12712 4.953,-1.61396 -0.7514,1.00809 -1.4896,2.02142 -2.2172,3.04536 -0.6509,0.93662 -1.6484,1.53194 -2.4871,2.28071 -0.9498,0.85195 -2.2331,1.12712 -3.3628,1.65893 -1.106,0.40482 -2.1537,1.10332 -3.3735,1.06363 -1.3361,0.0212 -2.667,0.12171 -4.0005,0.15875 -1.3652,-0.18786 -2.7066,-0.54766 -4.0507,-0.8414 -0.6774,-2.4315 -0.5953,-4.98475 -0.6536,-7.48768 -0.093,-2.10873 0.1085,-4.21484 0.2567,-6.31296 0.5927,-1.64574 1.2779,-3.34169 2.7199,-4.43442 3.7359,-1.16946 7.6015,-2.01877 11.52,-2.23311 3.1432,-0.33075 6.3367,-0.16142 9.4297,-0.89167 z"
       id="path173"
       style="display:inline;opacity:0.272848;fill:#000000;stroke-width:0.264583" />
  </g>
</svg>
