<?xml version="1.0" encoding="UTF-8" standalone="no"?>
<!-- Created with Inkscape (http://www.inkscape.org/) -->

<svg
   xmlns:dc="http://purl.org/dc/elements/1.1/"
   xmlns:cc="http://creativecommons.org/ns#"
   xmlns:rdf="http://www.w3.org/1999/02/22-rdf-syntax-ns#"
   xmlns:svg="http://www.w3.org/2000/svg"
   xmlns="http://www.w3.org/2000/svg"
   xmlns:sodipodi="http://sodipodi.sourceforge.net/DTD/sodipodi-0.dtd"
   xmlns:inkscape="http://www.inkscape.org/namespaces/inkscape"
   width="338.66669mm"
   height="338.66669mm"
   viewBox="0 0 1200 1245.0207"
   id="svg132784"
   version="1.1"
   inkscape:version="0.91 r13725"
   sodipodi:docname="businessmanconfused.svg">
  <defs
     id="defs132786" />
  <sodipodi:namedview
     id="base"
     pagecolor="#ffffff"
     bordercolor="#666666"
     borderopacity="1.0"
     inkscape:pageopacity="0.0"
     inkscape:pageshadow="2"
     inkscape:zoom="0.19815047"
     inkscape:cx="851.25999"
     inkscape:cy="499.07124"
     inkscape:document-units="px"
     inkscape:current-layer="g64719"
     showgrid="false"
     fit-margin-top="0"
     fit-margin-left="0"
     fit-margin-right="0"
     fit-margin-bottom="0"
     inkscape:window-width="1916"
     inkscape:window-height="1035"
     inkscape:window-x="4"
     inkscape:window-y="1"
     inkscape:window-maximized="1" />
  <metadata
     id="metadata132789">
    <rdf:RDF>
      <cc:Work
         rdf:about="">
        <dc:format>image/svg+xml</dc:format>
        <dc:type
           rdf:resource="http://purl.org/dc/dcmitype/StillImage" />
        <dc:title></dc:title>
        <dc:creator>
          <cc:Agent>
            <dc:title>j4p4n</dc:title>
          </cc:Agent>
        </dc:creator>
        <dc:description>based on public domain image by mohamed hassan</dc:description>
        <cc:license
           rdf:resource="http://creativecommons.org/publicdomain/zero/1.0/" />
      </cc:Work>
      <cc:License
         rdf:about="http://creativecommons.org/publicdomain/zero/1.0/">
        <cc:permits
           rdf:resource="http://creativecommons.org/ns#Reproduction" />
        <cc:permits
           rdf:resource="http://creativecommons.org/ns#Distribution" />
        <cc:permits
           rdf:resource="http://creativecommons.org/ns#DerivativeWorks" />
      </cc:License>
    </rdf:RDF>
  </metadata>
  <g
     inkscape:label="Layer 1"
     inkscape:groupmode="layer"
     id="layer1"
     transform="translate(6184.0842,-1010.051)">
    <g
       id="g133343"
       transform="translate(-571.42857,302.85714)">
      <g
         id="g156364">
        <g
           id="g64651">
          <g
             transform="translate(-14.473321,129.22608)"
             id="g156550">
            <g
               transform="matrix(1.2,0,0,1.2,855.37792,-219.79366)"
               id="g156592">
              <g
                 id="g64719"
                 transform="translate(-587.29447,89.435706)">
                <g
                   id="g64737">
                  <path
                     inkscape:connector-curvature="0"
                     id="path64735"
                     d="m -4812.3687,1094.1241 0,-518.75862 518.7586,0 518.7586,0 0,518.75862 0,518.7586 -518.7586,0 -518.7586,0 0,-518.7586 z"
                     style="fill:#fcfdfd" />
                  <path
                     inkscape:connector-curvature="0"
                     id="path64733"
                     d="m -4812.3687,1094.1241 0,-518.75862 518.7586,0 518.7586,0 0,518.75862 0,518.7586 -518.7586,0 -518.7586,0 0,-518.7586 z m 370.0478,202.3158 0,-47.5528 -4.2804,0 c -21.9551,0 -42.2624,17.5485 -45.8772,39.6447 -1.86,11.3696 0.6013,25.5388 5.8792,33.8461 8.199,12.9048 23.405,21.3309 38.8747,21.5414 l 5.4037,0.073 0,-47.5529 z m -1.3676,-82.6615 c 1.2313,-0.4725 1.3676,-7.4101 1.3676,-69.6002 0,-39.569 -0.3273,-69.0753 -0.7663,-69.0753 -1.3446,0 -15.5281,15.453 -21.302,23.2087 -5.7178,7.6803 -13.8574,23.0325 -16.909,31.8924 -5.3511,15.536 -7.3852,45.4362 -3.8883,57.1551 3.3426,11.2023 10.9225,19.6019 21.2507,23.5489 7.6,2.9045 16.7704,4.2045 20.2473,2.8704 z m -109.9919,-194.9683 c 7.0846,-1.4822 14.0799,-5.6397 19.562,-11.6261 5.745,-6.2734 9.1437,-12.74645 13.8443,-26.36694 6.51,-18.86337 12.2669,-30.60772 20.9873,-42.81502 12.1822,-17.0533 24.2218,-24.38207 45.3973,-27.63444 5.1739,-0.79467 9.8981,-1.58905 10.4983,-1.76529 0.8588,-0.25221 1.0429,-7.2761 0.8646,-32.98215 l -0.2266,-32.6617 -6.4845,0.27527 c -46.0457,1.95464 -88.5069,20.49266 -118.4499,51.71365 -21.2353,22.14174 -34.2719,49.01173 -37.3461,76.97524 -1.6317,14.8419 1.9237,25.52248 11.7756,35.37438 10.3767,10.3767 24.8649,14.5913 39.5777,11.5131 z"
                     style="fill:#d1edf9" />
                  <path
                     inkscape:connector-curvature="0"
                     id="path64731"
                     d="m -4812.3687,1094.1241 0,-518.75862 518.7586,0 518.7586,0 0,518.75862 0,518.7586 -518.7586,0 -518.7586,0 0,-518.7586 z m 385.1196,249.1546 c 20.9015,-7.578 32.7453,-24.363 32.7453,-46.4065 0,-14.627 -4.4245,-25.4215 -14.5671,-35.5392 -9.9014,-9.8772 -20.721,-14.1751 -35.6845,-14.1751 -15.1019,0 -25.2602,4.1535 -35.7063,14.5996 -11.1382,11.1382 -15.1423,21.7941 -14.3319,38.1408 0.7019,14.1569 4.3423,22.8637 13.2149,31.6062 6.0096,5.9216 14.9417,10.9714 23.018,13.0133 7.1324,1.8033 24.8544,1.102 31.3116,-1.2391 z m -9.3481,-128.8752 c 17.5848,-4.5684 23.7265,-12.474 29.8235,-38.3889 8.685,-36.9156 9.6383,-38.1952 66.4753,-89.2438 20.7033,-18.5947 38.6542,-36.9747 45.1721,-46.2518 6.7801,-9.6501 14.4075,-24.0591 16.9342,-31.9901 6.26,-19.64948 6.7944,-43.6799 1.4228,-63.98022 -14.5543,-55.00382 -64.2756,-93.73794 -130.9677,-102.02695 -4.042,-0.50237 -14.5468,-1.14054 -23.3441,-1.41815 -42.6685,-1.34649 -79.0116,8.55415 -111.5331,30.38398 -23.5949,15.83787 -40.0764,34.32045 -51.9471,58.25412 -7.8091,15.74479 -12.8978,35.32133 -12.8978,49.61916 0,18.24339 14.1564,36.04616 32.4527,40.81166 6.2952,1.6397 17.5187,1.6968 23.4434,0.1193 10.8494,-2.8887 20.405,-10.9602 26.0874,-22.03549 1.8588,-3.62288 5.0407,-11.25588 7.071,-16.96223 9.2555,-26.01404 19.0881,-43.18719 31.0883,-54.29729 8.7406,-8.09221 18.4927,-12.4022 33.4388,-14.7784 20.1825,-3.20868 37.4345,-1.09577 52.9773,6.48832 7.8768,3.84351 9.978,5.3772 16.8598,12.30639 12.9719,13.06108 17.7958,23.49695 18.4783,39.97496 0.6072,14.66073 -1.824,23.1736 -10.1889,35.67764 -6.2407,9.3286 -15.1014,18.2867 -39.3351,39.7675 -26.5385,23.5237 -46.2401,43.4583 -53.0603,53.6877 -10.9484,16.4212 -16.9782,31.9209 -19.5268,50.1937 -2.6674,19.1243 -1.2834,35.7666 3.8037,45.738 7.8124,15.3136 28.3199,23.2745 47.2723,18.3509 z m 212.5872,-82.5793 5.1876,-1.0958 -6.4127,-0.5397 c -6.9685,-0.5865 -8.0313,-0.3572 -7.2906,1.5731 0.5772,1.5042 1.6524,1.5121 8.5157,0.062 z m 173.1958,-297.29557 c -0.1839,-1.29475 -0.9725,-2.04372 -2.358,-2.23951 -1.145,-0.16178 -3.532,-1.25386 -5.3045,-2.42684 -6.7358,-4.45758 -20.478,-6.78761 -27.63,-4.68478 -1.6918,0.49744 -0.9404,0.77471 3.4584,1.27611 11.9405,1.36102 28.039,6.2601 29.769,9.05924 1.0322,1.67012 2.3527,1.04077 2.0651,-0.98422 z"
                     style="fill:#f2b383" />
                  <path
                     sodipodi:nodetypes="cccccccccssssssssssssssssssssssssssssssssssssccsccscsccscccsssscssscscscccccccsccsscccssccsscsscscssssscscscscsssss"
                     inkscape:connector-curvature="0"
                     id="path64729"
                     d="m -4812.3687,1094.1241 0,-518.75862 518.7586,0 518.7586,0 0,518.75862 0,518.7586 -518.7586,0 -518.7586,0 z m 385.1196,249.1546 c 20.9015,-7.578 32.7453,-24.363 32.7453,-46.4065 0,-14.627 -4.4245,-25.4215 -14.5671,-35.5392 -9.9014,-9.8772 -20.721,-14.1751 -35.6845,-14.1751 -15.1019,0 -25.2602,4.1535 -35.7063,14.5996 -11.1382,11.1382 -15.1423,21.7941 -14.3319,38.1408 0.7019,14.1569 4.3423,22.8637 13.2149,31.6062 6.0096,5.9216 14.9417,10.9714 23.018,13.0133 7.1324,1.8033 24.8544,1.102 31.3116,-1.2391 z m -9.3481,-128.8752 c 17.5848,-4.5684 23.7265,-12.474 29.8235,-38.3889 8.685,-36.9156 9.6383,-38.1952 66.4753,-89.2438 20.7033,-18.5947 38.6542,-36.9747 45.1721,-46.2518 6.7801,-9.6501 14.4075,-24.0591 16.9342,-31.9901 6.26,-19.64948 6.7944,-43.6799 1.4228,-63.98022 -14.5543,-55.00382 -64.2756,-93.73794 -130.9677,-102.02695 -4.042,-0.50237 -14.5468,-1.14054 -23.3441,-1.41815 -42.6685,-1.34649 -79.0116,8.55415 -111.5331,30.38398 -23.5949,15.83787 -40.0764,34.32045 -51.9471,58.25412 -7.8091,15.74479 -12.8978,35.32133 -12.8978,49.61916 0,18.24339 14.1564,36.04616 32.4527,40.81166 6.2952,1.6397 17.5187,1.6968 23.4434,0.1193 10.8494,-2.8887 20.405,-10.9602 26.0874,-22.03549 1.8588,-3.62288 5.0407,-11.25588 7.071,-16.96223 9.2555,-26.01404 19.0881,-43.18719 31.0883,-54.29729 8.7406,-8.09221 18.4927,-12.4022 33.4388,-14.7784 20.1825,-3.20868 37.4345,-1.09577 52.9773,6.48832 7.8768,3.84351 9.978,5.3772 16.8598,12.30639 12.9719,13.06108 17.7958,23.49695 18.4783,39.97496 0.6072,14.66073 -1.824,23.1736 -10.1889,35.67764 -6.2407,9.3286 -15.1014,18.2867 -39.3351,39.7675 -26.5385,23.5237 -46.2401,43.4583 -53.0603,53.6877 -10.9484,16.4212 -16.9782,31.9209 -19.5268,50.1937 -2.6674,19.1243 -1.2834,35.7666 3.8037,45.738 7.8124,15.3136 28.3199,23.2745 47.2723,18.3509 z m 233.7699,-26.5328 c 0,-0.2719 -0.98,-2.1666 -2.1776,-4.2103 -2.3176,-3.9546 -2.1524,-6.1418 0.5282,-6.9926 2.0676,-0.6562 2.1641,-3.7606 0.1363,-4.3872 -3.3349,-1.0305 -4.1478,-1.9945 -5.1046,-6.0531 -2.296,-9.7398 -1.0642,-13.1066 4.4189,-12.0779 3.9723,0.7452 5.6571,2.5725 5.6571,6.1354 0,4.8252 1.7424,11.4365 3.6549,13.8677 1.5862,2.0166 1.8916,2.1165 2.6,0.8507 0.4415,-0.7889 1.0186,-4.2896 1.2826,-7.7795 l 0.4798,-6.3451 -3.5114,-2.3238 c -1.9313,-1.2781 -3.6936,-2.7984 -3.9162,-3.3784 -0.2225,-0.58 0.1158,-4.3048 0.7518,-8.2773 1.325,-8.2749 0.7758,-10.2039 -4.065,-14.2772 -3.1117,-2.6182 -5.0797,-2.613 -19.3237,0.051 -10.5913,1.9808 -10.1865,1.6248 -12.5502,11.0396 -1.9083,7.6011 -1.9923,8.7788 -1.0276,14.4046 2.0154,11.7527 5.7499,15.9444 17.3907,19.5193 5.8729,1.8036 7.1963,2.5586 8.3312,4.7532 1.5577,3.0124 4.3248,5.9754 5.5802,5.9754 0.4755,0 0.8646,-0.2225 0.8646,-0.4945 z m 278.6383,-19.0522 c 6.024,-3.051 8.4907,-6.8738 8.54,-13.2353 0.041,-5.2338 -2.3017,-9.9207 -7.881,-15.7703 l -4.2598,-4.4662 -3.1239,2.5167 c -8.3998,6.7671 -9.9719,7.5532 -18.8027,9.4011 -2.0824,0.4358 -2.3764,0.8981 -2.3681,3.7233 0.01,1.7742 0.2507,4.6848 0.5454,6.4681 0.5178,3.1322 0.6568,3.2426 4.0973,3.2554 1.9588,0.01 4.0983,0.3533 4.7544,0.7689 1.1844,0.7501 1.0566,4.0534 -0.2769,7.159 -0.5114,1.1911 -0.022,1.5282 2.6877,1.8493 5.4076,0.641 13.1016,-0.1577 16.0876,-1.67 z m -299.821,-36.9943 13.3231,1.4074 -11.4192,-13.9946 c -4.4211,-5.4183 -11.1603,10.5945 -10.4196,12.5248 0.5772,1.5042 1.6524,1.5121 8.5157,0.062 z m 121.9083,-301.05372 c 4.2555,-4.40848 4.4684,-4.50922 13.6425,-6.4539 11.9931,-2.54226 18.4442,-1.76663 28.6635,3.44626 3.7716,1.92392 6.9277,3.40652 7.0135,3.29465 0.086,-0.11187 0.3825,-2.50129 0.6593,-5.30983 0.4835,-4.90725 0.3925,-5.21702 -2.3321,-7.94163 -2.8255,-2.82546 -2.8579,-2.83347 -9.4488,-2.335 l -6.6136,0.50018 -3.2555,-3.52302 c -2.8255,-3.05769 -3.9978,-3.65363 -8.8754,-4.51191 -5.2458,-0.92307 -12.2578,-4.40265 -14.6285,-7.25922 -0.5104,-0.61493 -1.5223,-4.58152 -2.2487,-8.81465 -2.056,-11.98107 -6.4929,-18.97907 -9.0289,-14.24057 -0.5221,0.97573 -1.1854,4.98715 -1.4739,8.9143 -0.6805,9.2644 -1.2507,10.33707 -5.3151,9.99902 -3.1698,-0.26365 -3.187,-0.28653 -3.4537,-4.58796 -0.1474,-2.37765 -0.6026,-4.66144 -1.0115,-5.0751 -1.5323,-1.55011 -2.4212,5.71852 -2.0133,16.4632 0.3631,9.56557 0.7563,11.92404 2.8582,17.14362 1.4084,3.49761 2.8244,9.26216 3.3547,13.65711 0.5047,4.18271 1.1752,8.02165 1.49,8.53098 0.3349,0.54193 2.0494,-0.80452 4.1333,-3.24605 1.9585,-2.29466 5.5063,-6.18738 7.884,-8.65048 z m 51.2875,3.75815 c -0.1839,-1.29475 -0.9725,-2.04372 -2.358,-2.23951 -1.145,-0.16178 -3.532,-1.25386 -5.3045,-2.42684 -6.7358,-4.45758 -20.478,-6.78761 -27.63,-4.68478 -1.6918,0.49744 -0.9404,0.77471 3.4584,1.27611 11.9405,1.36102 28.039,6.2601 29.769,9.05924 1.0322,1.67012 2.3527,1.04077 2.0651,-0.98422 z"
                     style="fill:#eaab7b" />
                  <path
                     sodipodi:nodetypes="cccccccccssssssssssssssssssssssssssssssssssscccsccscscscccccccsccscccsscssccsscscccsscsssccssssssscscsc"
                     inkscape:connector-curvature="0"
                     id="path64727"
                     d="m -4812.3687,1094.1241 0,-518.75862 518.7586,0 518.7586,0 0,518.75862 0,518.7586 -518.7586,0 -518.7586,0 z m 385.1196,249.1546 c 20.9015,-7.578 32.7453,-24.363 32.7453,-46.4065 0,-14.627 -4.4245,-25.4215 -14.5671,-35.5392 -9.9014,-9.8772 -20.721,-14.1751 -35.6845,-14.1751 -15.1019,0 -25.2602,4.1535 -35.7063,14.5996 -11.1382,11.1382 -15.1423,21.7941 -14.3319,38.1408 0.7019,14.1569 4.3423,22.8637 13.2149,31.6062 6.0096,5.9216 14.9417,10.9714 23.018,13.0133 7.1324,1.8033 24.8544,1.102 31.3116,-1.2391 z m -9.3481,-128.8752 c 17.5848,-4.5684 23.7265,-12.474 29.8235,-38.3889 8.685,-36.9156 9.6383,-38.1952 66.4753,-89.2438 20.7033,-18.5947 38.6542,-36.9747 45.1721,-46.2518 6.7801,-9.6501 14.4075,-24.0591 16.9342,-31.9901 6.26,-19.64948 6.7944,-43.6799 1.4228,-63.98022 -14.5543,-55.00382 -64.2756,-93.73794 -130.9677,-102.02695 -4.042,-0.50237 -14.5468,-1.14054 -23.3441,-1.41815 -42.6685,-1.34649 -79.0116,8.55415 -111.5331,30.38398 -23.5949,15.83787 -40.0764,34.32045 -51.9471,58.25412 -7.8091,15.74479 -12.8978,35.32133 -12.8978,49.61916 0,18.24339 14.1564,36.04616 32.4527,40.81166 6.2952,1.6397 17.5187,1.6968 23.4434,0.1193 10.8494,-2.8887 20.405,-10.9602 26.0874,-22.03549 1.8588,-3.62288 5.0407,-11.25588 7.071,-16.96223 9.2555,-26.01404 19.0881,-43.18719 31.0883,-54.29729 8.7406,-8.09221 18.4927,-12.4022 33.4388,-14.7784 20.1825,-3.20868 37.4345,-1.09577 52.9773,6.48832 7.8768,3.84351 9.978,5.3772 16.8598,12.30639 12.9719,13.06108 17.7958,23.49695 18.4783,39.97496 0.6072,14.66073 -1.824,23.1736 -10.1889,35.67764 -6.2407,9.3286 -15.1014,18.2867 -39.3351,39.7675 -26.5385,23.5237 -46.2401,43.4583 -53.0603,53.6877 -10.9484,16.4212 -16.9782,31.9209 -19.5268,50.1937 -2.6674,19.1243 -1.2834,35.7666 3.8037,45.738 7.8124,15.3136 28.3199,23.2745 47.2723,18.3509 z m 234.6225,-25.5916 c 0.8597,-1.0359 0.7138,-1.8766 -0.7587,-4.3724 -2.2794,-3.8632 -2.3041,-5.7331 -0.094,-7.1134 3.0622,-1.9124 1.5968,-5.8315 -2.7561,-7.3705 -2.8581,-1.0105 -4.599,-13.1348 -2.0278,-14.1215 0.6977,-0.2677 2.3356,-0.131 3.6399,0.3038 2.1975,0.7325 2.445,1.3052 3.3738,7.8055 1.124,7.8664 3.3985,12.6126 6.2424,13.0259 2.6297,0.3821 3.6321,-2.6728 3.6321,-11.0694 l 0,-6.79 -2.9649,-1.8324 c -3.6207,-2.2377 -3.7678,-2.6412 -2.9784,-8.1678 1.4021,-9.8154 1.0444,-12.0199 -2.5891,-15.9558 l -3.3449,-3.6231 -13.3886,-5.7082 -14.953,0.2371 -1.7286,8.1067 c -0.09,1.1888 -1.2577,5.8549 -2.5944,10.3691 -2.2506,7.6012 -2.3634,8.6709 -1.5267,14.4787 1.8596,12.9084 7.1408,19.1399 18.924,22.3295 4.9073,1.3283 5.9824,1.9917 7.7398,4.7755 1.8762,2.9721 5.1543,5.9752 6.5224,5.9752 0.3115,0 1.0453,-0.5771 1.6307,-1.2825 z m 274.5217,-16.9505 c 11.5233,-3.1035 16.5041,-14.1079 11.2016,-24.7485 -2.1713,-4.3572 -10.0411,-13.2173 -11.7401,-13.2173 -0.4813,0 -3.0528,1.7739 -5.7143,3.9421 -6.0909,4.9616 -8.1092,5.9882 -14.2663,7.2571 -2.726,0.5618 -5.1912,1.4014 -5.4782,1.8658 -0.287,0.4644 -0.2478,4.1344 0.087,8.1555 l 0.609,7.3112 4.1697,0 c 2.2933,0 4.4116,0.3913 4.7072,0.8696 0.2956,0.4783 0.049,2.2194 -0.5471,3.869 -1.2995,3.5938 -0.939,4.0512 3.8023,4.8239 5.664,0.9231 9.4001,0.8866 13.169,-0.1284 z m -178.8019,-334.09053 c 6.7506,-7.83598 10.0853,-9.79488 17.9193,-10.52643 9.1301,-0.85258 24.3416,2.58266 32.9507,7.44128 l 4.3579,2.45945 0.1503,-8.6698 c 0.1655,-9.54306 -0.3583,-11.21179 -4.2656,-13.58792 -2.1549,-1.31047 -3.7855,-1.52603 -8.8069,-1.16422 l -6.1624,0.44402 -3.2247,-3.44932 c -2.7285,-2.91864 -4.0401,-3.59296 -8.5248,-4.38293 -5.8417,-1.02899 -12.2463,-4.34234 -14.1011,-7.29508 -0.6582,-1.04782 -1.4536,-3.85048 -1.7675,-6.22813 -1.3907,-10.53429 -5.3692,-18.58885 -9.182,-18.58885 -2.3779,0 -4.2699,4.36311 -4.7907,11.048 -0.7,8.98496 -0.9503,9.70235 -3.3848,9.70235 -1.9578,0 -2.145,-0.33118 -2.145,-3.79491 0,-4.01017 -2.4098,-8.19495 -4.113,-7.14235 -3.2084,1.98294 -2.9198,28.8247 0.3872,36.01059 2.3848,5.18187 2.6734,6.25783 3.71,13.83356 1.4291,10.44319 1.7196,11.37053 3.4693,11.07332 0.8607,-0.14621 4.2464,-3.3784 7.5238,-7.18263 z"
                     style="fill:#3b7e5c;fill-opacity:1" />
                  <path
                     sodipodi:nodetypes="ssscsscssssssscssscscccsscscscscscsssscscscssssssccccscsssssssscscsscssscsscsccssssscscscssssssscssssscsscccsccscccscscssscsccccsccsssscscscsccccsccsccccsscsscccsccscssssscccscsscsssssccssscccsscscscsccssccccssccsccccc"
                     inkscape:connector-curvature="0"
                     id="path64725"
                     d="m -4119.826,1577.7458 c -6.8866,-0.8499 -21.1756,-4.0202 -26.6061,-5.9031 -8.5606,-2.9682 -11.8361,-4.4838 -18.7146,-8.6593 -4.8479,-2.9429 -7.0356,-3.7631 -10.0505,-3.7683 -4.0482,-0.01 -10.1358,-2.0736 -29.0938,-9.877 -12.5478,-5.1648 -15.8283,-6.9872 -15.8283,-8.7926 0,-3.2616 14.9615,-34.0381 18.2772,-37.597 0.948,-1.0177 2.7572,-1.7989 4.1655,-1.7989 1.894,0 2.9201,-0.6966 4.2893,-2.912 0.9899,-1.6017 1.7997,-3.4271 1.7997,-4.0567 0,-0.6295 2.5828,-7.1978 5.7395,-14.596 9.2507,-21.6805 17.452,-40.9399 30.5797,-71.8119 6.774,-15.9302 15.1407,-35.5782 18.5926,-43.6621 3.4519,-8.084 8.5102,-19.9506 11.2407,-26.3703 l 4.9645,-11.672 -0.5051,-27.6672 c -0.7227,-39.592 -2.7658,-54.3268 -14.026,-101.1579 -1.2577,-5.2308 -2.952,-13.5958 -3.765,-18.5888 l -1.4782,-9.0783 -10.3247,-0.6378 c -12.2399,-0.7561 -25.601,-2.808 -32.7287,-5.0264 -2.8247,-0.8792 -5.4625,-1.3966 -5.8617,-1.1499 -0.3993,0.2468 -0.6579,2.3703 -0.5748,4.7189 0.083,2.3486 -0.1052,4.5265 -0.4185,4.8398 -0.3133,0.3133 -0.5697,-2.576 -0.5697,-6.4207 l 0,-6.9904 -2.9649,-1.8324 c -3.6207,-2.2377 -3.7678,-2.6412 -2.9784,-8.1678 1.4048,-9.8338 1.0474,-12.0167 -2.6171,-15.9861 l -3.3729,-3.6535 -18.6512,-4.8148 c -22.9696,-5.9295 -25.0804,5.3988 -24.2731,-2.3669 0.2508,-2.4133 2.1854,-29.064 4.299,-59.2238 l 3.8428,-54.8359 5.1412,-10.87349 c 2.8276,-5.98044 7.0598,-14.95876 9.4049,-19.95181 7.4087,-15.77437 26.1135,-55.36817 31.0424,-65.70943 3.7417,-7.85057 5.3476,-12.65348 7.6315,-22.82402 1.5909,-7.08463 3.4045,-13.37188 4.0302,-13.97167 0.9323,-0.89365 28.562,-13.73664 57.1641,-26.57138 l 5.8798,-2.63843 -0.5117,-4.8234 c -1.0567,-9.96102 -2.4847,-16.19411 -4.6707,-20.38615 -2.2502,-4.31538 -2.2542,-4.36029 -2.2542,-25.50563 0,-19.81388 0.1313,-21.60166 2.0307,-27.66713 5.2181,-16.6629 12.6056,-26.41601 24.3472,-32.14371 7.8422,-3.8255 18.4556,-6.30824 23.6422,-5.53047 12.8346,1.92467 34.4824,18.43238 40.2216,30.67125 1.9991,4.26316 2.2703,5.92578 2.2703,13.91971 0,11.32527 -1.7243,17.02565 -10.4612,34.58391 -3.4311,6.89517 -6.5447,14.09294 -6.9193,15.99506 l -0.681,3.45839 -0.4798,-4.83865 c -0.7928,-7.99429 -4.0409,-10.33289 -13.4488,-9.68296 l -6.0522,0.41809 -3.2247,-3.44409 c -2.7263,-2.91183 -4.0438,-3.58836 -8.5248,-4.37769 -5.8417,-1.02899 -12.2463,-4.34234 -14.1011,-7.29508 -0.6582,-1.04782 -1.4536,-3.85048 -1.7675,-6.22813 -1.3907,-10.53429 -5.3692,-18.58885 -9.182,-18.58885 -2.3779,0 -4.2699,4.36311 -4.7907,11.048 -0.7,8.98496 -0.9503,9.70235 -3.3848,9.70235 -1.9578,0 -2.145,-0.33118 -2.145,-3.79491 0,-4.01017 -2.4098,-8.19495 -4.113,-7.14235 -3.2084,1.98294 -2.9198,28.8247 0.3872,36.01059 2.3848,5.18187 2.6734,6.25783 3.71,13.83356 1.4291,10.44319 1.7196,11.37053 3.4693,11.07332 0.8607,-0.14621 4.2464,-3.3784 7.5238,-7.18263 3.4034,-3.95057 7.362,-7.58232 9.231,-8.46872 9.3196,-4.42014 29.0409,-1.66995 42.6666,5.94998 4.1302,2.30973 6.2216,4.21666 8.6773,7.91197 3.2169,4.84074 3.3003,4.89426 14.4753,9.29449 42.5178,16.74157 45.5384,18.02293 46.6478,19.78811 0.635,1.0105 3.949,14.28748 7.3643,29.5044 3.4154,15.21692 9.5154,42.25721 13.5555,60.08954 4.0401,17.83232 8.8308,39.03656 10.6459,47.12056 1.8152,8.084 5.5066,24.4249 8.2032,36.3131 2.6966,11.8882 6.612,29.2018 8.701,38.4746 2.0889,9.2728 5.0215,22.1121 6.5169,28.5317 1.4953,6.4197 2.9266,13.7541 3.1807,16.2988 0.4105,4.1107 0.8918,5.0229 4.3157,8.179 3.8512,3.5499 8.022,10.4509 8.022,13.2732 0,0.8225 -0.9899,-0.4909 -2.1997,-2.9187 -2.1713,-4.3572 -10.0411,-13.2173 -11.7401,-13.2173 -0.4813,0 -3.0528,1.7739 -5.7143,3.9421 -6.0909,4.9616 -8.1092,5.9882 -14.2663,7.2571 -2.726,0.5618 -5.1581,1.3478 -5.4046,1.7467 -0.6402,1.0359 -3.5829,0.1038 -4.9763,-1.5762 -0.6509,-0.7848 -3.0558,-6.4848 -5.3444,-12.6666 -3.5548,-9.6023 -19.2043,-51.0848 -27.2355,-72.1939 -1.3569,-3.5665 -4.1644,-10.9588 -6.239,-16.4274 -4.5409,-11.9699 -4.8028,-11.2372 -3.4002,9.5106 3.4805,51.4856 5.425,79.7745 6.6194,96.2994 1.1694,16.1798 1.1928,19.0924 0.1616,20.1236 -0.6631,0.6631 -3.7011,1.6075 -6.7511,2.0987 -3.05,0.4912 -5.6623,1.01 -5.8053,1.153 -0.1429,0.1429 -1.0007,5.2755 -1.9063,11.4057 -1.8721,12.6739 -4.354,24.7124 -7.5561,36.6515 -2.6753,9.9748 -13.9941,42.7802 -20.4544,59.2832 -15.7799,40.3104 -15.2229,38.5863 -16.1401,49.9571 -0.4661,5.7786 -2.2211,27.431 -3.9,48.1165 -1.6789,20.6855 -3.481,43.8351 -4.0046,51.4436 l -0.9521,13.8335 5.3632,29.8287 c 7.4656,41.521 6.2292,37.2277 12.3043,42.7253 6.7329,6.093 16.1742,12.4019 21.7803,14.5542 3.621,1.3901 5.6952,1.6115 11.2209,1.198 11.0864,-0.8298 15.5606,2.3922 15.6538,11.273 0.06,5.6773 -1.9483,8.5323 -8.2506,11.7313 -10.2987,5.2276 -28.236,6.3675 -51.4292,3.2683 -7.0369,-0.9404 -12.862,-1.6212 -12.9447,-1.5131 -0.083,0.1082 -0.5307,1.3638 -0.9956,2.7904 -0.8054,2.4715 -1.0862,2.5999 -5.9544,2.7219 -2.81,0.07 -5.7899,0.1677 -6.6221,0.2161 -1.052,0.061 -1.5141,0.8126 -1.5163,2.4658 -0.01,4.1446 -3.0732,7.9173 -8.4493,10.3915 -4.3748,2.0134 -6.1519,2.2969 -15.3239,2.4457 -5.7063,0.093 -11.7369,3e-4 -13.4013,-0.2051 z m 9.5106,-28.6858 c 0,-0.8644 1.9454,-7.473 4.323,-14.6856 4.3207,-13.107 5.055,-16.5975 3.4917,-16.5975 -1.3629,0 -2.3676,-5.2868 -5.667,-29.8196 -1.7261,-12.8343 -3.2937,-23.4904 -3.4835,-23.6802 -0.4251,-0.4252 -0.041,-1.4454 -10.7043,28.4265 -4.8379,13.5526 -9.3177,25.168 -9.9551,25.812 -0.9613,0.9713 -1.6877,0.98 -4.2583,0.05 -1.7047,-0.6164 -3.3436,-0.8764 -3.6421,-0.5779 -0.9284,0.9283 3.767,10.1275 8.2686,16.2 2.3632,3.1877 6.2569,7.6294 8.6527,9.8704 6.2843,5.8782 12.9743,8.4572 12.9743,5.0015 z m -85.5952,-416.3577 c 0,-0.1808 4.2954,-30.3841 9.5453,-67.1184 5.2499,-36.7343 9.4032,-67.21592 9.2295,-67.73695 -0.1737,-0.52103 -1.6909,1.572 -3.3716,4.65115 -11.0623,20.2671 -16.2819,30.1192 -17.0791,32.2368 -1.9038,5.0574 -3.5116,34.4049 -3.5116,64.0959 0,28.6809 0.058,29.718 1.7919,31.9221 1.5355,1.9521 3.3956,3.0199 3.3956,1.9494 z m 214.8622,202.4635 c -8.3638,-0.5021 -12.4658,-1.0971 -13.2976,-1.9289 -0.7426,-0.7426 -1.4781,-4.4558 -1.9223,-9.7055 -0.3958,-4.6764 -1.1271,-13.1714 -1.6251,-18.8778 -2.1372,-24.4861 -7.7415,-91.3939 -8.2196,-98.1318 -0.2869,-4.042 -0.1965,-7.8263 0.2008,-8.4095 0.3973,-0.5833 9.0044,-2.892 19.1269,-5.1305 l 18.4045,-4.07 3.4877,-6.9366 c 1.9182,-3.8152 5.072,-9.4452 7.0083,-12.5112 3.4786,-5.508 3.5196,-5.6684 3.4343,-13.4386 -0.072,-6.5892 0.031,-7.2333 0.6387,-3.9733 0.3987,2.1399 0.7538,5.3497 0.7891,7.133 l 0.064,3.2422 4.2719,0 c 2.3496,0 4.5139,0.3913 4.8095,0.8696 0.2956,0.4783 0.038,2.2504 -0.572,3.9379 -1.4011,3.8746 -0.745,4.3522 7.0556,5.1356 6.6746,0.6703 11.9753,-0.4598 16.4433,-3.5056 4.0513,-2.7618 6.1583,-6.5433 6.9135,-12.408 l 0.623,-4.837 0.094,3.8907 c 0.055,2.2556 -0.6463,5.5236 -1.668,7.7761 -1.3339,2.9408 -1.6306,4.8426 -1.2208,7.8227 0.2979,2.1656 0.8076,4.3397 1.1329,4.8316 0.3891,0.5883 5.6187,-0.2244 15.2895,-2.376 8.084,-1.7986 15.947,-3.2895 17.4735,-3.3132 3.3425,-0.052 3.633,0.7762 6.2029,17.6812 2.4411,16.0586 9.0984,59.013 13.5665,87.536 2.104,13.4312 3.8255,25.1529 3.8255,26.0482 0,2.9815 -0.7408,3.2669 -31.9901,12.3251 -4.993,1.4473 -11.4127,3.3483 -14.2658,4.2244 -15.1615,4.6555 -59.1515,17.1813 -61.3865,17.4794 -1.4266,0.1903 -8.0364,0.019 -14.6885,-0.3802 z m 41.0587,-152.5021 c 9.3119,-2.0115 10.3297,-2.4995 9.7595,-4.6798 -0.7216,-2.7595 -3.5737,-4.1305 -9.2693,-4.456 -4.9212,-0.2812 -5.1902,-0.1877 -6.615,2.3007 -0.8168,1.4265 -1.7492,3.8582 -2.0719,5.4037 -0.6982,3.3445 -0.6771,3.3482 8.1967,1.4314 z m -269.2215,4.8344 c -1.7197,-1.9035 -3.1267,-3.839 -3.1267,-4.3013 0,-0.4622 -2.8781,-1.6766 -6.3957,-2.6987 -13.8155,-4.0143 -19.5422,-12.1206 -19.5422,-27.6624 0,-6.2943 2.2893,-15.8908 4.1517,-17.4035 1.1726,-0.9525 1.2698,-0.8665 0.7064,0.6249 -0.3592,0.951 -1.4618,4.6472 -2.4501,8.2136 -1.5647,5.6464 -1.6822,7.2943 -0.9087,12.7496 1.8265,12.8817 7.1213,19.1326 18.9089,22.3234 4.9322,1.3351 5.978,1.9846 7.7728,4.8279 2.8046,4.4427 5.9608,6.5014 7.7239,5.0382 1.0956,-0.9093 1.2224,-0.8548 0.7677,0.33 -0.9635,2.5111 -4.305,1.6144 -7.608,-2.0417 z m 6.1677,-3.5455 c -1.9722,-3.4467 -1.9118,-5.2976 0.2162,-6.6265 1.9866,-1.2407 2.1599,-0.867 0.6899,1.4869 -0.8181,1.31 -0.7967,2.1174 0.1005,3.7937 1.6945,3.1663 0.7543,4.4233 -1.0066,1.3459 z m 4.8757,-7.2068 c -1.4792,-0.98 -3.0355,-2.5582 -3.4584,-3.5072 -0.4229,-0.949 -1.8245,-2.2278 -3.1147,-2.8419 -2.5829,-1.2293 -4.1256,-5.2622 -4.1338,-10.8065 -0.01,-3.7304 1.3037,-4.6522 4.9034,-3.4523 2.1975,0.7325 2.445,1.3052 3.3738,7.8055 1.2193,8.5332 3.4238,12.7621 6.6312,12.7207 2.451,-0.032 2.46,0.8926 0.015,1.4904 -0.8395,0.2053 -2.7368,-0.4286 -4.216,-1.4087 z m -3.6446,-11.7519 c -0.305,-4.1797 -2.2684,-8.0569 -3.8182,-7.5403 -2.1828,0.7276 -2.7758,3.1216 -1.5975,6.4484 1.4981,4.2294 2.6155,5.5833 4.3212,5.2358 1.0652,-0.217 1.3127,-1.1541 1.0945,-4.1439 z m 150.3579,-335.07645 c 0.041,-1.00722 0.2464,-1.21208 0.5224,-0.52237 0.2497,0.62413 0.219,1.36985 -0.068,1.65715 -0.2873,0.2873 -0.4916,-0.22336 -0.4541,-1.13478 z"
                     style="fill:#0d8978" />
                  <path
                     sodipodi:nodetypes="ccscssccccsssccsscscsssssscccscssscssssccscssssscscsscsssscscscssscscccccsccccsccscsccccccccssccssssscsscsccsscscccccsccsssssssssssssc"
                     inkscape:connector-curvature="0"
                     id="path64723"
                     d="m -4119.3937,1576.8907 c -8.7014,-1.2388 -25.1685,-5.1594 -30.8127,-7.3361 -3.6359,-1.4021 -9.8625,-4.5344 -13.8369,-6.9606 -6.2008,-3.7853 -7.901,-4.4297 -11.9815,-4.541 -3.7641,-0.1026 -8.4866,-1.6297 -22.6561,-7.3258 -9.8454,-3.9578 -18.5898,-7.6999 -19.4318,-8.3156 -1.4525,-1.0621 -1.4252,-1.3791 0.5313,-6.1765 3.5262,-8.6459 14.6873,-30.4958 16.5073,-32.3158 1.1917,-1.1916 2.3759,-1.5697 3.7988,-1.2126 1.6983,0.4263 2.4675,-0.07 4.3098,-2.7814 1.2334,-1.815 2.2425,-3.9446 2.2425,-4.7323 0,-0.7876 7.4347,-18.8863 16.5216,-40.2192 9.0868,-21.3329 25.0386,-58.7751 35.4485,-83.2048 l 18.9269,-44.4177 -0.01,-20.4271 c -0.017,-40.6675 -2.5048,-60.6144 -13.1153,-105.1577 -1.9257,-8.084 -4.1434,-18.78 -4.9283,-23.7689 l -1.427,-9.0707 -13.6961,-1.044 c -21.3043,-1.6239 -32.5222,-4.3498 -39.3826,-9.5696 -2.1774,-1.6568 -4.1645,-3.3348 -4.4157,-3.7291 -0.82,-1.2871 0.9359,-14.9117 11.3603,-88.1477 5.6535,-39.7179 10.2791,-72.76931 10.2791,-73.44757 0,-2.25789 -1.4723,0.178 -12.528,20.72757 -8.2586,15.3506 -11.1154,21.4806 -11.6848,25.0733 -1.7198,10.8516 -2.5897,30.8178 -2.5897,59.439 0,16.7074 0.021,31.7817 -0.3356,31.9686 -0.3566,0.1869 -11.2697,3.6058 -22.3391,3.391 -17.4992,-0.34 -18.9662,-5.2688 -19.576,-6.4955 -0.3895,-0.7834 1.1753,-27.3617 3.5186,-59.7645 l 4.22,-58.3538 3.7447,-8.2203 c 3.6156,-7.93706 29.0024,-61.73224 39.5807,-83.8725 7.1122,-14.88577 7.2881,-15.37917 10.1286,-28.42338 1.3849,-6.36005 3.0489,-12.09452 3.6976,-12.74326 0.8836,-0.88355 51.7351,-24.42111 65.2819,-30.21695 1.0417,-0.44567 4.4279,-3.79086 7.5249,-7.43374 4.7433,-5.57936 6.421,-6.92281 10.6427,-8.52271 4.2898,-1.62567 6.1327,-1.83071 12.7931,-1.42325 17.9009,1.0951 31.445,7.17729 37.4394,16.81268 l 2.538,4.07969 28.7521,11.21821 c 21.7369,8.48107 28.9256,11.64537 29.463,12.96897 0.3909,0.96291 2.6682,10.50481 5.0605,21.2042 2.3923,10.6994 9.9752,44.35386 16.8509,74.7877 6.8756,30.43384 17.7784,78.70334 24.2286,107.26544 6.4501,28.5622 11.7274,52.7487 11.7274,53.7478 0,1.9788 -5.8059,7.5803 -11.9515,11.5307 -5.0218,3.228 -14.8324,5.0636 -17.5213,3.2783 -1.4096,-0.936 -7.3076,-15.6078 -23.4261,-58.2753 -11.8482,-31.3634 -21.912,-57.3941 -22.3639,-57.8461 -1.0217,-1.0216 -1.0207,-0.4592 0.024,14.2223 0.8703,12.231 4.0906,59.5971 6.8461,100.6962 0.8917,13.2987 1.4406,24.6499 1.22,25.225 -0.2207,0.575 -2.0243,1.2948 -4.0081,1.5995 -9.4647,1.4537 -9.1565,1.3187 -9.6048,4.2064 -2.8374,18.276 -4.3028,26.6151 -6.1608,35.0601 -3.0567,13.8936 -14.5964,47.9735 -27.5464,81.3523 l -10.9017,28.0994 -4.7373,58.3604 c -2.6054,32.0981 -4.7357,60.5002 -4.7338,63.1156 0,2.6154 2.6851,19.7344 5.9626,38.0423 l 5.9591,33.287 4.1924,3.7338 c 6.9773,6.2139 15.1635,12.1559 20.1875,14.653 4.223,2.099 5.7961,2.3769 14.0547,2.4835 10.6338,0.1373 12.9384,1.0817 15.0662,6.1745 6.5162,15.5954 -18.0478,23.4714 -57.2203,18.3466 -7.133,-0.9332 -13.3991,-1.7041 -13.9247,-1.713 -0.5256,-0.01 -1.3235,1.2483 -1.7732,2.7937 l -0.8176,2.81 -6.4106,0 -6.4107,0 -0.6558,3.8907 c -0.7779,4.6152 -4.7742,8.8169 -9.9134,10.4228 -3.3479,1.0463 -20.9847,1.8242 -25.8035,1.138 z m 10.0948,-28.6644 c 0.3348,-1.9615 0.9896,-4.278 1.4551,-5.1478 0.4655,-0.8698 2.4508,-6.807 4.4119,-13.1938 3.5468,-11.5518 3.5563,-11.6194 1.8105,-12.9408 -1.8379,-1.3913 -1.7206,-0.7234 -6.9524,-39.5869 -2.1269,-15.7998 -2.4974,-17.4887 -3.4585,-15.7667 -0.3943,0.7066 -5.0399,13.3335 -10.3234,28.0599 -5.2836,14.7264 -9.9904,27.1592 -10.4597,27.6284 -0.5611,0.5612 -2.058,0.5315 -4.3734,-0.087 -4.2129,-1.1244 -4.9319,-0.2039 -3.4197,4.3779 3.3558,10.1684 18.1549,26.8354 26.4024,29.7348 3.6686,1.2898 4.2205,0.9436 4.9072,-3.0785 z m 121.179,-214.5244 c -2.9329,-0.2841 -5.5771,-0.7615 -5.8759,-1.0608 -0.937,-0.9387 -11.9186,-133.1666 -11.1255,-133.9597 0.4114,-0.4114 9.039,-2.6027 19.1725,-4.8694 l 18.4244,-4.1214 3.7119,-7.4701 c 2.0415,-4.1086 5.5055,-10.2428 7.6977,-13.6316 3.9607,-6.1226 4.0103,-6.1616 7.843,-6.1616 2.1214,0 4.099,0.3913 4.3946,0.8696 0.5671,0.9176 -0.2888,3.9298 -3.6025,12.6791 -1.1113,2.9343 -2.0205,6.1942 -2.0205,7.2443 0,1.781 0.276,1.8712 4.1068,1.3421 2.2588,-0.3119 6.8303,-1.2435 10.159,-2.0702 5.93,-1.4727 6.0463,-1.5552 5.7622,-4.0834 -0.6655,-5.9226 -0.7352,-5.77 3.1702,-6.9386 2.0595,-0.6163 4.4666,-1.774 5.3491,-2.5726 2.1831,-1.9756 3.2393,-1.0688 3.9019,3.3497 0.3074,2.0501 0.8484,4.1959 1.2022,4.7684 0.4828,0.7812 4.5604,0.1698 16.3457,-2.4508 16.1908,-3.6002 18.7712,-3.9728 19.4876,-2.8137 1.0611,1.7168 20.6128,130.9044 19.9134,131.5768 -0.4273,0.4107 -24.0557,7.5885 -52.5077,15.9505 l -51.7309,15.2037 -9.2233,-0.1318 c -5.0728,-0.073 -11.6229,-0.3643 -14.5559,-0.6485 z m -63.7136,-515.81183 c -0.2727,-0.71057 -1.7237,-2.0387 -3.2245,-2.95141 -2.2486,-1.36743 -3.8132,-1.58131 -8.8912,-1.21543 l -6.1624,0.44402 -3.2247,-3.44932 c -2.7285,-2.91864 -4.0401,-3.59296 -8.5248,-4.38293 -5.8417,-1.02899 -12.2463,-4.34234 -14.1011,-7.29508 -0.6582,-1.04782 -1.4536,-3.85048 -1.7675,-6.22813 -1.3907,-10.53429 -5.3692,-18.58885 -9.182,-18.58885 -2.3779,0 -4.2699,4.36311 -4.7907,11.048 -0.7,8.98496 -0.9503,9.70235 -3.3848,9.70235 -1.9578,0 -2.145,-0.33118 -2.145,-3.79491 0,-4.74405 -2.5155,-8.4391 -4.5792,-6.72639 -5.4133,4.49267 -0.1904,-20.58496 6.7237,-32.28332 6.1346,-10.37959 15.9396,-17.15393 29.5128,-20.39069 6.5767,-1.56832 8.3039,-1.68957 12.0049,-0.84273 10.4701,2.39574 26.3125,12.97327 33.417,22.31165 10.8768,14.29672 10.3083,27.12315 -2.3476,52.96634 -6.0491,12.35235 -8.0926,14.90903 -9.3329,11.67683 z"
                     style="fill:#0d6458" />
                  <path
                     sodipodi:nodetypes="cccccscssssssccscscssssscssscscsscscscsssscscsscccsscsccssscsscccsssssscccsccccsscsscsccsscccssccsccsssccscscsccscsccccsscssccssssssssssss"
                     inkscape:connector-curvature="0"
                     id="path64721"
                     d="m -4116.3676,1575.695 c -21.1631,-2.0648 -38.6823,-8.1029 -54.3397,-18.7282 -2.7126,-1.8409 -3.1353,-1.9077 -4.4634,-0.7058 -1.3274,1.2013 -2.1662,1.0809 -8.813,-1.2652 -9.6555,-3.4079 -31.8535,-12.7052 -32.948,-13.7997 -1.1832,-1.1831 0.7537,-5.9752 9.2177,-22.8055 l 7.0481,-14.0149 3.2042,-0.2661 c 2.6116,-0.2169 3.6909,-0.9279 5.836,-3.8448 1.4476,-1.9684 2.6319,-4.3894 2.6319,-5.3802 0,-0.9906 1.3208,-4.902 2.935,-8.6918 1.6142,-3.7898 8.0758,-18.9516 14.3591,-33.693 11.8754,-27.861 19.6667,-46.1697 40.9725,-96.2803 l 12.6304,-29.7063 -0.01,-12.2267 c -0.01,-17.3533 -1.5341,-47.5849 -3.02,-59.7796 -1.4639,-12.0133 -4.7171,-28.4795 -10.3345,-52.3081 -2.1861,-9.2728 -4.5615,-20.7353 -5.2788,-25.4721 -0.7173,-4.7368 -1.7044,-8.8598 -2.1936,-9.1621 -0.4892,-0.3024 -6.4097,-0.8066 -13.1568,-1.1206 -12.3255,-0.5737 -25.3487,-2.6856 -32.5855,-5.2843 -3.6122,-1.2971 -10.1645,-5.2072 -11.3009,-6.7439 -0.5786,-0.7824 -1.0538,2.7305 12.1861,-90.0725 5.6954,-39.9182 10.355,-73.50778 10.355,-74.64363 0,-1.20443 -0.4259,-1.92323 -1.0219,-1.72458 -0.562,0.18734 -6.6427,10.78844 -13.5126,23.55801 -11.7991,21.9319 -12.5306,23.5733 -13.2115,29.6452 -1.671,14.8998 -2.7229,45.1222 -2.2718,65.2663 l -0.7723,24.8408 -19.216,1.2516 c -15.6737,1.0209 -19.3079,-4.9331 -19.657,-5.8429 -0.2426,-0.6321 0.5441,-14.7358 1.7482,-31.3417 1.2041,-16.6058 2.9676,-41.4753 3.9189,-55.2657 0.9512,-13.7903 2.0987,-27.0187 2.55,-29.3963 0.4872,-2.5673 10.8681,-25.55905 25.5607,-56.61209 l 24.7402,-52.2891 2.6453,-12.12342 c 1.4549,-6.66788 3.0872,-12.57956 3.6272,-13.13706 0.8381,-0.86515 14.7592,-7.33118 57.5738,-26.74162 7.3875,-3.34919 8.8213,-4.40835 14.892,-11.0013 6.299,-6.84083 7.0683,-7.39027 12.3483,-8.81948 6.6459,-1.79899 13.6334,-1.40331 24.2425,1.37275 12.0058,3.14152 17.8616,7.05028 23.2136,15.49497 1.7799,2.80853 3.7962,3.75549 29.9834,14.0824 15.4414,6.08928 28.5538,11.54925 29.1388,12.13327 0.9227,0.92107 4.624,16.62643 19.8048,84.03563 1.7134,7.60846 11.2146,49.62795 21.1136,93.37655 17.4994,77.3382 17.9579,79.6062 16.5398,81.8222 -1.6623,2.5979 -8.0077,8.0747 -11.33,9.7792 -1.228,0.63 -4.4066,1.5934 -7.0635,2.1409 -8.3036,1.7109 -8.2131,1.8154 -15.8047,-18.2296 -3.6628,-9.6715 -13.9413,-36.8436 -22.8409,-60.3822 -8.8997,-23.5387 -16.5702,-42.6875 -17.0456,-42.5529 -1.4115,0.3997 -0.9385,8.8554 6.5766,117.5737 0.995,14.3942 1.6068,26.6984 1.3595,27.3428 -0.2635,0.6867 -2.5356,1.4316 -5.4897,1.7997 -6.3691,0.7935 -8.0662,1.7089 -8.0662,4.3509 0,4.0713 -5.1334,32.0889 -7.6817,41.9258 -3.7245,14.3767 -14.2951,44.7965 -26.4388,76.0845 l -10.5706,27.2349 -2.7217,34.1516 c -1.497,18.7834 -3.7353,46.595 -4.974,61.8036 l -2.2523,27.6521 6.2119,34.5989 6.2119,34.5991 4.4109,4.2011 c 6.6115,6.2971 14.9709,12.376 21.3082,15.4951 5.3404,2.6284 6.1311,2.7726 14.2014,2.5901 9.412,-0.2129 11.1613,0.3304 13.0934,4.0666 4.9388,9.5506 -2.7067,16.0268 -22.4894,19.0498 -7.8233,1.1954 -17.1082,0.7498 -35.4297,-1.7004 -12.7111,-1.6999 -13.9316,-1.5335 -14.4301,1.9679 -0.2453,1.7228 -0.837,1.9041 -6.9687,2.1352 -3.6854,0.1388 -6.7255,0.5279 -6.7559,0.8646 -0.6826,7.57 -1.8981,9.7519 -6.8361,12.2711 -1.8741,0.9561 -6.0509,2.1206 -9.2817,2.5878 -6.4134,0.9273 -6.4057,0.9273 -15.8171,0.01 z m 8.0094,-24.6311 c -0.1123,-0.951 0.9486,-5.0362 2.3576,-9.0782 1.409,-4.042 3.7467,-11.2184 5.1948,-15.9474 l 2.633,-8.5982 -2.0729,-1.7769 c -1.9322,-1.6563 -2.3223,-3.626 -5.745,-29.0118 -2.0196,-14.9791 -3.9652,-27.7811 -4.3234,-28.4488 -1.1545,-2.1515 -2.9213,1.9596 -12.9693,30.178 -5.3337,14.9792 -9.9476,27.5016 -10.253,27.8275 -0.3055,0.3261 -2.2301,0.1428 -4.277,-0.4073 -4.4248,-1.189 -5.4851,-0.2473 -4.5139,4.0093 2.2974,10.069 16.8836,28.0535 26.0194,32.0813 4.1856,1.8454 8.2159,1.4259 7.9497,-0.8275 z m 125.7872,-218.2758 c -5.1118,-0.3045 -9.6377,-0.9233 -10.0575,-1.3751 -0.4197,-0.4518 -1.5957,-10.7427 -2.6132,-22.8687 -2.1698,-25.8564 -4.686,-55.2273 -6.7034,-78.2461 -0.7919,-9.035 -1.4741,-19.7331 -1.5161,-23.7734 l -0.076,-7.3461 18.0509,-4.0474 c 9.928,-2.2261 18.356,-4.3673 18.729,-4.7583 0.3729,-0.391 2.5723,-4.407 4.8874,-8.9246 2.3152,-4.5175 5.6516,-10.4508 7.4144,-13.1851 3.0259,-4.6936 3.3988,-4.9714 6.6741,-4.9714 1.908,0 3.4692,0.3356 3.4692,0.7457 0,0.4101 -1.1863,3.6199 -2.6361,7.1329 -2.9935,7.2533 -4.3571,12.5314 -3.6879,14.2751 0.6389,1.665 3.6435,1.3967 14.1053,-1.2597 9.8778,-2.5082 9.7188,-2.3437 8.2889,-8.5735 -0.4854,-2.1151 -0.3524,-2.8099 0.5379,-2.8099 0.6505,0 2.6976,-0.7723 4.5488,-1.7162 1.8514,-0.9438 3.5872,-1.4975 3.8574,-1.2303 0.2702,0.2672 0.8811,2.3039 1.3575,4.5261 0.7264,3.3874 1.2153,4.0797 3.0261,4.2846 1.188,0.1345 8.9686,-1.2965 17.2903,-3.1798 11.5362,-2.6109 15.3565,-3.1824 16.0818,-2.4059 0.5233,0.5601 4.9441,26.6969 9.8242,58.0818 10.8616,69.8545 10.9239,70.3025 9.9141,71.2694 -1.7009,1.6285 -104.5511,31.1971 -108.014,31.0532 -1.9021,-0.079 -7.6408,-0.3929 -12.7527,-0.6973 z m -70.9339,-517.70801 c -2.2487,-2.24647 -2.7693,-2.36867 -9.1145,-2.13937 l -6.7296,0.2432 -3.4259,-3.35824 c -2.8383,-2.78227 -4.3668,-3.52396 -8.9119,-4.32458 -6.3023,-1.11011 -13.7401,-5.39164 -14.3233,-8.24501 -0.208,-1.01778 -0.7745,-4.31442 -1.259,-7.32587 -1.6136,-10.03123 -6.8804,-18.42117 -10.6546,-16.97286 -2.2025,0.84516 -4.289,6.81857 -4.8678,13.93578 -0.4465,5.49087 -0.8348,6.81834 -2.063,7.05312 -1.2158,0.2324 -1.5131,-0.32616 -1.5131,-2.84321 0,-4.12943 -2.166,-8.23413 -4.3452,-8.23413 -2.4342,0 -2.264,-4.79834 0.5103,-14.38529 5.918,-20.45024 15.7027,-30.59297 34.0958,-35.34356 7.6665,-1.98011 13.0861,-1.37747 20.8415,2.31749 13.9323,6.63791 26.4022,18.57595 29.8682,28.59424 2.2422,6.48109 1.9048,15.70249 -0.8942,24.437 -2.4045,7.50336 -12.5211,28.34141 -13.9494,28.73286 -0.4836,0.13254 -1.9526,-0.83116 -3.2643,-2.14157 z"
                     style="fill:#000101" />
                </g>
              </g>
            </g>
          </g>
        </g>
      </g>
    </g>
  </g>
</svg>
