<?xml version="1.0" encoding="UTF-8" standalone="no"?>
<!-- Created with Inkscape (http://www.inkscape.org/) -->

<svg
   xmlns:dc="http://purl.org/dc/elements/1.1/"
   xmlns:cc="http://creativecommons.org/ns#"
   xmlns:rdf="http://www.w3.org/1999/02/22-rdf-syntax-ns#"
   xmlns:svg="http://www.w3.org/2000/svg"
   xmlns="http://www.w3.org/2000/svg"
   xmlns:sodipodi="http://sodipodi.sourceforge.net/DTD/sodipodi-0.dtd"
   xmlns:inkscape="http://www.inkscape.org/namespaces/inkscape"
   width="101.36446mm"
   height="67.279785mm"
   viewBox="0 0 101.36446 67.279785"
   version="1.1"
   id="svg318"
   inkscape:version="0.92.4 (5da689c313, 2019-01-14)"
   sodipodi:docname="Workaholic Grind.svg">
  <title
     id="title364">Workaholic Grind</title>
  <defs
     id="defs312" />
  <sodipodi:namedview
     id="base"
     pagecolor="#ffffff"
     bordercolor="#666666"
     borderopacity="1.0"
     inkscape:pageopacity="0.0"
     inkscape:pageshadow="2"
     inkscape:zoom="1.9492701"
     inkscape:cx="197.14283"
     inkscape:cy="104.28567"
     inkscape:document-units="mm"
     inkscape:current-layer="layer1"
     showgrid="false"
     fit-margin-top="0"
     fit-margin-left="0"
     fit-margin-right="0"
     fit-margin-bottom="0"
     inkscape:window-width="1920"
     inkscape:window-height="986"
     inkscape:window-x="-11"
     inkscape:window-y="-11"
     inkscape:window-maximized="1" />
  <metadata
     id="metadata315">
    <rdf:RDF>
      <cc:Work
         rdf:about="">
        <dc:format>image/svg+xml</dc:format>
        <dc:type
           rdf:resource="http://purl.org/dc/dcmitype/StillImage" />
        <dc:title>Workaholic Grind</dc:title>
        <cc:license
           rdf:resource="http://creativecommons.org/publicdomain/zero/1.0/" />
      </cc:Work>
      <cc:License
         rdf:about="http://creativecommons.org/publicdomain/zero/1.0/">
        <cc:permits
           rdf:resource="http://creativecommons.org/ns#Reproduction" />
        <cc:permits
           rdf:resource="http://creativecommons.org/ns#Distribution" />
        <cc:permits
           rdf:resource="http://creativecommons.org/ns#DerivativeWorks" />
      </cc:License>
    </rdf:RDF>
  </metadata>
  <g
     inkscape:label="Layer 1"
     inkscape:groupmode="layer"
     id="layer1"
     transform="translate(416.52972,-320.43451)">
    <g
       id="g26">
      <rect
         y="320.43451"
         x="-366.11209"
         height="67.279785"
         width="50.946823"
         id="rect340-5"
         style="opacity:1;fill:#132287;fill-opacity:1;fill-rule:nonzero;stroke:none;stroke-width:0.26458332" />
      <rect
         y="320.43451"
         x="-416.52972"
         height="67.279785"
         width="50.946823"
         id="rect340"
         style="opacity:1;fill:#8d1425;fill-opacity:1;fill-rule:nonzero;stroke:none;stroke-width:0.26458332" />
      <path
         id="path335"
         d="m -373.12377,328.09726 c -0.18938,0.003 -0.37535,0.0377 -0.59196,0.10345 -0.30151,0.0916 -0.95485,0.36043 -1.41694,0.58315 -0.25749,0.1241 -0.84078,0.61003 -1.02351,0.85265 -0.40561,0.53854 -0.52675,1.22958 -0.26499,1.51169 0.0963,0.10381 0.11198,0.21098 0.14587,0.99923 0.0344,0.80014 0.0487,0.89611 0.15293,1.02268 0.18307,0.2224 0.18796,0.29389 0.0512,0.7539 -0.0711,0.2391 -0.14423,0.58169 -0.16245,0.76127 -0.0439,0.43286 0.0154,0.50929 0.35974,0.46361 0.27517,-0.0365 0.25348,-0.058 0.4508,0.44722 0.0385,0.0986 0.116,0.15363 0.28108,0.19985 l 0.2278,0.0638 -0.0178,0.22494 c -0.0166,0.20894 -0.005,0.23253 0.16481,0.3327 0.14194,0.0838 0.19054,0.15284 0.21757,0.30945 0.0726,0.42054 0.23521,0.50302 1.05116,0.53316 0.53891,0.0199 0.63911,0.0374 0.69787,0.12128 0.0377,0.0539 0.10564,0.0979 0.15088,0.0979 0.0653,0 0.0748,0.0351 0.0459,0.17045 -0.02,0.0937 -0.0561,0.30025 -0.0802,0.4589 -0.0241,0.15864 -0.0942,0.47725 -0.1556,0.70801 -0.10005,0.37587 -0.24222,1.12681 -0.5857,3.09365 -0.10629,0.6086 -0.10798,0.70008 -0.0555,2.85827 0.0403,1.65893 0.075,2.32262 0.13562,2.59328 0.0759,0.3391 0.0753,0.37075 -0.01,0.46637 -0.11058,0.12452 -0.5745,0.34869 -0.72307,0.34939 -0.0591,2.1e-4 -0.1346,-0.0265 -0.16768,-0.0596 -0.0331,-0.0331 -0.23246,-0.0709 -0.44312,-0.0839 -0.34683,-0.0215 -0.41035,-0.009 -0.67196,0.12937 -0.27339,0.14485 -0.29874,0.14901 -0.472,0.0781 -0.14277,-0.0585 -0.4504,-0.0732 -1.39656,-0.0671 -1.02977,0.007 -1.22573,-0.004 -1.29423,-0.0728 -0.0968,-0.0968 -0.26025,-0.52107 -0.37737,-0.97946 -0.0489,-0.19124 -0.15242,-0.41835 -0.24245,-0.53172 -0.23509,-0.29601 -0.40115,-0.69967 -0.4801,-1.16711 -0.0695,-0.41142 -0.0731,-0.41813 -0.22443,-0.41813 -0.37895,0 -0.44577,0.74403 -0.15191,1.69136 0.0352,0.11356 0.0245,0.118 -0.2864,0.118 -0.29362,0 -0.34791,-0.0186 -0.59615,-0.20415 -0.15021,-0.11226 -0.36749,-0.30357 -0.48287,-0.42519 -0.26764,-0.28214 -0.86044,-0.75996 -1.14416,-0.9222 -0.34884,-0.19947 -0.56031,-0.14872 -0.56031,0.13439 0,0.19136 0.10492,0.31917 0.51032,0.62197 0.47785,0.3569 1.09677,1.05741 0.93428,1.05741 -0.0131,0 -0.1842,-0.12024 -0.38023,-0.26715 -0.19602,-0.1469 -0.42224,-0.30132 -0.50273,-0.34325 -0.0805,-0.0419 -0.32228,-0.19116 -0.53736,-0.33157 -0.32346,-0.21116 -0.41609,-0.24856 -0.53552,-0.21664 -0.18261,0.0488 -0.27048,0.26486 -0.17731,0.43605 0.0358,0.0657 0.18759,0.20049 0.33741,0.29951 0.14983,0.099 0.46128,0.31409 0.69204,0.47795 0.23076,0.16386 0.51986,0.34885 0.64245,0.41106 0.12259,0.0622 0.22289,0.13501 0.22289,0.16184 0,0.0494 -0.40792,-0.12511 -1.30785,-0.55958 -0.52797,-0.2549 -0.62711,-0.25638 -0.68742,-0.0108 -0.0489,0.19904 -0.007,0.27715 0.22832,0.42479 0.42933,0.26942 1.19443,0.66463 1.453,0.75052 0.14434,0.0479 0.28672,0.13237 0.31631,0.18765 0.0647,0.12091 0.0605,0.1214 -0.17782,0.0218 -0.10356,-0.0433 -0.2574,-0.0787 -0.34182,-0.0787 -0.0844,0 -0.3092,-0.0481 -0.49956,-0.10694 -0.40807,-0.12604 -0.55652,-0.0851 -0.55652,0.15314 0,0.24434 0.21385,0.37228 0.96789,0.57915 0.21894,0.0601 0.6513,0.236 0.96071,0.39088 0.90697,0.45399 1.2156,0.54608 1.96936,0.58796 l 0.65546,0.0365 0.0865,0.18919 c 0.0965,0.21137 0.27199,0.42192 0.42479,0.5094 0.0661,0.0378 0.16826,0.26232 0.2947,0.64798 0.1064,0.32455 0.20119,0.59791 0.2107,0.60742 0.01,0.01 0.36272,-0.0513 0.78494,-0.1351 0.42221,-0.0838 1.07652,-0.19976 1.45402,-0.25762 0.3775,-0.0579 0.84582,-0.14267 1.04071,-0.18848 0.40566,-0.0953 1.73722,-0.16153 2.16767,-0.10775 l 0.28968,0.0362 0.01,0.19422 c 0.0405,0.78607 0.0937,0.95414 0.44015,1.39246 l 0.20691,0.26171 -0.51462,0.52118 c -0.47931,0.48538 -1.39096,1.3089 -1.98544,1.79358 -0.39402,0.32125 -1.46066,1.05996 -1.8109,1.25408 -0.32405,0.1796 -1.68768,1.24809 -1.94857,1.52685 -1.19691,1.27891 -1.23871,1.33733 -1.29945,1.81582 -0.027,0.21281 -0.0743,0.50489 -0.1051,0.64911 -0.057,0.26729 -0.007,0.75367 0.1092,1.05895 0.18628,0.48995 0.30969,7.16171 0.14678,7.93541 -0.0273,0.12981 -0.0852,0.53101 -0.12855,0.89157 -0.0842,0.69977 -0.30109,1.75989 -0.41321,2.01914 -0.0374,0.0865 -0.10618,0.26354 -0.15273,0.39334 -0.0465,0.12981 -0.21095,0.46021 -0.36537,0.73424 -0.20924,0.3713 -0.31287,0.50499 -0.40686,0.52476 -0.22183,0.0466 -0.69723,0.32346 -0.86002,0.50079 -0.36835,0.40124 -1.11987,0.94342 -1.55615,1.12266 l -0.43708,0.17966 -0.94811,0.003 -0.94812,0.003 -0.19257,0.14689 c -0.10592,0.0808 -0.19257,0.17817 -0.19257,0.21644 0,0.0383 -0.0354,0.099 -0.0787,0.1349 -0.0433,0.0359 -0.0787,0.133 -0.0787,0.21583 0,0.17912 0.20279,0.34226 0.8253,0.66386 1.03234,0.53331 2.20415,0.90159 3.22518,1.01356 0.54187,0.0594 0.68272,0.0569 1.18002,-0.0214 0.95239,-0.14989 0.88964,-0.15182 1.03251,0.0307 0.11221,0.14337 0.1699,0.16746 0.48533,0.2025 0.19688,0.0219 0.6648,0.0409 1.03978,0.0423 0.59013,0.002 0.70471,-0.0114 0.85224,-0.1014 0.15118,-0.0922 0.1714,-0.13217 0.17885,-0.3538 0.005,-0.13744 0.0196,-0.42694 0.0334,-0.64328 0.0138,-0.21633 0.0264,-0.67654 0.028,-1.02268 0.003,-0.56484 -0.0122,-0.66966 -0.14402,-1.02268 -0.13108,-0.35097 -0.14975,-0.48156 -0.17352,-1.21259 -0.0269,-0.8269 0.0463,-1.91442 0.14679,-2.18221 0.03,-0.0799 0.15654,-0.25145 0.28128,-0.38126 0.33963,-0.35342 0.52187,-0.8458 0.53377,-1.44225 0.009,-0.43175 0.0341,-0.53798 0.29798,-1.24537 0.15869,-0.42532 0.31816,-0.89733 0.35441,-1.0489 0.0363,-0.15157 0.15668,-0.54584 0.26755,-0.8762 0.11088,-0.33036 0.20159,-0.6301 0.20159,-0.66612 0,-0.036 -0.10809,-0.22013 -0.2402,-0.40911 l -0.24021,-0.34366 0.2399,-0.90448 c 0.13196,-0.49747 0.28543,-1.11313 0.341,-1.36819 0.086,-0.39477 0.1339,-0.5027 0.32204,-0.72583 l 0.22095,-0.26212 -0.0333,-0.35821 -0.0333,-0.35831 0.32266,-0.27943 c 0.17748,-0.15373 0.42314,-0.36897 0.54586,-0.47836 0.28334,-0.25257 1.27455,-0.61215 2.12721,-0.77162 1.28178,-0.23972 2.34911,-0.58879 2.95291,-0.96573 0.33057,-0.20636 0.54891,-0.30243 0.6065,-0.26684 0.11368,0.0703 1.01539,1.42907 1.22294,1.84286 0.12831,0.2558 0.65171,1.36186 1.16312,2.45796 0.98469,2.1105 1.68542,3.53848 2.03307,4.14318 0.45413,0.7899 1.00333,1.55681 1.31779,1.83998 0.4511,0.40624 0.84103,0.61094 1.93597,1.01634 0.52516,0.19444 1.45048,0.53738 2.05622,0.76209 0.60575,0.22472 1.36096,0.49617 1.67825,0.60322 0.77718,0.26224 1.13691,0.4525 1.7269,0.9137 0.27402,0.2142 0.57271,0.4326 0.66377,0.48532 0.12442,0.072 0.23305,0.23266 0.43718,0.64655 0.42892,0.86974 0.7649,1.66892 0.73474,1.7475 -0.0261,0.0679 0.23191,0.54466 0.44015,0.81341 l 0.0947,0.1221 0.39006,-0.17188 c 0.6579,-0.29003 1.35652,-0.73543 1.78734,-1.13935 l 0.41085,-0.38515 0.053,0.13941 c 0.0292,0.0767 0.0531,0.25458 0.0531,0.39529 0,0.18676 0.0256,0.27437 0.095,0.3244 0.15951,0.11509 0.17298,0.15352 0.40061,1.14365 0.0497,0.21634 0.1219,0.48881 0.16031,0.60548 0.12954,0.39356 0.094,1.44709 -0.0831,2.4639 -0.0881,0.50566 -0.038,0.86797 0.16328,1.18166 0.25839,0.40267 0.4472,0.53813 0.70361,0.50499 0.18005,-0.0233 0.26278,-0.0819 0.54412,-0.38565 0.62253,-0.67222 1.29319,-1.80213 1.59968,-2.695 0.24834,-0.72349 0.30571,-1.2222 0.26591,-2.31107 -0.0418,-1.14296 -0.0268,-1.24988 0.17332,-1.23595 0.13039,0.009 0.14687,-0.0128 0.20988,-0.27861 0.11741,-0.4954 0.2765,-1.58593 0.27708,-1.8992 6.8e-4,-0.36316 -0.16617,-0.83886 -0.34294,-0.97791 -0.0708,-0.0557 -0.26089,-0.11643 -0.4293,-0.13706 -0.16625,-0.0204 -0.44388,-0.0847 -0.61695,-0.14299 -0.39896,-0.1344 -1.17123,-0.15361 -1.44163,-0.0359 -0.18274,0.0796 -0.18316,0.0795 -0.46145,-0.14719 -0.15319,-0.12478 -0.40125,-0.28907 -0.55129,-0.36507 -0.15005,-0.076 -0.61498,-0.35133 -1.03323,-0.61193 -0.85414,-0.53219 -1.3473,-0.77491 -2.15026,-1.05812 -0.75479,-0.26622 -0.90756,-0.36534 -1.3857,-0.89966 -0.55612,-0.62146 -1.46521,-1.51446 -1.81705,-1.78488 -0.15693,-0.12062 -0.47398,-0.29456 -0.70463,-0.38648 -0.23065,-0.0919 -0.46945,-0.20564 -0.5306,-0.2527 -0.0611,-0.0471 -0.29714,-0.22898 -0.52445,-0.4043 -0.2273,-0.17533 -0.64331,-0.45794 -0.92455,-0.62801 -0.44862,-0.27129 -0.51134,-0.32699 -0.51134,-0.45398 0,-0.21491 -0.2429,-0.4529 -0.57741,-0.56584 -0.28772,-0.0971 -0.28796,-0.0974 -0.31816,-0.35021 -0.0166,-0.13916 -0.0899,-0.37101 -0.16266,-0.51524 -0.12089,-0.23948 -0.13993,-0.37367 -0.22002,-1.54713 -0.0813,-1.19151 -0.1161,-1.52411 -0.30156,-2.88449 -0.0374,-0.27402 -0.0612,-0.69235 -0.0529,-0.92957 0.0142,-0.40567 0.007,-0.43869 -0.12015,-0.55662 -0.16275,-0.15083 -0.16572,-0.19198 -0.0305,-0.41372 0.0576,-0.0944 0.10528,-0.26608 0.10602,-0.38146 7.9e-4,-0.11538 0.048,-0.31267 0.1051,-0.43841 0.0571,-0.12574 0.10376,-0.29892 0.10376,-0.38484 0,-0.15264 0.005,-0.15539 0.20538,-0.12148 0.68351,0.11548 1.11647,-0.18734 1.94488,-1.3604 0.15864,-0.22465 0.36515,-0.51443 0.45889,-0.64389 0.12604,-0.17405 0.17072,-0.29196 0.17158,-0.45255 10e-4,-0.23492 0.14239,-0.59167 0.33423,-0.84496 0.2309,-0.30485 0.25107,-0.37529 0.16615,-0.57853 l -0.0778,-0.18602 0.31508,-0.34766 c 0.20944,-0.23111 0.30447,-0.37579 0.28343,-0.43144 -0.0802,-0.21208 -1.41059,-2.64706 -1.9629,-3.59271 -0.3385,-0.57954 -0.96489,-1.67913 -1.39206,-2.44351 -0.42717,-0.76439 -0.81458,-1.43347 -0.86084,-1.48691 -0.0463,-0.0534 -0.24031,-0.18997 -0.43124,-0.3034 -0.3161,-0.1878 -0.40991,-0.29037 -1.049,-1.14622 -0.38603,-0.51695 -0.75469,-1.04123 -0.81926,-1.16506 -0.14184,-0.27207 -0.34171,-1.19539 -0.25874,-1.19539 0.2961,0 2.02476,0.35608 2.4134,0.49711 0.88618,0.32157 0.91221,0.33575 1.05311,0.57618 0.0724,0.12349 0.35868,0.43298 0.6362,0.68773 0.37896,0.34785 0.54395,0.54212 0.66284,0.78022 0.0871,0.17438 0.35331,0.57663 0.59155,0.89393 0.23824,0.31729 0.68631,0.9545 0.99574,1.41602 0.30943,0.46152 0.60046,0.86876 0.64676,0.90499 0.0745,0.0583 0.077,0.11575 0.0213,0.50099 -0.0825,0.57062 -0.0794,0.79634 0.0135,0.97608 0.0421,0.0813 0.11534,0.32213 0.16276,0.535 0.0474,0.21288 0.15296,0.49319 0.23457,0.623 0.0816,0.1298 0.17646,0.3481 0.2107,0.48511 0.0694,0.27781 0.15687,0.31462 0.33977,0.14279 l 0.11329,-0.10642 0.30187,0.15887 c 0.16606,0.0874 0.34385,0.15877 0.39508,0.15877 0.0512,0 0.12258,0.0355 0.15856,0.0789 0.0541,0.0652 -0.032,0.29388 -0.49925,1.32425 -0.3106,0.68497 -0.61823,1.29257 -0.68363,1.35026 -0.14602,0.12879 -0.3545,0.58445 -0.3451,0.75431 0.007,0.12122 -0.58383,1.49182 -0.78494,1.82175 -0.1731,0.28399 -0.1067,0.40624 0.29368,0.54084 0.19109,0.0642 1.02772,0.58748 6.10987,3.82154 2.10589,1.3401 2.49422,1.59278 2.76085,1.79605 0.22993,0.17527 0.35559,0.17769 0.52302,0.0102 0.0575,-0.0575 0.18076,-0.0863 0.37747,-0.0883 l 0.29203,-0.003 0.0967,-0.32779 c 0.0532,-0.18028 0.11785,-0.32778 0.1436,-0.32778 0.1098,0 0.21173,-0.17785 0.21173,-0.36957 0,-0.21958 0.088,-0.42976 1.95267,-4.66517 2.73865,-6.22051 2.97324,-6.73308 3.14784,-6.87843 0.14687,-0.12226 0.16603,-0.16807 0.15703,-0.375 -0.008,-0.1746 0.0225,-0.28408 0.11657,-0.42264 0.29854,-0.43992 0.28429,-0.53826 -0.10315,-0.70965 -0.20716,-0.0916 -0.68422,-0.39136 -2.33402,-1.46621 -0.24518,-0.15973 -1.3898,-0.91416 -2.5436,-1.67651 -1.15379,-0.76234 -2.44675,-1.61095 -2.87322,-1.88587 -0.42647,-0.27492 -0.87854,-0.59064 -1.00455,-0.70156 -0.12601,-0.11092 -0.27459,-0.20169 -0.33024,-0.20169 -0.0557,0 -0.17709,0.0944 -0.26981,0.20978 -0.12535,0.15599 -0.20681,0.20978 -0.31764,0.20978 -0.20281,0 -0.34221,0.13823 -0.42028,0.4167 -0.0975,0.3478 -0.46249,1.11165 -0.60271,1.26145 -0.17213,0.18388 -0.40144,0.66013 -0.36435,0.75677 0.0338,0.0882 -0.86054,2.07537 -0.93408,2.07537 -0.0248,0 -0.19813,-0.1298 -0.38515,-0.28845 -0.18701,-0.15864 -0.37295,-0.28844 -0.41321,-0.28844 -0.0403,0 -0.20924,-0.14167 -0.37551,-0.31478 -0.42947,-0.44711 -0.42373,-0.49876 0.11697,-1.05003 l 0.43852,-0.44701 -0.39754,-0.47078 c -0.21865,-0.25892 -0.63556,-0.82478 -0.9265,-1.25746 -0.29095,-0.43267 -0.75653,-1.08168 -1.03457,-1.44224 -0.27804,-0.36057 -0.58693,-0.7648 -0.68639,-0.89833 -0.49355,-0.66259 -2.74198,-3.41571 -2.91656,-3.5712 -0.26409,-0.23522 -1.17733,-0.37877 -2.77458,-0.43595 -0.87752,-0.0314 -1.0362,-0.0243 -1.29566,0.0575 l -0.29572,0.0932 -0.3748,-0.1728 c -0.32785,-0.15112 -0.4098,-0.16862 -0.65393,-0.13993 -0.15548,0.0183 -0.39667,0.006 -0.54453,-0.0285 -0.21702,-0.0501 -0.30384,-0.10676 -0.47579,-0.31068 -0.44943,-0.533 -1.24097,-0.80417 -2.25607,-0.77285 -0.58022,0.0179 -0.61906,0.0265 -1.02268,0.22658 -0.2642,0.13097 -0.53436,0.31908 -0.72942,0.50806 -0.33867,0.32811 -0.36187,0.33019 -0.6231,0.0556 -0.13145,-0.13816 -0.1378,-0.16076 -0.0627,-0.22309 0.21944,-0.18212 0.32044,-0.71359 0.20681,-1.08804 -0.0415,-0.13673 -0.0757,-0.37885 -0.076,-0.53807 -4.2e-4,-0.15923 -0.0494,-0.4657 -0.10909,-0.68108 -0.10627,-0.38349 -0.14476,-0.4758 -0.43196,-1.03548 -0.0777,-0.15145 -0.14125,-0.3077 -0.14125,-0.34725 0,-0.16927 -0.52804,-0.86199 -0.89567,-1.175 -0.33171,-0.28242 -0.45557,-0.35119 -0.87364,-0.48511 -0.32675,-0.10467 -0.57577,-0.15391 -0.81925,-0.15027 z m 20.16827,17.03272 c 0.041,-0.006 0.11697,0.0505 0.26182,0.17414 l 0.14135,0.12056 -0.5647,1.23246 c -0.62302,1.35976 -0.63543,1.3743 -0.9897,1.15564 -0.2,-0.12343 -0.22028,-0.21162 -0.0486,-0.21162 0.19709,0 0.37003,-0.22404 0.33578,-0.43513 -0.025,-0.1543 -0.009,-0.18873 0.12363,-0.26715 0.15002,-0.0886 0.23825,-0.27709 0.19196,-0.40993 -0.013,-0.0373 0.0437,-0.14535 0.12599,-0.2401 0.0823,-0.0947 0.14965,-0.22297 0.14965,-0.28497 0,-0.062 0.048,-0.21169 0.10653,-0.3327 0.0586,-0.121 0.11168,-0.29136 0.11801,-0.37848 0.006,-0.0766 0.0163,-0.11832 0.0482,-0.12272 z"
         style="fill:#ffffff;stroke-width:1"
         inkscape:connector-curvature="0" />
    </g>
  </g>
</svg>
